Source-HROTd_VROTd.ufo
<glyph name="exclam" format="2">
  <advance width="289"/>
  <unicode hex="0021"/>
  <outline>
    <contour>
      <point x="69.65685424949238" y="166.65685424949237" type="line"/>
      <point x="149.65685424949237" y="86.65685424949238" type="line"/>
      <point x="149.65685424949237" y="86.65685424949238"/>
      <point x="149.65685424949237" y="86.65685424949238"/>
      <point x="149.65685424949237" y="86.65685424949238" type="curve"/>
      <point x="230.65685424949237" y="5.656854249492379" type="line"/>
      <point x="219.34314575050763" y="-5.656854249492379" type="line"/>
      <point x="138.34314575050763" y="75.34314575050762" type="line"/>
      <point x="138.34314575050763" y="75.34314575050762"/>
      <point x="138.34314575050763" y="75.34314575050762"/>
      <point x="138.34314575050763" y="75.34314575050762" type="curve"/>
      <point x="58.34314575050762" y="155.34314575050763" type="line"/>
    </contour>
    <contour>
      <point x="58.30811980160454" y="5.621610072489344" type="line"/>
      <point x="138.30811980160453" y="86.62161007248935" type="line" smooth="yes"/>
      <point x="138.33139746559985" y="86.6451787072846"/>
      <point x="138.3548212927154" y="86.66860253440015"/>
      <point x="138.37838992751065" y="86.69188019839547" type="curve" smooth="yes"/>
      <point x="219.37838992751065" y="166.69188019839547" type="line"/>
      <point x="230.62161007248935" y="155.30811980160453" type="line"/>
      <point x="149.62161007248935" y="75.30811980160453" type="line" smooth="yes"/>
      <point x="149.5980414376941" y="75.28484213760922"/>
      <point x="149.71515786239078" y="75.40195856230591"/>
      <point x="149.69188019839547" y="75.37838992751065" type="curve" smooth="yes"/>
      <point x="69.69188019839547" y="-5.621610072489344" type="line"/>
    </contour>
    <contour>
      <point x="136.0" y="303.0" type="line"/>
      <point x="136.0" y="618.0" type="line"/>
      <point x="152.0" y="618.0" type="line"/>
      <point x="152.0" y="303.0" type="line"/>
    </contour>
    <contour>
      <point x="192.81226835520167" y="250.9100541561063" type="line"/>
      <point x="138.81226835520167" y="296.9100541561063" type="line" smooth="yes"/>
      <point x="135.80129952380025" y="299.4749535310038"/>
      <point x="152.23092281739346" y="299.55086218293155"/>
      <point x="149.24378287911014" y="296.95825016102526" type="curve" smooth="yes"/>
      <point x="96.24378287911014" y="250.95825016102526" type="line"/>
      <point x="85.75621712088986" y="263.04174983897474" type="line"/>
      <point x="138.75621712088986" y="309.04174983897474" type="line" smooth="yes"/>
      <point x="141.74335705917318" y="311.63436186088103"/>
      <point x="146.17676281339692" y="311.6548452187912"/>
      <point x="149.18773164479833" y="309.0899458438937" type="curve" smooth="yes"/>
      <point x="203.18773164479833" y="263.0899458438937" type="line"/>
    </contour>
    <contour>
      <point x="55.43760156980183" y="686.6564023547028" type="line"/>
      <point x="148.43760156980184" y="624.6564023547028" type="line" smooth="yes"/>
      <point x="151.11286935349474" y="622.8728904989075"/>
      <point x="136.91122104275982" y="622.9078697160394"/>
      <point x="139.5952420333826" y="624.6781814332586" type="curve" smooth="yes"/>
      <point x="233.5952420333826" y="686.6781814332586" type="line"/>
      <point x="242.4047579666174" y="673.3218185667414" type="line"/>
      <point x="148.4047579666174" y="611.3218185667414" type="line" smooth="yes"/>
      <point x="145.72073697599464" y="609.5515068495222"/>
      <point x="142.23766621389106" y="609.560085789502"/>
      <point x="139.56239843019816" y="611.3435976452972" type="curve" smooth="yes"/>
      <point x="46.56239843019817" y="673.3435976452972" type="line"/>
    </contour>
  </outline>
</glyph>
<glyph name="numbersign" format="2">
  <advance width="680"/>
  <unicode hex="0023"/>
  <outline>
    <contour>
      <point x="255.97372377676186" y="621.3521349431381" type="line"/>
      <point x="242.97372377676186" y="461.3521349431381" type="line" smooth="yes"/>
      <point x="242.97356991570393" y="461.3502412685788"/>
      <point x="242.97341538005992" y="461.34834764889536"/>
      <point x="242.9732601698585" y="461.3464540844378" type="curve" smooth="yes"/>
      <point x="222.9732601698585" y="217.34645408443782" type="line" smooth="yes"/>
      <point x="222.97175166828535" y="217.32805036524562"/>
      <point x="222.9789755083745" y="217.4200941376248"/>
      <point x="222.97759447910767" y="217.40168041406693" type="curve" smooth="yes"/>
      <point x="210.97759447910767" y="57.40168041406693" type="line"/>
      <point x="195.02240552089233" y="58.59831958593307" type="line"/>
      <point x="207.02240552089233" y="218.59831958593307" type="line" smooth="yes"/>
      <point x="207.02378655015917" y="218.61673330949094"/>
      <point x="207.02523132856837" y="218.63514219636997"/>
      <point x="207.0267398301415" y="218.65354591556218" type="curve" smooth="yes"/>
      <point x="227.0267398301415" y="462.6535459155622" type="line" smooth="yes"/>
      <point x="227.02689504034294" y="462.6554394800197"/>
      <point x="227.02612236218022" y="462.64597138230266"/>
      <point x="227.02627622323814" y="462.6478650568619" type="curve" smooth="yes"/>
      <point x="240.02627622323814" y="622.6478650568619" type="line"/>
    </contour>
    <contour>
      <point x="484.97759447910767" y="621.401680414067" type="line"/>
      <point x="472.97759447910767" y="461.4016804140669" type="line" smooth="yes"/>
      <point x="472.9762134498408" y="461.383266690509"/>
      <point x="472.97476867143166" y="461.36485780363006"/>
      <point x="472.9732601698585" y="461.3464540844378" type="curve" smooth="yes"/>
      <point x="452.9732601698585" y="217.34645408443782" type="line" smooth="yes"/>
      <point x="452.97310495965706" y="217.34456051998038"/>
      <point x="452.9738776378198" y="217.35402861769728"/>
      <point x="452.97372377676186" y="217.3521349431381" type="curve" smooth="yes"/>
      <point x="439.97372377676186" y="57.352134943138104" type="line"/>
      <point x="424.02627622323814" y="58.647865056861896" type="line"/>
      <point x="437.02627622323814" y="218.6478650568619" type="line" smooth="yes"/>
      <point x="437.02643008429607" y="218.64975873142106"/>
      <point x="437.02658461994" y="218.65165235110473"/>
      <point x="437.0267398301415" y="218.65354591556218" type="curve" smooth="yes"/>
      <point x="457.0267398301415" y="462.6535459155622" type="line" smooth="yes"/>
      <point x="457.0282483317146" y="462.6719496347544"/>
      <point x="457.0210244916255" y="462.5799058623752"/>
      <point x="457.02240552089233" y="462.5983195859331" type="curve" smooth="yes"/>
      <point x="469.02240552089233" y="622.598319585933" type="line"/>
    </contour>
    <contour>
      <point x="563.0" y="210.0" type="line"/>
      <point x="445.0" y="210.0" type="line"/>
      <point x="445.0" y="210.0"/>
      <point x="445.0" y="210.0"/>
      <point x="445.0" y="210.0" type="curve"/>
      <point x="215.0" y="210.0" type="line"/>
      <point x="215.0" y="210.0"/>
      <point x="215.0" y="210.0"/>
      <point x="215.0" y="210.0" type="curve"/>
      <point x="117.0" y="210.0" type="line"/>
      <point x="117.0" y="226.0" type="line"/>
      <point x="215.0" y="226.0" type="line"/>
      <point x="215.0" y="226.0"/>
      <point x="215.0" y="226.0"/>
      <point x="215.0" y="226.0" type="curve"/>
      <point x="445.0" y="226.0" type="line"/>
      <point x="445.0" y="226.0"/>
      <point x="445.0" y="226.0"/>
      <point x="445.0" y="226.0" type="curve"/>
      <point x="563.0" y="226.0" type="line"/>
    </contour>
    <contour>
      <point x="563.0" y="454.0" type="line"/>
      <point x="465.0" y="454.0" type="line"/>
      <point x="465.0" y="454.0"/>
      <point x="465.0" y="454.0"/>
      <point x="465.0" y="454.0" type="curve"/>
      <point x="235.0" y="454.0" type="line"/>
      <point x="235.0" y="454.0"/>
      <point x="235.0" y="454.0"/>
      <point x="235.0" y="454.0" type="curve"/>
      <point x="117.0" y="454.0" type="line"/>
      <point x="117.0" y="470.0" type="line"/>
      <point x="235.0" y="470.0" type="line"/>
      <point x="235.0" y="470.0"/>
      <point x="235.0" y="470.0"/>
      <point x="235.0" y="470.0" type="curve"/>
      <point x="465.0" y="470.0" type="line"/>
      <point x="465.0" y="470.0"/>
      <point x="465.0" y="470.0"/>
      <point x="465.0" y="470.0" type="curve"/>
      <point x="563.0" y="470.0" type="line"/>
    </contour>
    <contour>
      <point x="49.34314575050762" y="161.65685424949237" type="line"/>
      <point x="111.34314575050762" y="223.65685424949237" type="line" smooth="yes"/>
      <point x="114.449681954154" y="226.76339045313875"/>
      <point x="114.37965868010956" y="209.2572918534126"/>
      <point x="111.29807337524439" y="212.3885801470659" type="curve" smooth="yes"/>
      <point x="49.29807337524438" y="275.3885801470659" type="line"/>
      <point x="60.70192662475562" y="286.6114198529341" type="line"/>
      <point x="122.70192662475561" y="223.6114198529341" type="line" smooth="yes"/>
      <point x="125.78351192962079" y="220.48013155928078"/>
      <point x="125.76339045313877" y="215.44968195415402"/>
      <point x="122.65685424949238" y="212.34314575050763" type="curve" smooth="yes"/>
      <point x="60.65685424949238" y="150.34314575050763" type="line"/>
    </contour>
    <contour>
      <point x="49.298073375244385" y="404.6114198529341" type="line"/>
      <point x="111.29807337524439" y="467.6114198529341" type="line" smooth="yes"/>
      <point x="114.37965868010959" y="470.74270814658746"/>
      <point x="114.44968195415403" y="453.23660954686125"/>
      <point x="111.34314575050762" y="456.34314575050763" type="curve" smooth="yes"/>
      <point x="49.34314575050762" y="518.3431457505076" type="line"/>
      <point x="60.65685424949238" y="529.6568542494924" type="line"/>
      <point x="122.65685424949238" y="467.65685424949237" type="line" smooth="yes"/>
      <point x="125.7633904531388" y="464.550318045846"/>
      <point x="125.78351192962081" y="459.5198684407193"/>
      <point x="122.70192662475561" y="456.3885801470659" type="curve" smooth="yes"/>
      <point x="60.701926624755615" y="393.3885801470659" type="line"/>
    </contour>
    <contour>
      <point x="630.7019266247556" y="275.3885801470659" type="line"/>
      <point x="568.7019266247556" y="212.3885801470659" type="line" smooth="yes"/>
      <point x="565.6203413198904" y="209.25729185341257"/>
      <point x="565.550318045846" y="226.76339045313878"/>
      <point x="568.6568542494924" y="223.65685424949237" type="curve" smooth="yes"/>
      <point x="630.6568542494924" y="161.65685424949237" type="line"/>
      <point x="619.3431457505076" y="150.34314575050763" type="line"/>
      <point x="557.3431457505076" y="212.34314575050763" type="line" smooth="yes"/>
      <point x="554.2366095468611" y="215.44968195415404"/>
      <point x="554.2164880703791" y="220.48013155928075"/>
      <point x="557.2980733752444" y="223.6114198529341" type="curve" smooth="yes"/>
      <point x="619.2980733752444" y="286.6114198529341" type="line"/>
    </contour>
    <contour>
      <point x="630.6568542494924" y="518.3431457505076" type="line"/>
      <point x="568.6568542494924" y="456.34314575050763" type="line" smooth="yes"/>
      <point x="565.5503180458461" y="453.23660954686125"/>
      <point x="565.6203413198905" y="470.7427081465874"/>
      <point x="568.7019266247556" y="467.6114198529341" type="curve" smooth="yes"/>
      <point x="630.7019266247556" y="404.6114198529341" type="line"/>
      <point x="619.2980733752444" y="393.3885801470659" type="line"/>
      <point x="557.2980733752444" y="456.3885801470659" type="line" smooth="yes"/>
      <point x="554.2164880703792" y="459.5198684407192"/>
      <point x="554.2366095468612" y="464.550318045846"/>
      <point x="557.3431457505076" y="467.65685424949237" type="curve" smooth="yes"/>
      <point x="619.3431457505076" y="529.6568542494924" type="line"/>
    </contour>
    <contour>
      <point x="195.65685424949237" y="685.6568542494924" type="line"/>
      <point x="253.65685424949237" y="627.6568542494924" type="line" smooth="yes"/>
      <point x="256.6234208338763" y="624.6902876651085"/>
      <point x="239.59204512574726" y="625.3026246277312"/>
      <point x="242.76399344195215" y="628.0484903342966" type="curve" smooth="yes"/>
      <point x="309.76399344195215" y="686.0484903342966" type="line"/>
      <point x="320.23600655804785" y="673.9515096657034" type="line"/>
      <point x="253.23600655804785" y="615.9515096657034" type="line" smooth="yes"/>
      <point x="250.06405824184296" y="613.205643959138"/>
      <point x="245.3097123348916" y="613.3765791661236"/>
      <point x="242.34314575050763" y="616.3431457505076" type="curve" smooth="yes"/>
      <point x="184.34314575050763" y="674.3431457505076" type="line"/>
    </contour>
    <contour>
      <point x="424.65685424949237" y="685.6568542494924" type="line"/>
      <point x="482.65685424949237" y="627.6568542494924" type="line" smooth="yes"/>
      <point x="485.6234208338763" y="624.6902876651085"/>
      <point x="468.5920451257473" y="625.3026246277312"/>
      <point x="471.76399344195215" y="628.0484903342966" type="curve" smooth="yes"/>
      <point x="538.7639934419522" y="686.0484903342966" type="line"/>
      <point x="549.2360065580478" y="673.9515096657034" type="line"/>
      <point x="482.23600655804785" y="615.9515096657034" type="line" smooth="yes"/>
      <point x="479.064058241843" y="613.205643959138"/>
      <point x="474.30971233489157" y="613.3765791661236"/>
      <point x="471.34314575050763" y="616.3431457505076" type="curve" smooth="yes"/>
      <point x="413.34314575050763" y="674.3431457505076" type="line"/>
    </contour>
    <contour>
      <point x="484.34314575050763" y="-5.65685424949238" type="line"/>
      <point x="426.34314575050763" y="52.34314575050762" type="line" smooth="yes"/>
      <point x="423.3765791661237" y="55.30971233489156"/>
      <point x="440.4079548742527" y="54.697375372268745"/>
      <point x="437.23600655804785" y="51.95150966570335" type="curve" smooth="yes"/>
      <point x="370.23600655804785" y="-6.0484903342966545" type="line"/>
      <point x="359.76399344195215" y="6.0484903342966545" type="line"/>
      <point x="426.76399344195215" y="64.04849033429666" type="line" smooth="yes"/>
      <point x="429.935941758157" y="66.79435604086206"/>
      <point x="434.69028766510843" y="66.62342083387631"/>
      <point x="437.65685424949237" y="63.65685424949238" type="curve" smooth="yes"/>
      <point x="495.65685424949237" y="5.65685424949238" type="line"/>
    </contour>
    <contour>
      <point x="255.34314575050763" y="-5.65685424949238" type="line"/>
      <point x="197.34314575050763" y="52.34314575050762" type="line" smooth="yes"/>
      <point x="194.3765791661237" y="55.30971233489156"/>
      <point x="211.4079548742527" y="54.697375372268745"/>
      <point x="208.23600655804785" y="51.95150966570335" type="curve" smooth="yes"/>
      <point x="141.23600655804785" y="-6.0484903342966545" type="line"/>
      <point x="130.76399344195215" y="6.0484903342966545" type="line"/>
      <point x="197.76399344195215" y="64.04849033429666" type="line" smooth="yes"/>
      <point x="200.935941758157" y="66.79435604086206"/>
      <point x="205.69028766510843" y="66.62342083387631"/>
      <point x="208.65685424949237" y="63.65685424949238" type="curve" smooth="yes"/>
      <point x="266.65685424949237" y="5.65685424949238" type="line"/>
    </contour>
    <contour>
      <point x="308.39003086148546" y="518.0883532486934" type="line"/>
      <point x="240.39003086148546" y="456.08835324869335" type="line" smooth="yes"/>
      <point x="240.35975994823772" y="456.0607532983792"/>
      <point x="240.5100470093771" y="456.19990861796987"/>
      <point x="240.48020363014507" y="456.17184693302033" type="curve" smooth="yes"/>
      <point x="173.48020363014507" y="393.17184693302033" type="line"/>
      <point x="162.51979636985493" y="404.82815306697967" type="line"/>
      <point x="229.51979636985493" y="467.82815306697967" type="line" smooth="yes"/>
      <point x="229.54963974908696" y="467.8562147519292"/>
      <point x="229.5796982252668" y="467.8840468009925"/>
      <point x="229.60996913851454" y="467.91164675130665" type="curve" smooth="yes"/>
      <point x="297.60996913851454" y="529.9116467513066" type="line"/>
    </contour>
    <contour>
      <point x="183.88934093680746" y="529.4143940870649" type="line"/>
      <point x="240.88934093680746" y="467.4143940870649" type="line" smooth="yes"/>
      <point x="240.89059218317257" y="467.4130330822467"/>
      <point x="240.88433359306063" y="467.41983593695693"/>
      <point x="240.88558578269442" y="467.4184757999409" type="curve" smooth="yes"/>
      <point x="298.8855857826944" y="404.4184757999409" type="line"/>
      <point x="287.1144142173056" y="393.5815242000591" type="line"/>
      <point x="229.11441421730558" y="456.5815242000591" type="line" smooth="yes"/>
      <point x="229.1131620276718" y="456.58288433707514"/>
      <point x="229.11191030955766" y="456.5842449081169"/>
      <point x="229.11065906319254" y="456.5856059129351" type="curve" smooth="yes"/>
      <point x="172.11065906319254" y="518.5856059129351" type="line"/>
    </contour>
    <contour>
      <point x="537.4335164418668" y="518.1282967483053" type="line"/>
      <point x="470.4335164418668" y="456.1282967483052" type="line" smooth="yes"/>
      <point x="470.4323599574648" y="456.1272265687094"/>
      <point x="470.43814079818816" y="456.132579174644"/>
      <point x="470.43698494633236" y="456.13150831189523" type="curve" smooth="yes"/>
      <point x="402.43698494633236" y="393.13150831189523" type="line"/>
      <point x="391.56301505366764" y="404.86849168810477" type="line"/>
      <point x="459.56301505366764" y="467.86849168810477" type="line" smooth="yes"/>
      <point x="459.56417090552344" y="467.8695625508535"/>
      <point x="459.5653270737312" y="467.87063307209894"/>
      <point x="459.5664835581332" y="467.8717032516948" type="curve" smooth="yes"/>
      <point x="526.5664835581332" y="529.8717032516947" type="line"/>
    </contour>
    <contour>
      <point x="412.84217130815114" y="529.465257030206" type="line"/>
      <point x="470.84217130815114" y="467.4652570302059" type="line" smooth="yes"/>
      <point x="470.8724807050909" y="467.432857330029"/>
      <point x="470.9025200527195" y="467.4002060541574"/>
      <point x="470.9322862329902" y="467.367306591753" type="curve" smooth="yes"/>
      <point x="527.9322862329901" y="404.367306591753" type="line"/>
      <point x="516.0677137670099" y="393.632693408247" type="line"/>
      <point x="459.0677137670098" y="456.632693408247" type="line" smooth="yes"/>
      <point x="459.03794758673916" y="456.66559287065144"/>
      <point x="459.1881380887886" y="456.50234326961714"/>
      <point x="459.15782869184886" y="456.5347429697941" type="curve" smooth="yes"/>
      <point x="401.15782869184886" y="518.534742969794" type="line"/>
    </contour>
    <contour>
      <point x="288.43698494633236" y="275.13150831189523" type="line"/>
      <point x="220.4369849463324" y="212.1315083118952" type="line" smooth="yes"/>
      <point x="220.43582909447653" y="212.1304374491464"/>
      <point x="220.4346729262688" y="212.1293669279011"/>
      <point x="220.4335164418668" y="212.12829674830522" type="curve" smooth="yes"/>
      <point x="153.4335164418668" y="150.12829674830522" type="line"/>
      <point x="142.5664835581332" y="161.87170325169478" type="line"/>
      <point x="209.5664835581332" y="223.87170325169478" type="line" smooth="yes"/>
      <point x="209.5676400425352" y="223.87277343129065"/>
      <point x="209.56185920181176" y="223.867420825356"/>
      <point x="209.5630150536676" y="223.8684916881048" type="curve" smooth="yes"/>
      <point x="277.56301505366764" y="286.86849168810477" type="line"/>
    </contour>
    <contour>
      <point x="163.93228623299018" y="286.367306591753" type="line"/>
      <point x="220.93228623299018" y="223.367306591753" type="line" smooth="yes"/>
      <point x="220.96205241326084" y="223.33440712934856"/>
      <point x="220.81186191121145" y="223.49765673038286"/>
      <point x="220.84217130815117" y="223.46525703020592" type="curve" smooth="yes"/>
      <point x="278.84217130815114" y="161.46525703020592" type="line"/>
      <point x="267.15782869184886" y="150.53474296979408" type="line"/>
      <point x="209.15782869184883" y="212.53474296979408" type="line" smooth="yes"/>
      <point x="209.12751929490912" y="212.56714266997102"/>
      <point x="209.09747994728048" y="212.59979394584258"/>
      <point x="209.06771376700982" y="212.632693408247" type="curve" smooth="yes"/>
      <point x="152.06771376700982" y="275.632693408247" type="line"/>
    </contour>
    <contour>
      <point x="517.4802036301451" y="275.17184693302033" type="line"/>
      <point x="450.48020363014507" y="212.1718469330203" type="line" smooth="yes"/>
      <point x="450.450360250913" y="212.14378524807074"/>
      <point x="450.4203017747332" y="212.11595319900752"/>
      <point x="450.39003086148546" y="212.08835324869338" type="curve" smooth="yes"/>
      <point x="382.39003086148546" y="150.08835324869338" type="line"/>
      <point x="371.60996913851454" y="161.91164675130662" type="line"/>
      <point x="439.60996913851454" y="223.91164675130662" type="line" smooth="yes"/>
      <point x="439.6402400517623" y="223.93924670162076"/>
      <point x="439.48995299062284" y="223.80009138203013"/>
      <point x="439.51979636985493" y="223.8281530669797" type="curve" smooth="yes"/>
      <point x="506.51979636985493" y="286.82815306697967" type="line"/>
    </contour>
    <contour>
      <point x="392.8855857826944" y="286.4184757999409" type="line"/>
      <point x="450.8855857826944" y="223.4184757999409" type="line" smooth="yes"/>
      <point x="450.8868379723282" y="223.4171156629249"/>
      <point x="450.88808969044237" y="223.41575509188306"/>
      <point x="450.88934093680746" y="223.41439408706492" type="curve" smooth="yes"/>
      <point x="507.88934093680746" y="161.41439408706492" type="line"/>
      <point x="496.11065906319254" y="150.58560591293508" type="line"/>
      <point x="439.11065906319254" y="212.58560591293508" type="line" smooth="yes"/>
      <point x="439.10940781682746" y="212.58696691775322"/>
      <point x="439.11566640693934" y="212.58016406304313"/>
      <point x="439.1144142173056" y="212.5815242000591" type="curve" smooth="yes"/>
      <point x="381.1144142173056" y="275.5815242000591" type="line"/>
    </contour>
  </outline>
</glyph>
<glyph name="dollar" format="2">
  <advance width="540"/>
  <unicode hex="0024"/>
  <outline>
    <contour>
      <point x="411.4701778718653" y="570.4105336155959" type="line"/>
      <point x="373.2187690296954" y="583.1610032296525"/>
      <point x="334.04026774637174" y="590.0"/>
      <point x="285.0" y="590.0" type="curve"/>
      <point x="285.0" y="590.0"/>
      <point x="285.0" y="590.0"/>
      <point x="285.0" y="590.0" type="curve"/>
      <point x="200.99099918599177" y="590.0"/>
      <point x="134.0" y="550.7941018095577"/>
      <point x="134.0" y="480.0" type="curve"/>
      <point x="134.0" y="480.0"/>
      <point x="134.0" y="480.0"/>
      <point x="134.0" y="480.0" type="curve"/>
      <point x="134.0" y="411.16168624640477"/>
      <point x="209.51899238336216" y="378.4567844173202"/>
      <point x="281.18627793505027" y="347.3380946382976" type="curve"/>
      <point x="281.18627793505027" y="347.3380946382976"/>
      <point x="281.18627793505027" y="347.3380946382976"/>
      <point x="281.18627793505027" y="347.3380946382976" type="curve"/>
      <point x="361.52084822170616" y="312.455978592776"/>
      <point x="438.0" y="278.1064350084108"/>
      <point x="438.0" y="202.0" type="curve"/>
      <point x="438.0" y="202.0"/>
      <point x="438.0" y="202.0"/>
      <point x="438.0" y="202.0" type="curve"/>
      <point x="438.0" y="117.98619169623717"/>
      <point x="365.4186412100799" y="72.0"/>
      <point x="252.0" y="72.0" type="curve"/>
      <point x="252.0" y="72.0"/>
      <point x="252.0" y="72.0"/>
      <point x="252.0" y="72.0" type="curve"/>
      <point x="207.16940834894103" y="72.0"/>
      <point x="159.3196466059029" y="79.1273773709167"/>
      <point x="113.47017787186529" y="94.4105336155959" type="curve"/>
      <point x="118.52982212813471" y="109.5894663844041" type="line"/>
      <point x="162.66606309986918" y="94.87738606049257"/>
      <point x="208.8445643831929" y="88.0"/>
      <point x="252.0" y="88.0" type="curve"/>
      <point x="252.0" y="88.0"/>
      <point x="252.0" y="88.0"/>
      <point x="252.0" y="88.0" type="curve"/>
      <point x="354.50447637698005" y="88.0"/>
      <point x="422.0" y="126.07075823927404"/>
      <point x="422.0" y="202.0" type="curve"/>
      <point x="422.0" y="202.0"/>
      <point x="422.0" y="202.0"/>
      <point x="422.0" y="202.0" type="curve"/>
      <point x="422.0" y="269.8274448049074"/>
      <point x="346.4093582479075" y="301.57432649278644"/>
      <point x="274.81372206494973" y="332.6619053617024" type="curve"/>
      <point x="274.81372206494973" y="332.6619053617024"/>
      <point x="274.81372206494973" y="332.6619053617024"/>
      <point x="274.81372206494973" y="332.6619053617024" type="curve"/>
      <point x="194.559426137795" y="367.5091654353354"/>
      <point x="118.0" y="402.91363680681206"/>
      <point x="118.0" y="480.0" type="curve"/>
      <point x="118.0" y="480.0"/>
      <point x="118.0" y="480.0"/>
      <point x="118.0" y="480.0" type="curve"/>
      <point x="118.0" y="559.1587389796761"/>
      <point x="191.06496307745113" y="606.0"/>
      <point x="285.0" y="606.0" type="curve"/>
      <point x="285.0" y="606.0"/>
      <point x="285.0" y="606.0"/>
      <point x="285.0" y="606.0" type="curve"/>
      <point x="335.94385414893065" y="606.0"/>
      <point x="376.79361589196867" y="598.8348684631258"/>
      <point x="416.5298221281347" y="585.5894663844041" type="curve"/>
    </contour>
    <contour>
      <point x="277.0161493150866" y="598.5080632254036" type="line"/>
      <point x="284.0161493150866" y="708.5080632254036" type="line"/>
      <point x="299.9838506849134" y="707.4919367745964" type="line"/>
      <point x="292.9838506849134" y="597.4919367745964" type="line"/>
    </contour>
    <contour>
      <point x="236.0183223830586" y="-37.45886931410566" type="line"/>
      <point x="244.0183223830586" y="80.54113068589433" type="line"/>
      <point x="259.9816776169414" y="79.45886931410567" type="line"/>
      <point x="251.9816776169414" y="-38.54113068589434" type="line"/>
    </contour>
    <contour>
      <point x="481.36229006375015" y="628.0631788579909" type="line"/>
      <point x="419.36229006375015" y="572.0631788579909" type="line" smooth="yes"/>
      <point x="416.56811454129434" y="569.5394074183534"/>
      <point x="419.06344684754663" y="585.2483339569789"/>
      <point x="420.93802477467847" y="581.9829401484266" type="curve" smooth="yes"/>
      <point x="482.93802477467847" y="473.9829401484265" type="line"/>
      <point x="469.06197522532153" y="466.0170598515735" type="line"/>
      <point x="407.06197522532153" y="574.0170598515734" type="line" smooth="yes"/>
      <point x="405.1873972981897" y="577.2824536601257"/>
      <point x="405.84353441379403" y="581.4130497023716"/>
      <point x="408.63770993624985" y="583.9368211420091" type="curve" smooth="yes"/>
      <point x="470.63770993624985" y="639.9368211420091" type="line"/>
    </contour>
    <contour>
      <point x="48.585605912935065" y="50.88934093680747" type="line"/>
      <point x="110.58560591293507" y="107.88934093680747" type="line" smooth="yes"/>
      <point x="113.3292477177746" y="110.41172130577286"/>
      <point x="110.8888844919598" y="94.80510796867136"/>
      <point x="109.04621661693199" y="98.04463697476865" type="curve" smooth="yes"/>
      <point x="47.04621661693199" y="207.04463697476865" type="line"/>
      <point x="60.95378338306801" y="214.95536302523135" type="line"/>
      <point x="122.95378338306801" y="105.95536302523135" type="line" smooth="yes"/>
      <point x="124.79645125809583" y="102.71583401913406"/>
      <point x="124.15803589190448" y="98.63303943215791"/>
      <point x="121.41439408706493" y="96.11065906319253" type="curve" smooth="yes"/>
      <point x="59.414394087064935" y="39.11065906319253" type="line"/>
    </contour>
    <contour>
      <point x="237.74881713413274" y="775.5633714201284" type="line"/>
      <point x="297.7488171341327" y="713.5633714201284" type="line" smooth="yes"/>
      <point x="300.741315960197" y="710.4711226331953"/>
      <point x="283.45224093718656" y="711.0745514775944"/>
      <point x="286.6530485695987" y="713.950639495124" type="curve" smooth="yes"/>
      <point x="355.6530485695987" y="775.950639495124" type="line"/>
      <point x="366.3469514304013" y="764.049360504876" type="line"/>
      <point x="297.3469514304013" y="702.049360504876" type="line" smooth="yes"/>
      <point x="294.14614379798917" y="699.1732724873463"/>
      <point x="289.2436816919316" y="699.3443797929384"/>
      <point x="286.2511828658673" y="702.4366285798716" type="curve" smooth="yes"/>
      <point x="226.25118286586726" y="764.4366285798716" type="line"/>
    </contour>
    <contour>
      <point x="298.2511828658673" y="-105.56337142012845" type="line"/>
      <point x="238.25118286586726" y="-43.56337142012844" type="line" smooth="yes"/>
      <point x="235.25868403980303" y="-40.47112263319539"/>
      <point x="252.5477590628133" y="-41.07455147759436"/>
      <point x="249.34695143040128" y="-43.95063949512401" type="curve" smooth="yes"/>
      <point x="180.34695143040128" y="-105.95063949512401" type="line"/>
      <point x="169.65304856959872" y="-94.04936050487599" type="line"/>
      <point x="238.65304856959872" y="-32.04936050487599" type="line" smooth="yes"/>
      <point x="241.85385620201075" y="-29.173272487346342"/>
      <point x="246.7563183080685" y="-29.34437979293851"/>
      <point x="249.74881713413274" y="-32.43662857987156" type="curve" smooth="yes"/>
      <point x="309.7488171341327" y="-94.43662857987155" type="line"/>
    </contour>
    <contour>
      <point x="231.45501120518497" y="658.8517392928347" type="line"/>
      <point x="290.455011205185" y="603.8517392928347" type="line" smooth="yes"/>
      <point x="293.48272584000426" y="601.0292934468167"/>
      <point x="276.5795175048179" y="601.1982387359193"/>
      <point x="279.6630415748484" y="603.9596035747526" type="curve" smooth="yes"/>
      <point x="346.6630415748484" y="663.9596035747526" type="line"/>
      <point x="357.3369584251516" y="652.0403964252474" type="line"/>
      <point x="290.3369584251516" y="592.0403964252474" type="line" smooth="yes"/>
      <point x="287.25343435512104" y="589.2790315864141"/>
      <point x="282.5727034296343" y="589.3258148611473"/>
      <point x="279.544988794815" y="592.1482607071653" type="curve" smooth="yes"/>
      <point x="220.54498879481503" y="647.1482607071653" type="line"/>
    </contour>
    <contour>
      <point x="304.2950049438924" y="15.391699775351876" type="line"/>
      <point x="246.29500494389242" y="74.39169977535188" type="line" smooth="yes"/>
      <point x="243.2990198386804" y="77.43933979617101"/>
      <point x="260.52061172966904" y="76.89142923526308"/>
      <point x="257.3369584251516" y="74.04039642524742" type="curve" smooth="yes"/>
      <point x="190.33695842515158" y="14.040396425247424" type="line"/>
      <point x="179.66304157484842" y="25.959603574752578" type="line"/>
      <point x="246.66304157484842" y="85.95960357475258" type="line" smooth="yes"/>
      <point x="249.84669487936583" y="88.81063638476817"/>
      <point x="254.70900995089562" y="88.65594024546719"/>
      <point x="257.7049950561076" y="85.60830022464812" type="curve" smooth="yes"/>
      <point x="315.7049950561076" y="26.608300224648126" type="line"/>
    </contour>
  </outline>
</glyph>
<glyph name="percent" format="2">
  <advance width="1023"/>
  <unicode hex="0025"/>
  <outline>
    <contour>
      <point x="239.0" y="322.0" type="curve"/>
      <point x="239.0" y="322.0"/>
      <point x="239.0" y="322.0"/>
      <point x="239.0" y="322.0" type="curve"/>
      <point x="313.9801262387169" y="322.0"/>
      <point x="364.0" y="386.88490988712874"/>
      <point x="364.0" y="478.0" type="curve"/>
      <point x="364.0" y="478.0"/>
      <point x="364.0" y="478.0"/>
      <point x="364.0" y="478.0" type="curve"/>
      <point x="364.0" y="568.1659745908619"/>
      <point x="313.9801262387169" y="632.0"/>
      <point x="239.0" y="632.0" type="curve"/>
      <point x="239.0" y="632.0"/>
      <point x="239.0" y="632.0"/>
      <point x="239.0" y="632.0" type="curve"/>
      <point x="164.01987376128307" y="632.0"/>
      <point x="116.00000000000001" y="568.1659745908619"/>
      <point x="116.0" y="478.0" type="curve"/>
      <point x="116.0" y="478.0"/>
      <point x="116.0" y="478.0"/>
      <point x="116.0" y="478.0" type="curve"/>
      <point x="115.99999999999999" y="386.88490988712874"/>
      <point x="164.01987376128307" y="322.0"/>
    </contour>
    <contour>
      <point x="784.0" y="48.0" type="curve"/>
      <point x="784.0" y="48.0"/>
      <point x="784.0" y="48.0"/>
      <point x="784.0" y="48.0" type="curve"/>
      <point x="859.9672253734127" y="48.0"/>
      <point x="908.0" y="112.83932955190473"/>
      <point x="908.0" y="204.0" type="curve"/>
      <point x="908.0" y="204.0"/>
      <point x="908.0" y="204.0"/>
      <point x="908.0" y="204.0" type="curve"/>
      <point x="908.0" y="294.1659745908621"/>
      <point x="859.929241760726" y="358.0"/>
      <point x="784.0" y="358.0" type="curve"/>
      <point x="784.0" y="358.0"/>
      <point x="784.0" y="358.0"/>
      <point x="784.0" y="358.0" type="curve"/>
      <point x="708.070758239274" y="358.0"/>
      <point x="660.0" y="294.1659745908621"/>
      <point x="660.0" y="204.0" type="curve"/>
      <point x="660.0" y="204.0"/>
      <point x="660.0" y="204.0"/>
      <point x="660.0" y="204.0" type="curve"/>
      <point x="660.0" y="112.83932955190473"/>
      <point x="708.0327746265873" y="48.0"/>
    </contour>
    <contour>
      <point x="239.0" y="306.0" type="curve"/>
      <point x="155.99488248218424" y="306.0"/>
      <point x="99.99999999999999" y="377.1330217505023"/>
      <point x="100.0" y="478.0" type="curve"/>
      <point x="100.0" y="478.0"/>
      <point x="100.0" y="478.0"/>
      <point x="100.0" y="478.0" type="curve"/>
      <point x="100.00000000000001" y="577.8162805593987"/>
      <point x="155.99488248218424" y="648.0"/>
      <point x="239.0" y="648.0" type="curve"/>
      <point x="239.0" y="648.0"/>
      <point x="239.0" y="648.0"/>
      <point x="239.0" y="648.0" type="curve"/>
      <point x="322.0051175178158" y="648.0"/>
      <point x="380.0" y="577.8162805593987"/>
      <point x="380.0" y="478.0" type="curve"/>
      <point x="380.0" y="478.0"/>
      <point x="380.0" y="478.0"/>
      <point x="380.0" y="478.0" type="curve"/>
      <point x="380.0" y="377.1330217505023"/>
      <point x="322.0051175178158" y="306.0"/>
      <point x="239.0" y="306.0" type="curve"/>
      <point x="239.0" y="306.0"/>
      <point x="239.0" y="306.0"/>
    </contour>
    <contour>
      <point x="784.0" y="32.0" type="curve"/>
      <point x="699.9861916962371" y="32.0"/>
      <point x="644.0" y="103.1834300354846"/>
      <point x="644.0" y="204.0" type="curve"/>
      <point x="644.0" y="204.0"/>
      <point x="644.0" y="204.0"/>
      <point x="644.0" y="204.0" type="curve"/>
      <point x="644.0" y="303.81628055939876"/>
      <point x="699.9441847920853" y="374.0"/>
      <point x="784.0" y="374.0" type="curve"/>
      <point x="784.0" y="374.0"/>
      <point x="784.0" y="374.0"/>
      <point x="784.0" y="374.0" type="curve"/>
      <point x="868.0558152079147" y="374.0"/>
      <point x="924.0" y="303.81628055939876"/>
      <point x="924.0" y="204.0" type="curve"/>
      <point x="924.0" y="204.0"/>
      <point x="924.0" y="204.0"/>
      <point x="924.0" y="204.0" type="curve"/>
      <point x="924.0" y="103.1834300354846"/>
      <point x="868.0138083037629" y="32.0"/>
      <point x="784.0" y="32.0" type="curve"/>
      <point x="784.0" y="32.0"/>
      <point x="784.0" y="32.0"/>
    </contour>
    <contour>
      <point x="693.8262546692157" y="623.8283999243682" type="line"/>
      <point x="341.8262546692157" y="47.8283999243682" type="line"/>
      <point x="328.1737453307843" y="56.1716000756318" type="line"/>
      <point x="680.1737453307843" y="632.1716000756318" type="line"/>
    </contour>
    <contour>
      <point x="360.18673346636365" y="-4.192779405314678" type="line"/>
      <point x="328.18673346636365" y="47.80722059468532" type="line" smooth="yes"/>
      <point x="325.9610529862323" y="51.4239513748988"/>
      <point x="342.5443475753489" y="46.98829222734321"/>
      <point x="338.810265188326" y="44.96566426770581" type="curve" smooth="yes"/>
      <point x="242.810265188326" y="-7.034335732294191" type="line"/>
      <point x="235.189734811674" y="7.034335732294191" type="line"/>
      <point x="331.189734811674" y="59.03433573229419" type="line" smooth="yes"/>
      <point x="334.9238171986969" y="61.056963691931585"/>
      <point x="339.587586053505" y="59.80951018552816"/>
      <point x="341.81326653363635" y="56.19277940531468" type="curve" smooth="yes"/>
      <point x="373.81326653363635" y="4.192779405314678" type="line"/>
    </contour>
    <contour>
      <point x="661.8132665336364" y="684.1927794053147" type="line"/>
      <point x="693.8132665336364" y="632.1927794053147" type="line" smooth="yes"/>
      <point x="696.0389470137677" y="628.5760486251013"/>
      <point x="679.4556524246511" y="633.0117077726568"/>
      <point x="683.1897348116739" y="635.0343357322942" type="curve" smooth="yes"/>
      <point x="779.1897348116739" y="687.0343357322942" type="line"/>
      <point x="786.8102651883261" y="672.9656642677058" type="line"/>
      <point x="690.8102651883261" y="620.9656642677058" type="line" smooth="yes"/>
      <point x="687.0761828013033" y="618.9430363080685"/>
      <point x="682.412413946495" y="620.1904898144719"/>
      <point x="680.1867334663636" y="623.8072205946853" type="curve" smooth="yes"/>
      <point x="648.1867334663636" y="675.8072205946853" type="line"/>
    </contour>
  </outline>
</glyph>
<glyph name="zero" format="2">
  <advance width="646"/>
  <unicode hex="0030"/>
  <outline>
    <contour>
      <point x="323.0" y="642.0" type="curve"/>
      <point x="323.0" y="642.0"/>
      <point x="323.0" y="642.0"/>
      <point x="323.0" y="642.0" type="curve"/>
      <point x="456.78856169007815" y="642.0"/>
      <point x="542.0" y="517.041701326027"/>
      <point x="542.0" y="339.0" type="curve"/>
      <point x="542.0" y="339.0"/>
      <point x="542.0" y="339.0"/>
      <point x="542.0" y="339.0" type="curve"/>
      <point x="542.0" y="160.95829867397285"/>
      <point x="456.78856169007815" y="37.999999999999986"/>
      <point x="323.0" y="38.0" type="curve"/>
      <point x="323.0" y="38.0"/>
      <point x="323.0" y="38.0"/>
      <point x="323.0" y="38.0" type="curve"/>
      <point x="189.21143830992173" y="38.000000000000014"/>
      <point x="103.99999999999999" y="162.95829867397285"/>
      <point x="104.0" y="341.0" type="curve"/>
      <point x="104.0" y="341.0"/>
      <point x="104.0" y="341.0"/>
      <point x="104.0" y="341.0" type="curve"/>
      <point x="104.00000000000001" y="519.041701326027"/>
      <point x="189.21143830992173" y="642.0"/>
    </contour>
    <contour>
      <point x="323.0" y="626.0" type="curve"/>
      <point x="196.82397089923916" y="626.0"/>
      <point x="120.00000000000001" y="508.9111771879357"/>
      <point x="120.0" y="341.0" type="curve"/>
      <point x="120.0" y="341.0"/>
      <point x="120.0" y="341.0"/>
      <point x="120.0" y="341.0" type="curve"/>
      <point x="119.99999999999999" y="173.0888228120643"/>
      <point x="196.82397089923916" y="54.000000000000014"/>
      <point x="323.0" y="54.0" type="curve"/>
      <point x="323.0" y="54.0"/>
      <point x="323.0" y="54.0"/>
      <point x="323.0" y="54.0" type="curve"/>
      <point x="449.1760291007608" y="53.999999999999986"/>
      <point x="526.0" y="171.0888228120643"/>
      <point x="526.0" y="339.0" type="curve"/>
      <point x="526.0" y="339.0"/>
      <point x="526.0" y="339.0"/>
      <point x="526.0" y="339.0" type="curve"/>
      <point x="526.0" y="506.9111771879357"/>
      <point x="449.1760291007608" y="626.0"/>
      <point x="323.0" y="626.0" type="curve"/>
      <point x="323.0" y="626.0"/>
      <point x="323.0" y="626.0"/>
    </contour>
  </outline>
</glyph>
<glyph name="one" format="2">
  <advance width="392"/>
  <unicode hex="0031"/>
  <outline>
    <contour>
      <point x="327.5865908166026" y="687.2737444129823" type="line"/>
      <point x="245.5865908166026" y="607.2737444129823" type="line" smooth="yes"/>
      <point x="245.5630271010892" y="607.2507554222375"/>
      <point x="245.68013237639576" y="607.366423877411"/>
      <point x="245.65685424949237" y="607.3431457505076" type="curve" smooth="yes"/>
      <point x="164.65685424949237" y="526.3431457505076" type="line"/>
      <point x="153.34314575050763" y="537.6568542494924" type="line"/>
      <point x="234.34314575050763" y="618.6568542494924" type="line" smooth="yes"/>
      <point x="234.36642387741102" y="618.6801323763958"/>
      <point x="234.389845467884" y="618.7032665962729"/>
      <point x="234.4134091833974" y="618.7262555870177" type="curve" smooth="yes"/>
      <point x="316.4134091833974" y="698.7262555870177" type="line"/>
    </contour>
    <contour>
      <point x="327.7844826491066" y="-6.799221533699036" type="line"/>
      <point x="227.7844826491066" y="55.20077846630096" type="line" smooth="yes"/>
      <point x="225.2751061732344" y="56.75659188134172"/>
      <point x="238.56550549896357" y="56.55834003054576"/>
      <point x="236.01083995130944" y="55.07806653564337" type="curve" smooth="yes"/>
      <point x="129.01083995130944" y="-6.921933464356627" type="line"/>
      <point x="120.98916004869056" y="6.921933464356627" type="line"/>
      <point x="227.98916004869056" y="68.92193346435663" type="line" smooth="yes"/>
      <point x="230.54382559634467" y="70.402206959259"/>
      <point x="233.70614087502125" y="70.35503494873979"/>
      <point x="236.2155173508934" y="68.79922153369904" type="curve" smooth="yes"/>
      <point x="336.2155173508934" y="6.799221533699036" type="line"/>
    </contour>
    <contour>
      <point x="87.57437074178442" y="581.6234062401061" type="line"/>
      <point x="131.86912127578015" y="595.7171905009229"/>
      <point x="192.15575886337376" y="611.7908513569265"/>
      <point x="238.46390714891476" y="620.8511412388801" type="curve" smooth="yes"/>
      <point x="243.66287323325804" y="621.868330255382"/>
      <point x="248.39697567134672" y="617.6427062599582"/>
      <point x="247.974522228289" y="612.3620382217368" type="curve" smooth="yes"/>
      <point x="243.98418306045266" y="562.4827986237823"/>
      <point x="242.0" y="505.62081233757766"/>
      <point x="242.0" y="349.0" type="curve" smooth="yes"/>
      <point x="242.0" y="348.98141723902796"/>
      <point x="241.9999352526865" y="348.9628345344551"/>
      <point x="241.99980575923854" y="348.9442522246743" type="curve" smooth="yes"/>
      <point x="239.99980575923854" y="61.944252224674294" type="line"/>
      <point x="224.00019424076146" y="62.055747775325706" type="line"/>
      <point x="226.00019424076146" y="349.0557477753257" type="line" smooth="yes"/>
      <point x="226.00032373420942" y="349.0743300851065"/>
      <point x="226.0" y="348.98141723902796"/>
      <point x="226.0" y="349.0" type="curve" smooth="yes"/>
      <point x="226.0" y="506.34009561126095"/>
      <point x="228.01681291537315" y="563.52965107404"/>
      <point x="232.025477771711" y="613.6379617782632" type="curve" smooth="yes"/>
      <point x="232.44793121476872" y="618.9186298164846"/>
      <point x="246.73505893542853" y="606.1660477776218"/>
      <point x="241.53609285108524" y="605.1488587611199" type="curve" smooth="yes"/>
      <point x="195.85265368860018" y="596.2107945771556"/>
      <point x="136.12283193537522" y="580.280249157172"/>
      <point x="92.42562925821558" y="566.3765937598939" type="curve"/>
    </contour>
    <contour>
      <point x="21.094499174964763" y="472.0390665203036" type="line"/>
      <point x="83.09449917496477" y="578.0390665203037" type="line" smooth="yes"/>
      <point x="85.00777928067797" y="581.3101583139423"/>
      <point x="87.44994432879697" y="565.5230961808516"/>
      <point x="84.63770993624983" y="568.0631788579909" type="curve" smooth="yes"/>
      <point x="22.637709936249838" y="624.0631788579909" type="line"/>
      <point x="33.36229006375016" y="635.9368211420091" type="line"/>
      <point x="95.36229006375017" y="579.9368211420091" type="line" smooth="yes"/>
      <point x="98.1745244562973" y="577.3967384648697"/>
      <point x="98.81878093074843" y="573.232025273335"/>
      <point x="96.90550082503523" y="569.9609334796963" type="curve" smooth="yes"/>
      <point x="34.90550082503523" y="463.9609334796964" type="line"/>
    </contour>
  </outline>
</glyph>
<glyph name="three" format="2">
  <advance width="523"/>
  <unicode hex="0033"/>
  <outline>
    <contour>
      <point x="128.25327433045553" y="615.9650738084744" type="line"/>
      <point x="192.45606670422208" y="621.9840855935148"/>
      <point x="269.6514506075888" y="625.0"/>
      <point x="380.0" y="625.0" type="curve" smooth="yes"/>
      <point x="386.45555847448287" y="625.0"/>
      <point x="390.2525722958346" y="617.747660709247"/>
      <point x="386.5747073061336" y="612.4422347758277" type="curve" smooth="yes"/>
      <point x="212.57470730613355" y="361.4422347758277" type="line" smooth="yes"/>
      <point x="209.026091683797" y="356.323254768894"/>
      <point x="200.28610787751884" y="374.3754442245845"/>
      <point x="206.50250226279198" y="373.98420261991697" type="curve" smooth="yes"/>
      <point x="354.78163718265876" y="364.651949373212"/>
      <point x="426.0" y="297.32253246704903"/>
      <point x="426.0" y="204.0" type="curve"/>
      <point x="426.0" y="204.0"/>
      <point x="426.0" y="204.0"/>
      <point x="426.0" y="204.0" type="curve"/>
      <point x="426.0" y="102.9136164231853"/>
      <point x="339.8025538944007" y="40.0"/>
      <point x="221.0" y="40.0" type="curve"/>
      <point x="221.0" y="40.0"/>
      <point x="221.0" y="40.0"/>
      <point x="221.0" y="40.0" type="curve"/>
      <point x="186.0790397235893" y="40.0"/>
      <point x="151.1599287047638" y="47.15660780865344"/>
      <point x="117.26605549530636" y="59.4816526120925" type="curve"/>
      <point x="122.73394450469364" y="74.5183473879075" type="line"/>
      <point x="154.84343769888147" y="62.84216804456646"/>
      <point x="187.91749186053374" y="56.0"/>
      <point x="221.0" y="56.0" type="curve"/>
      <point x="221.0" y="56.0"/>
      <point x="221.0" y="56.0"/>
      <point x="221.0" y="56.0" type="curve"/>
      <point x="330.22171096435744" y="56.0"/>
      <point x="410.0" y="111.0657371619064"/>
      <point x="410.0" y="204.0" type="curve"/>
      <point x="410.0" y="204.0"/>
      <point x="410.0" y="204.0"/>
      <point x="410.0" y="204.0" type="curve"/>
      <point x="410.0" y="290.6588048835625"/>
      <point x="343.1887099410908" y="349.34991689172665"/>
      <point x="205.49749773720802" y="358.01579738008303" type="curve" smooth="yes"/>
      <point x="199.2811033519349" y="358.40703898475056"/>
      <point x="195.8766770715299" y="365.43878521723855"/>
      <point x="199.42529269386645" y="370.5577652241723" type="curve" smooth="yes"/>
      <point x="373.4252926938664" y="621.5577652241723" type="line" smooth="yes"/>
      <point x="377.1031576835675" y="626.8631911575916"/>
      <point x="386.45555847448287" y="609.0"/>
      <point x="380.0" y="609.0" type="curve" smooth="yes"/>
      <point x="270.3205400480574" y="609.0"/>
      <point x="193.56022964158385" y="606.0174421889046"/>
      <point x="129.74672566954447" y="600.0349261915256" type="curve"/>
    </contour>
    <contour>
      <point x="60.563407363313864" y="528.7508183746969" type="line"/>
      <point x="122.56340736331386" y="612.7508183746969" type="line" smooth="yes"/>
      <point x="124.78054218609509" y="615.7546784571747"/>
      <point x="125.37403072214357" y="599.9507013340582"/>
      <point x="122.93784958117276" y="602.779814917121" type="curve" smooth="yes"/>
      <point x="60.937849581172756" y="674.779814917121" type="line"/>
      <point x="73.06215041882724" y="685.220185082879" type="line"/>
      <point x="135.06215041882726" y="613.220185082879" type="line" smooth="yes"/>
      <point x="137.49833155979806" y="610.3910714998161"/>
      <point x="137.65372745946735" y="606.2530417077809"/>
      <point x="135.43659263668613" y="603.2491816253031" type="curve" smooth="yes"/>
      <point x="73.43659263668614" y="519.2491816253031" type="line"/>
    </contour>
    <contour>
      <point x="52.80175080636835" y="20.080970754814388" type="line"/>
      <point x="114.80175080636835" y="73.08097075481439" type="line" smooth="yes"/>
      <point x="117.70809785274166" y="75.56542871381093"/>
      <point x="114.90818568710735" y="59.741018562704156"/>
      <point x="113.03078232636987" y="63.071895493044835" type="curve" smooth="yes"/>
      <point x="51.030782326369874" y="173.07189549304482" type="line"/>
      <point x="64.96921767363013" y="180.92810450695518" type="line"/>
      <point x="126.96921767363013" y="70.92810450695517" type="line" smooth="yes"/>
      <point x="128.8466210343676" y="67.59722757661449"/>
      <point x="128.10459624000495" y="63.40348720418215"/>
      <point x="125.19824919363165" y="60.91902924518561" type="curve" smooth="yes"/>
      <point x="63.19824919363165" y="7.919029245185612" type="line"/>
    </contour>
    <contour>
      <point x="259.16077976242417" y="560.0185744968182" type="line"/>
      <point x="376.16077976242417" y="624.0185744968182" type="line" smooth="yes"/>
      <point x="376.1845178704482" y="624.0315594447972"/>
      <point x="376.208321701946" y="624.0444238792617"/>
      <point x="376.2321903379306" y="624.0571673035586" type="curve" smooth="yes"/>
      <point x="494.2321903379306" y="687.0571673035586" type="line"/>
      <point x="501.7678096620694" y="672.9428326964414" type="line"/>
      <point x="383.7678096620694" y="609.9428326964414" type="line" smooth="yes"/>
      <point x="383.74394102608477" y="609.9300892721445"/>
      <point x="383.86295834559985" y="609.9944104511607"/>
      <point x="383.83922023757583" y="609.9814255031818" type="curve" smooth="yes"/>
      <point x="266.83922023757583" y="545.9814255031818" type="line"/>
    </contour>
    <contour>
      <point x="90.52560651471998" y="319.20614945095116" type="line"/>
      <point x="202.52560651471998" y="373.20614945095116" type="line" smooth="yes"/>
      <point x="202.59183830670165" y="373.2380826363709"/>
      <point x="202.65850719873865" y="373.26910119875345"/>
      <point x="202.72559418520297" y="373.2991962954851" type="curve" smooth="yes"/>
      <point x="309.72559418520297" y="421.2991962954851" type="line"/>
      <point x="316.27440581479703" y="406.7008037045149" type="line"/>
      <point x="209.27440581479703" y="358.7008037045149" type="line" smooth="yes"/>
      <point x="209.20731882833272" y="358.67070860778324"/>
      <point x="209.54062527726168" y="358.8257837344686"/>
      <point x="209.47439348528002" y="358.79385054904884" type="curve" smooth="yes"/>
      <point x="97.47439348528002" y="304.79385054904884" type="line"/>
    </contour>
  </outline>
</glyph>
<glyph name="five" format="2">
  <advance width="527"/>
  <unicode hex="0035"/>
  <outline>
    <contour>
      <point x="114.78549223682901" y="75.49940217607812" type="line"/>
      <point x="148.84101532157368" y="62.85020788745866"/>
      <point x="182.91749186053374" y="56.00000000000001"/>
      <point x="216.0" y="56.0" type="curve"/>
      <point x="216.0" y="56.0"/>
      <point x="216.0" y="56.0"/>
      <point x="216.0" y="56.0" type="curve"/>
      <point x="325.33101464625" y="55.999999999999986"/>
      <point x="402.0" y="114.259425235"/>
      <point x="402.0" y="214.0" type="curve"/>
      <point x="402.0" y="214.0"/>
      <point x="402.0" y="214.0"/>
      <point x="402.0" y="214.0" type="curve"/>
      <point x="402.0" y="318.35383128136715"/>
      <point x="316.67007261497497" y="378.19608587759063"/>
      <point x="133.08462869405116" y="353.07386723578" type="curve" smooth="yes"/>
      <point x="127.9775480547784" y="352.3750035693532"/>
      <point x="123.55218746131229" y="356.617632330409"/>
      <point x="124.03519885077557" y="361.74962834345644" type="curve" smooth="yes"/>
      <point x="148.03519885077557" y="616.7496283434564" type="line" smooth="yes"/>
      <point x="148.42323898973711" y="620.8725548199228"/>
      <point x="151.89352358464612" y="624.0178519149417"/>
      <point x="156.03463171012964" y="623.9999250399396" type="curve" smooth="yes"/>
      <point x="387.03463171012964" y="622.9999250399396" type="line"/>
      <point x="386.96536828987036" y="607.0000749600604" type="line"/>
      <point x="155.96536828987036" y="608.0000749600604" type="line" smooth="yes"/>
      <point x="151.82426016438683" y="608.0180018350625"/>
      <point x="164.35284128818597" y="619.37329813301"/>
      <point x="163.96480114922443" y="615.2503716565436" type="curve" smooth="yes"/>
      <point x="139.96480114922443" y="360.25037165654356" type="line" smooth="yes"/>
      <point x="139.48178975976114" y="355.1183756434961"/>
      <point x="125.80829066667607" y="368.22726909779317"/>
      <point x="130.91537130594884" y="368.92613276422" type="curve" smooth="yes"/>
      <point x="327.2387261305474" y="395.79143395074396"/>
      <point x="418.0" y="325.5943280055613"/>
      <point x="418.0" y="214.0" type="curve"/>
      <point x="418.0" y="214.0"/>
      <point x="418.0" y="214.0"/>
      <point x="418.0" y="214.0" type="curve"/>
      <point x="418.0" y="105.78113224231751"/>
      <point x="334.6245281189981" y="39.999999999999986"/>
      <point x="216.0" y="40.0" type="curve"/>
      <point x="216.0" y="40.0"/>
      <point x="216.0" y="40.0"/>
      <point x="216.0" y="40.0" type="curve"/>
      <point x="181.0790397235893" y="40.00000000000001"/>
      <point x="145.162555106535" y="47.14846595352955"/>
      <point x="109.21450776317099" y="60.50059782392188" type="curve"/>
    </contour>
    <contour>
      <point x="454.7888658562664" y="674.478312567869" type="line"/>
      <point x="392.7888658562664" y="609.478312567869" type="line" smooth="yes"/>
      <point x="390.1848599185666" y="606.7483063428612"/>
      <point x="391.4870793720873" y="622.622329015514"/>
      <point x="393.61135542975546" y="619.50443996313" type="curve" smooth="yes"/>
      <point x="455.61135542975546" y="528.50443996313" type="line"/>
      <point x="442.38864457024454" y="519.49556003687" type="line"/>
      <point x="380.38864457024454" y="610.49556003687" type="line" smooth="yes"/>
      <point x="378.26436851257637" y="613.6134490892539"/>
      <point x="378.6071282060338" y="617.7916812071231"/>
      <point x="381.2111341437336" y="620.521687432131" type="curve" smooth="yes"/>
      <point x="443.2111341437336" y="685.521687432131" type="line"/>
    </contour>
    <contour>
      <point x="44.745754041566386" y="20.032652767090447" type="line"/>
      <point x="106.74575404156639" y="74.03265276709045" type="line" smooth="yes"/>
      <point x="109.61691945910083" y="76.53334522752368"/>
      <point x="106.92872203706673" y="60.73507099420917"/>
      <point x="105.04621661693199" y="64.04463697476865" type="curve" smooth="yes"/>
      <point x="43.04621661693199" y="173.04463697476865" type="line"/>
      <point x="56.95378338306801" y="180.95536302523135" type="line"/>
      <point x="118.95378338306801" y="71.95536302523135" type="line" smooth="yes"/>
      <point x="120.83628880320276" y="68.64579704467188"/>
      <point x="120.12541137596806" y="64.46803969334277"/>
      <point x="117.25424595843361" y="61.96734723290955" type="curve" smooth="yes"/>
      <point x="55.254245958433614" y="7.967347232909551" type="line"/>
    </contour>
    <contour>
      <point x="54.382841515708066" y="295.6962733925214" type="line"/>
      <point x="126.38284151570807" y="366.6962733925214" type="line" smooth="yes"/>
      <point x="126.43883170641739" y="366.7514859416931"/>
      <point x="126.49563290244717" y="366.80586997636186"/>
      <point x="126.55322658442358" y="366.8594077652413" type="curve" smooth="yes"/>
      <point x="197.55322658442358" y="432.8594077652413" type="line"/>
      <point x="208.44677341557642" y="421.1405922347587" type="line"/>
      <point x="137.44677341557642" y="355.1405922347587" type="line" smooth="yes"/>
      <point x="137.38917973359997" y="355.0870544458792"/>
      <point x="137.67314867500127" y="355.3589391566503"/>
      <point x="137.61715848429193" y="355.3037266074786" type="curve" smooth="yes"/>
      <point x="65.61715848429193" y="284.3037266074786" type="line"/>
    </contour>
    <contour>
      <point x="210.1637023668793" y="546.5284709689494" type="line"/>
      <point x="150.1637023668793" y="610.5284709689494" type="line"/>
      <point x="150.1637023668793" y="610.5284709689494"/>
      <point x="150.1637023668793" y="610.5284709689494"/>
      <point x="150.1637023668793" y="610.5284709689494" type="curve"/>
      <point x="90.16370236687932" y="674.5284709689494" type="line"/>
      <point x="101.83629763312068" y="685.4715290310506" type="line"/>
      <point x="161.8362976331207" y="621.4715290310506" type="line"/>
      <point x="161.8362976331207" y="621.4715290310506"/>
      <point x="161.8362976331207" y="621.4715290310506"/>
      <point x="161.8362976331207" y="621.4715290310506" type="curve"/>
      <point x="221.8362976331207" y="557.4715290310506" type="line"/>
    </contour>
  </outline>
</glyph>
<glyph name="six" format="2">
  <advance width="570"/>
  <unicode hex="0036"/>
  <outline>
    <contour>
      <point x="196.32158739699182" y="63.51058897002091" type="line"/>
      <point x="151.39795696133694" y="95.89739230735353"/>
      <point x="125.0" y="149.22639332533478"/>
      <point x="125.0" y="214.0" type="curve"/>
      <point x="125.0" y="214.0"/>
      <point x="125.0" y="214.0"/>
      <point x="125.0" y="214.0" type="curve"/>
      <point x="125.00000000000003" y="317.3254722575334"/>
      <point x="198.41237790867675" y="388.0"/>
      <point x="308.0" y="388.0" type="curve"/>
      <point x="308.0" y="388.0"/>
      <point x="308.0" y="388.0"/>
      <point x="308.0" y="388.0" type="curve"/>
      <point x="395.89070433021993" y="388.0"/>
      <point x="474.0" y="327.9560162301611"/>
      <point x="474.0" y="216.0" type="curve"/>
      <point x="474.0" y="216.0"/>
      <point x="474.0" y="216.0"/>
      <point x="474.0" y="216.0" type="curve"/>
      <point x="474.0" y="114.7112919759068"/>
      <point x="401.64241590236895" y="36.0"/>
      <point x="292.0" y="36.0" type="curve"/>
      <point x="292.0" y="36.0"/>
      <point x="292.0" y="36.0"/>
      <point x="292.0" y="36.0" type="curve"/>
      <point x="183.7222324449448" y="36.0"/>
      <point x="100.0" y="122.41218673947729"/>
      <point x="100.0" y="307.0" type="curve" smooth="yes"/>
      <point x="100.0" y="307.03375358421977"/>
      <point x="100.00106807225137" y="306.8649914088249"/>
      <point x="100.00064084591764" y="306.8987422891888" type="curve" smooth="yes"/>
      <point x="96.928649640957" y="549.5860474810797"/>
      <point x="194.78439284509136" y="636.0"/>
      <point x="332.0" y="636.0" type="curve"/>
      <point x="332.0" y="636.0"/>
      <point x="332.0" y="636.0"/>
      <point x="332.0" y="636.0" type="curve"/>
      <point x="364.85036096202316" y="636.0"/>
      <point x="399.7604996279444" y="629.8698903383554"/>
      <point x="436.7171557102205" y="616.5244311975335" type="curve"/>
      <point x="431.2828442897795" y="601.4755688024665" type="line"/>
      <point x="396.2367832292262" y="614.1310908521107"/>
      <point x="363.1520542760474" y="620.0"/>
      <point x="332.0" y="620.0" type="curve"/>
      <point x="332.0" y="620.0"/>
      <point x="332.0" y="620.0"/>
      <point x="332.0" y="620.0" type="curve"/>
      <point x="201.2259526763422" y="620.0"/>
      <point x="113.0715819751945" y="538.395654842952"/>
      <point x="115.99935915408236" y="307.1012577108112" type="curve" smooth="yes"/>
      <point x="115.99978638041608" y="307.06750683044726"/>
      <point x="116.0" y="307.03375358421977"/>
      <point x="116.0" y="307.0" type="curve" smooth="yes"/>
      <point x="116.0" y="133.6101456650344"/>
      <point x="190.29086756887494" y="52.0"/>
      <point x="292.0" y="52.0" type="curve"/>
      <point x="292.0" y="52.0"/>
      <point x="292.0" y="52.0"/>
      <point x="292.0" y="52.0" type="curve"/>
      <point x="392.3978972687813" y="52.0"/>
      <point x="458.0" y="123.25146633264966"/>
      <point x="458.0" y="216.0" type="curve"/>
      <point x="458.0" y="216.0"/>
      <point x="458.0" y="216.0"/>
      <point x="458.0" y="216.0" type="curve"/>
      <point x="458.0" y="318.05611728956245"/>
      <point x="388.11882104975" y="372.0"/>
      <point x="308.0" y="372.0" type="curve"/>
      <point x="308.0" y="372.0"/>
      <point x="308.0" y="372.0"/>
      <point x="308.0" y="372.0" type="curve"/>
      <point x="207.55187867055403" y="372.0"/>
      <point x="141.00000000000003" y="308.70822868204914"/>
      <point x="141.0" y="214.0" type="curve"/>
      <point x="141.0" y="214.0"/>
      <point x="141.0" y="214.0"/>
      <point x="141.0" y="214.0" type="curve"/>
      <point x="141.0" y="154.7766998361792"/>
      <point x="164.6041882958422" y="106.10106111188948"/>
      <point x="205.67841260300818" y="76.48941102997908" type="curve"/>
    </contour>
    <contour>
      <point x="190.20633098764776" y="384.9259471810776" type="line"/>
      <point x="136.06986875878738" y="338.5232652706258"/>
      <point x="106.0212339980159" y="257.87002308723083"/>
      <point x="151.45719336866662" y="140.89659577130027" type="curve"/>
      <point x="136.54280663133338" y="135.10340422869973" type="line"/>
      <point x="87.97860833261691" y="260.130382827523"/>
      <point x="121.92994337983903" y="347.4765737053396"/>
      <point x="179.79366901235224" y="397.0740528189224" type="curve"/>
    </contour>
    <contour>
      <point x="501.30891678846825" y="658.0154028929994" type="line"/>
      <point x="439.30891678846825" y="603.0154028929994" type="line" smooth="yes"/>
      <point x="436.47215157254044" y="600.4989176208054"/>
      <point x="439.05006709462646" y="616.2716406233559"/>
      <point x="440.93802477467847" y="612.9829401484266" type="curve" smooth="yes"/>
      <point x="502.93802477467847" y="504.9829401484265" type="line"/>
      <point x="489.06197522532153" y="497.0170598515735" type="line"/>
      <point x="427.06197522532153" y="605.0170598515734" type="line" smooth="yes"/>
      <point x="425.1740175452695" y="608.3057603265028"/>
      <point x="425.85431799560394" y="612.4681118348066"/>
      <point x="428.69108321153175" y="614.9845971070006" type="curve" smooth="yes"/>
      <point x="490.69108321153175" y="669.9845971070006" type="line"/>
    </contour>
  </outline>
</glyph>
<glyph name="seven" format="2">
  <advance width="503"/>
  <unicode hex="0037"/>
  <outline>
    <contour>
      <point x="190.4258180414423" y="72.57522186590963" type="line"/>
      <point x="207.4456196243449" y="122.63346181562312"/>
      <point x="236.47081697798296" y="201.71044169392795"/>
      <point x="294.53837531965064" y="351.8851615430684" type="curve" smooth="yes"/>
      <point x="294.5395402340849" y="351.8881742528122"/>
      <point x="294.5407069730315" y="351.8911862567576"/>
      <point x="294.54187553585024" y="351.8941975532521" type="curve" smooth="yes"/>
      <point x="398.54187553585024" y="619.8941975532522" type="line" smooth="yes"/>
      <point x="400.57665709032926" y="625.1376730974865"/>
      <point x="411.62444412875016" y="609.0"/>
      <point x="406.0" y="609.0" type="curve" smooth="yes"/>
      <point x="205.38514939091766" y="609.0"/>
      <point x="144.58833883537758" y="607.0211512778561"/>
      <point x="97.67839864320406" y="603.0288159423521" type="curve"/>
      <point x="96.32160135679594" y="618.9711840576479" type="line"/>
      <point x="143.4234134187657" y="622.9798489139857"/>
      <point x="204.56459096902282" y="625.0"/>
      <point x="406.0" y="625.0" type="curve" smooth="yes"/>
      <point x="411.62444412875016" y="625.0"/>
      <point x="415.4929060186288" y="619.3492779909822"/>
      <point x="413.45812446414976" y="614.1058024467478" type="curve" smooth="yes"/>
      <point x="309.45812446414976" y="346.1058024467479" type="line" smooth="yes"/>
      <point x="309.456955901331" y="346.1027911502533"/>
      <point x="309.4627895947836" y="346.11785116667534"/>
      <point x="309.46162468034936" y="346.1148384569316" type="curve" smooth="yes"/>
      <point x="251.54459738941455" y="196.32942304934147"/>
      <point x="222.54986237141787" y="117.3532499366204"/>
      <point x="205.5741819585577" y="67.42477813409037" type="curve"/>
    </contour>
    <contour>
      <point x="279.98498525178104" y="-6.232946901357848" type="line"/>
      <point x="192.98498525178104" y="63.76705309864215" type="line" smooth="yes"/>
      <point x="190.4567532111732" y="65.80126278648754"/>
      <point x="204.70359580988776" y="64.56016824497893"/>
      <point x="201.8617016391929" y="62.993769883178615" type="curve" smooth="yes"/>
      <point x="74.86170163919289" y="-7.006230116821383" type="line"/>
      <point x="67.13829836080711" y="7.006230116821383" type="line"/>
      <point x="194.1382983608071" y="77.00623011682138" type="line" smooth="yes"/>
      <point x="196.98019253150198" y="78.5726284786217"/>
      <point x="200.48678270761113" y="78.26715658920324"/>
      <point x="203.01501474821896" y="76.23294690135785" type="curve" smooth="yes"/>
      <point x="290.01501474821896" y="6.232946901357848" type="line"/>
    </contour>
    <contour>
      <point x="28.485076342447723" y="528.6428191582556" type="line"/>
      <point x="90.48507634244773" y="615.6428191582556" type="line" smooth="yes"/>
      <point x="92.65950379485791" y="618.6940318737345"/>
      <point x="93.55356271061873" y="602.866113856756"/>
      <point x="91.04936050487599" y="605.6530485695987" type="curve" smooth="yes"/>
      <point x="29.04936050487599" y="674.6530485695987" type="line"/>
      <point x="40.95063949512401" y="685.3469514304013" type="line"/>
      <point x="102.95063949512401" y="616.3469514304013" type="line" smooth="yes"/>
      <point x="105.45484170086675" y="613.5600167175586"/>
      <point x="105.68935110996246" y="609.4083935572232"/>
      <point x="103.51492365755227" y="606.3571808417444" type="curve" smooth="yes"/>
      <point x="41.51492365755227" y="519.3571808417444" type="line"/>
    </contour>
    <contour>
      <point x="305.61074846810544" y="560.6883832866965" type="line"/>
      <point x="401.61074846810544" y="623.6883832866965" type="line" smooth="yes"/>
      <point x="401.62132410709086" y="623.6953235497807"/>
      <point x="401.63191619206884" y="623.7022387198817"/>
      <point x="401.64252463366154" y="623.7091287386481" type="curve" smooth="yes"/>
      <point x="498.64252463366154" y="686.7091287386481" type="line"/>
      <point x="507.35747536633846" y="673.2908712613519" type="line"/>
      <point x="410.35747536633846" y="610.2908712613519" type="line" smooth="yes"/>
      <point x="410.34686692474577" y="610.2839812425855"/>
      <point x="410.39982717088" y="610.3185569763876"/>
      <point x="410.38925153189456" y="610.3116167133035" type="curve" smooth="yes"/>
      <point x="314.38925153189456" y="547.3116167133035" type="line"/>
    </contour>
  </outline>
</glyph>
<glyph name="nine" format="2">
  <advance width="570"/>
  <unicode hex="0039"/>
  <outline>
    <contour>
      <point x="373.67841260300816" y="614.4894110299791" type="line"/>
      <point x="418.602043038663" y="582.1026076926465"/>
      <point x="445.0" y="528.7736066746652"/>
      <point x="445.0" y="464.0" type="curve"/>
      <point x="445.0" y="464.0"/>
      <point x="445.0" y="464.0"/>
      <point x="445.0" y="464.0" type="curve"/>
      <point x="445.0" y="360.6745277424666"/>
      <point x="371.5876220913233" y="290.0"/>
      <point x="262.0" y="290.0" type="curve"/>
      <point x="262.0" y="290.0"/>
      <point x="262.0" y="290.0"/>
      <point x="262.0" y="290.0" type="curve"/>
      <point x="174.10929566978015" y="290.0"/>
      <point x="95.99999999999999" y="350.0439837698389"/>
      <point x="96.0" y="462.0" type="curve"/>
      <point x="96.0" y="462.0"/>
      <point x="96.0" y="462.0"/>
      <point x="96.0" y="462.0" type="curve"/>
      <point x="96.00000000000001" y="563.2887080240931"/>
      <point x="168.35758409763108" y="642.0"/>
      <point x="278.0" y="642.0" type="curve"/>
      <point x="278.0" y="642.0"/>
      <point x="278.0" y="642.0"/>
      <point x="278.0" y="642.0" type="curve"/>
      <point x="386.2777675550553" y="642.0"/>
      <point x="470.0" y="555.5878132605227"/>
      <point x="470.0" y="371.0" type="curve" smooth="yes"/>
      <point x="470.0" y="370.96624641578023"/>
      <point x="469.99893192774863" y="371.1350085911751"/>
      <point x="469.99935915408236" y="371.1012577108112" type="curve" smooth="yes"/>
      <point x="473.07135035904287" y="128.41395251892044"/>
      <point x="375.21560715490875" y="42.0"/>
      <point x="238.0" y="42.0" type="curve"/>
      <point x="238.0" y="42.0"/>
      <point x="238.0" y="42.0"/>
      <point x="238.0" y="42.0" type="curve"/>
      <point x="205.1496390379768" y="42.0"/>
      <point x="170.23950037205566" y="48.130109661644525"/>
      <point x="133.28284428977955" y="61.47556880246644" type="curve"/>
      <point x="138.71715571022045" y="76.52443119753356" type="line"/>
      <point x="173.7632167707738" y="63.868909147889276"/>
      <point x="206.84794572395256" y="58.0"/>
      <point x="238.0" y="58.0" type="curve"/>
      <point x="238.0" y="58.0"/>
      <point x="238.0" y="58.0"/>
      <point x="238.0" y="58.0" type="curve"/>
      <point x="368.77404732365767" y="58.0"/>
      <point x="456.9284180248056" y="139.6043451570479"/>
      <point x="454.00064084591764" y="370.8987422891888" type="curve" smooth="yes"/>
      <point x="454.0002136195839" y="370.93249316955274"/>
      <point x="454.0" y="370.96624641578023"/>
      <point x="454.0" y="371.0" type="curve" smooth="yes"/>
      <point x="454.0" y="544.3898543349655"/>
      <point x="379.70913243112506" y="626.0"/>
      <point x="278.0" y="626.0" type="curve"/>
      <point x="278.0" y="626.0"/>
      <point x="278.0" y="626.0"/>
      <point x="278.0" y="626.0" type="curve"/>
      <point x="177.60210273121876" y="626.0"/>
      <point x="112.00000000000001" y="554.7485336673502"/>
      <point x="112.0" y="462.0" type="curve"/>
      <point x="112.0" y="462.0"/>
      <point x="112.0" y="462.0"/>
      <point x="112.0" y="462.0" type="curve"/>
      <point x="111.99999999999999" y="359.94388271043755"/>
      <point x="181.88117895025" y="306.0"/>
      <point x="262.0" y="306.0" type="curve"/>
      <point x="262.0" y="306.0"/>
      <point x="262.0" y="306.0"/>
      <point x="262.0" y="306.0" type="curve"/>
      <point x="362.44812132944605" y="306.0"/>
      <point x="429.0" y="369.29177131795086"/>
      <point x="429.0" y="464.0" type="curve"/>
      <point x="429.0" y="464.0"/>
      <point x="429.0" y="464.0"/>
      <point x="429.0" y="464.0" type="curve"/>
      <point x="429.0" y="523.2233001638205"/>
      <point x="405.39581170415795" y="571.8989388881104"/>
      <point x="364.32158739699184" y="601.5105889700209" type="curve"/>
    </contour>
    <contour>
      <point x="379.7319631370519" y="293.020613557655" type="line"/>
      <point x="433.7602336190831" y="340.2953502294323"/>
      <point x="463.97833388440773" y="429.7889647168354"/>
      <point x="418.63317830127454" y="536.8807151365758" type="curve"/>
      <point x="433.36682169872546" y="543.1192848634242" type="line"/>
      <point x="482.028892378418" y="428.19396900287387"/>
      <point x="448.2483763961988" y="331.71218353393937"/>
      <point x="390.2680368629481" y="280.979386442345" type="curve"/>
    </contour>
    <contour>
      <point x="68.69108321153173" y="19.984597107000592" type="line"/>
      <point x="130.69108321153175" y="74.9845971070006" type="line" smooth="yes"/>
      <point x="133.52784842745965" y="77.50108237919468"/>
      <point x="130.94993290537357" y="61.72835937664411"/>
      <point x="129.06197522532153" y="65.01705985157348" type="curve" smooth="yes"/>
      <point x="67.06197522532155" y="173.01705985157346" type="line"/>
      <point x="80.93802477467845" y="180.98294014842654" type="line"/>
      <point x="142.93802477467847" y="72.98294014842652" type="line" smooth="yes"/>
      <point x="144.8259824547305" y="69.69423967349715"/>
      <point x="144.14568200439615" y="65.53188816519351"/>
      <point x="141.30891678846825" y="63.01540289299941" type="curve" smooth="yes"/>
      <point x="79.30891678846827" y="8.015402892999408" type="line"/>
    </contour>
  </outline>
</glyph>
<glyph name="equal" format="2">
  <advance width="490"/>
  <unicode hex="003D"/>
  <outline>
    <contour>
      <point x="388.0" y="180.0" type="line"/>
      <point x="102.0" y="180.0" type="line"/>
      <point x="102.0" y="196.0" type="line"/>
      <point x="388.0" y="196.0" type="line"/>
    </contour>
    <contour>
      <point x="34.298073375244385" y="130.6114198529341" type="line"/>
      <point x="96.29807337524439" y="193.6114198529341" type="line" smooth="yes"/>
      <point x="99.34499143089695" y="196.70748174819394"/>
      <point x="99.27653037660887" y="179.3136876577222"/>
      <point x="96.25407821768661" y="182.4336382733839" type="curve" smooth="yes"/>
      <point x="34.25407821768661" y="246.4336382733839" type="line"/>
      <point x="45.74592178231339" y="257.5663617266161" type="line"/>
      <point x="107.74592178231339" y="193.5663617266161" type="line" smooth="yes"/>
      <point x="110.76837394123565" y="190.4464111109544"/>
      <point x="110.74884468040818" y="185.48464204232576"/>
      <point x="107.70192662475561" y="182.3885801470659" type="curve" smooth="yes"/>
      <point x="45.701926624755615" y="119.3885801470659" type="line"/>
    </contour>
    <contour>
      <point x="455.7459217823134" y="246.4336382733839" type="line"/>
      <point x="393.7459217823134" y="182.4336382733839" type="line" smooth="yes"/>
      <point x="390.7234696233911" y="179.3136876577222"/>
      <point x="390.6550085691031" y="196.70748174819397"/>
      <point x="393.70192662475563" y="193.6114198529341" type="curve" smooth="yes"/>
      <point x="455.70192662475563" y="130.6114198529341" type="line"/>
      <point x="444.29807337524437" y="119.3885801470659" type="line"/>
      <point x="382.29807337524437" y="182.3885801470659" type="line" smooth="yes"/>
      <point x="379.2511553195918" y="185.4846420423258"/>
      <point x="379.2316260587643" y="190.4464111109544"/>
      <point x="382.2540782176866" y="193.5663617266161" type="curve" smooth="yes"/>
      <point x="444.2540782176866" y="257.5663617266161" type="line"/>
    </contour>
    <contour>
      <point x="388.0" y="420.0" type="line"/>
      <point x="102.0" y="420.0" type="line"/>
      <point x="102.0" y="436.0" type="line"/>
      <point x="388.0" y="436.0" type="line"/>
    </contour>
    <contour>
      <point x="34.298073375244385" y="370.6114198529341" type="line"/>
      <point x="96.29807337524439" y="433.6114198529341" type="line" smooth="yes"/>
      <point x="99.34499143089702" y="436.707481748194"/>
      <point x="99.27653037660895" y="419.31368765772214"/>
      <point x="96.25407821768661" y="422.4336382733839" type="curve" smooth="yes"/>
      <point x="34.25407821768661" y="486.4336382733839" type="line"/>
      <point x="45.74592178231339" y="497.5663617266161" type="line"/>
      <point x="107.74592178231339" y="433.5663617266161" type="line" smooth="yes"/>
      <point x="110.76837394123572" y="430.44641111095433"/>
      <point x="110.74884468040825" y="425.48464204232585"/>
      <point x="107.70192662475561" y="422.3885801470659" type="curve" smooth="yes"/>
      <point x="45.701926624755615" y="359.3885801470659" type="line"/>
    </contour>
    <contour>
      <point x="455.7459217823134" y="486.4336382733839" type="line"/>
      <point x="393.7459217823134" y="422.4336382733839" type="line" smooth="yes"/>
      <point x="390.72346962339105" y="419.31368765772214"/>
      <point x="390.65500856910296" y="436.707481748194"/>
      <point x="393.70192662475563" y="433.6114198529341" type="curve" smooth="yes"/>
      <point x="455.70192662475563" y="370.6114198529341" type="line"/>
      <point x="444.29807337524437" y="359.3885801470659" type="line"/>
      <point x="382.29807337524437" y="422.3885801470659" type="line" smooth="yes"/>
      <point x="379.2511553195917" y="425.48464204232585"/>
      <point x="379.2316260587642" y="430.44641111095433"/>
      <point x="382.2540782176866" y="433.5663617266161" type="curve" smooth="yes"/>
      <point x="444.2540782176866" y="497.5663617266161" type="line"/>
    </contour>
  </outline>
</glyph>
<glyph name="greater" format="2">
  <advance width="447"/>
  <unicode hex="003E"/>
  <outline>
    <contour>
      <point x="97.93016550298687" y="184.8874122257145" type="line"/>
      <point x="317.9301655029869" y="314.8874122257145" type="line" smooth="yes"/>
      <point x="323.17038617363613" y="317.9839062583709"/>
      <point x="323.17038617363613" y="298.0160937416291"/>
      <point x="317.9301655029869" y="301.1125877742855" type="curve" smooth="yes"/>
      <point x="97.93016550298687" y="431.1125877742855" type="line"/>
      <point x="106.06983449701313" y="444.8874122257145" type="line"/>
      <point x="326.0698344970131" y="314.8874122257145" type="line" smooth="yes"/>
      <point x="331.31005516766237" y="311.79091819305813"/>
      <point x="331.31005516766237" y="304.20908180694187"/>
      <point x="326.0698344970131" y="301.1125877742855" type="curve" smooth="yes"/>
      <point x="106.06983449701313" y="171.1125877742855" type="line"/>
    </contour>
    <contour>
      <point x="35.513214838643876" y="402.62334952390665" type="line"/>
      <point x="97.51321483864388" y="444.62334952390665" type="line" smooth="yes"/>
      <point x="100.9035785782116" y="446.92004754103317"/>
      <point x="96.87485747250096" y="430.61743255084866"/>
      <point x="94.94454665061713" y="434.2289818305023" type="curve" smooth="yes"/>
      <point x="32.944546650617134" y="550.2289818305022" type="line"/>
      <point x="47.055453349382866" y="557.7710181694978" type="line"/>
      <point x="109.05545334938287" y="441.7710181694977" type="line" smooth="yes"/>
      <point x="110.98576417126671" y="438.1594688898441"/>
      <point x="109.87714890092384" y="433.67334849321986"/>
      <point x="106.48678516135612" y="431.37665047609335" type="curve" smooth="yes"/>
      <point x="44.486785161356124" y="389.37665047609335" type="line"/>
    </contour>
    <contour>
      <point x="32.972128780937005" y="67.82217557527987" type="line"/>
      <point x="94.97212878093701" y="181.82217557527989" type="line" smooth="yes"/>
      <point x="96.95557686141797" y="185.46916075551906"/>
      <point x="101.0500531578657" y="169.03717855862524"/>
      <point x="97.5872664713842" y="171.32708588355658" type="curve" smooth="yes"/>
      <point x="35.58726647138419" y="212.32708588355658" type="line"/>
      <point x="44.41273352861581" y="225.67291411644342" type="line"/>
      <point x="106.4127335286158" y="184.67291411644342" type="line" smooth="yes"/>
      <point x="109.87552021509731" y="182.3830067915121"/>
      <point x="111.01131929954394" y="177.82480960495928"/>
      <point x="109.02787121906299" y="174.17782442472011" type="curve" smooth="yes"/>
      <point x="47.027871219062995" y="60.17782442472013" type="line"/>
    </contour>
    <contour>
      <point x="437.06956258747556" y="301.0003024403154" type="line"/>
      <point x="322.06956258747556" y="300.0003024403154" type="line" smooth="yes"/>
      <point x="322.0684128753311" y="300.0002924428185"/>
      <point x="322.06726316104744" y="300.00028269317573"/>
      <point x="322.06611344469934" y="300.00027319138775" type="curve" smooth="yes"/>
      <point x="201.06611344469934" y="299.00027319138775" type="line"/>
      <point x="200.93388655530066" y="314.99972680861225" type="line"/>
      <point x="321.93388655530066" y="315.99972680861225" type="line" smooth="yes"/>
      <point x="321.93503627164876" y="315.99973631040024"/>
      <point x="321.92928770038" y="315.99968756218766"/>
      <point x="321.93043741252444" y="315.9996975596846" type="curve" smooth="yes"/>
      <point x="436.93043741252444" y="316.9996975596846" type="line"/>
    </contour>
  </outline>
</glyph>
<glyph name="at" format="2">
  <advance width="896"/>
  <unicode hex="0040"/>
  <outline>
    <contour>
      <point x="455.0" y="172.0" type="curve"/>
      <point x="455.0" y="172.0"/>
      <point x="455.0" y="172.0"/>
      <point x="455.0" y="172.0" type="curve"/>
      <point x="535.7892876572743" y="172.0"/>
      <point x="586.0" y="230.65655247313185"/>
      <point x="586.0" y="320.0" type="curve"/>
      <point x="586.0" y="320.0"/>
      <point x="586.0" y="320.0"/>
      <point x="586.0" y="320.0" type="curve"/>
      <point x="586.0" y="409.3434475268682"/>
      <point x="535.7892876572743" y="466.0"/>
      <point x="455.0" y="466.0" type="curve"/>
      <point x="455.0" y="466.0"/>
      <point x="455.0" y="466.0"/>
      <point x="455.0" y="466.0" type="curve"/>
      <point x="376.1510809398118" y="466.0"/>
      <point x="328.0" y="410.24876277973357"/>
      <point x="328.0" y="320.0" type="curve"/>
      <point x="328.0" y="320.0"/>
      <point x="328.0" y="320.0"/>
      <point x="328.0" y="320.0" type="curve"/>
      <point x="328.0" y="228.75562805766657"/>
      <point x="376.11163675819085" y="172.0"/>
    </contour>
    <contour>
      <point x="602.0" y="457.0" type="line"/>
      <point x="602.0" y="267.0" type="line"/>
      <point x="602.0" y="267.0"/>
      <point x="602.0" y="267.0"/>
      <point x="602.0" y="267.0" type="curve"/>
      <point x="602.0" y="207.2750206776222"/>
      <point x="633.7330915564709" y="176.0"/>
      <point x="676.0" y="176.0" type="curve"/>
      <point x="676.0" y="176.0"/>
      <point x="676.0" y="176.0"/>
      <point x="676.0" y="176.0" type="curve"/>
      <point x="742.765684208125" y="176.0"/>
      <point x="810.0" y="245.8679729366875"/>
      <point x="810.0" y="367.0" type="curve"/>
      <point x="810.0" y="367.0"/>
      <point x="810.0" y="367.0"/>
      <point x="810.0" y="367.0" type="curve"/>
      <point x="810.0" y="552.7043051990138"/>
      <point x="671.3425624789307" y="679.0"/>
      <point x="470.0" y="679.0" type="curve"/>
      <point x="470.0" y="679.0"/>
      <point x="470.0" y="679.0"/>
      <point x="470.0" y="679.0" type="curve"/>
      <point x="261.4016700538145" y="679.0"/>
      <point x="110.00000000000001" y="530.5156694756912"/>
      <point x="110.0" y="318.0" type="curve"/>
      <point x="110.0" y="318.0"/>
      <point x="110.0" y="318.0"/>
      <point x="110.0" y="318.0" type="curve"/>
      <point x="109.99999999999999" y="61.28590376925278"/>
      <point x="329.1941430114054" y="-78.81656140984487"/>
      <point x="587.8678888317003" y="-7.289351391354205" type="curve"/>
      <point x="592.1321111682997" y="-22.710648608645794" type="line"/>
      <point x="322.8757970683345" y="-97.16409909840893"/>
      <point x="93.99999999999999" y="50.78350646139809"/>
      <point x="94.0" y="318.0" type="curve"/>
      <point x="94.0" y="318.0"/>
      <point x="94.0" y="318.0"/>
      <point x="94.0" y="318.0" type="curve"/>
      <point x="94.00000000000001" y="539.5419067689668"/>
      <point x="252.54181501479306" y="695.0"/>
      <point x="470.0" y="695.0" type="curve"/>
      <point x="470.0" y="695.0"/>
      <point x="470.0" y="695.0"/>
      <point x="470.0" y="695.0" type="curve"/>
      <point x="680.6272971314658" y="695.0"/>
      <point x="826.0" y="561.2678954125169"/>
      <point x="826.0" y="367.0" type="curve"/>
      <point x="826.0" y="367.0"/>
      <point x="826.0" y="367.0"/>
      <point x="826.0" y="367.0" type="curve"/>
      <point x="826.0" y="234.250408375"/>
      <point x="749.16906625" y="160.0"/>
      <point x="676.0" y="160.0" type="curve"/>
      <point x="676.0" y="160.0"/>
      <point x="676.0" y="160.0"/>
      <point x="676.0" y="160.0" type="curve"/>
      <point x="626.3172449957272" y="160.0"/>
      <point x="586.0" y="196.79610705917938"/>
      <point x="586.0" y="267.0" type="curve"/>
      <point x="586.0" y="267.0"/>
      <point x="586.0" y="267.0"/>
      <point x="586.0" y="267.0" type="curve"/>
      <point x="586.0" y="457.0" type="line"/>
    </contour>
    <contour>
      <point x="455.0" y="156.0" type="curve"/>
      <point x="367.8947545355672" y="156.0"/>
      <point x="312.0" y="219.25176428210173"/>
      <point x="312.0" y="320.0" type="curve"/>
      <point x="312.0" y="320.0"/>
      <point x="312.0" y="320.0"/>
      <point x="312.0" y="320.0" type="curve"/>
      <point x="312.0" y="419.7486243166347"/>
      <point x="367.851201912835" y="482.0"/>
      <point x="455.0" y="482.0" type="curve"/>
      <point x="455.0" y="482.0"/>
      <point x="455.0" y="482.0"/>
      <point x="455.0" y="482.0" type="curve"/>
      <point x="544.204167041889" y="482.0"/>
      <point x="602.0" y="418.64931414044196"/>
      <point x="602.0" y="320.0" type="curve"/>
      <point x="602.0" y="320.0"/>
      <point x="602.0" y="320.0"/>
      <point x="602.0" y="320.0" type="curve"/>
      <point x="602.0" y="221.35068585955804"/>
      <point x="544.204167041889" y="156.0"/>
      <point x="455.0" y="156.0" type="curve"/>
      <point x="455.0" y="156.0"/>
      <point x="455.0" y="156.0"/>
    </contour>
    <contour>
      <point x="531.3900308614855" y="524.9116467513066" type="line"/>
      <point x="599.3900308614855" y="462.91164675130665" type="line" smooth="yes"/>
      <point x="602.4607063639315" y="460.1119132049588"/>
      <point x="585.5165558322204" y="460.04938207249194"/>
      <point x="588.5664835581332" y="462.8717032516948" type="curve" smooth="yes"/>
      <point x="655.5664835581332" y="524.8717032516947" type="line"/>
      <point x="666.4335164418668" y="513.1282967483053" type="line"/>
      <point x="599.4335164418668" y="451.1282967483052" type="line" smooth="yes"/>
      <point x="596.383588715954" y="448.3059755691024"/>
      <point x="591.6806446409606" y="448.2886197023455"/>
      <point x="588.6099691385145" y="451.08835324869335" type="curve" smooth="yes"/>
      <point x="520.6099691385145" y="513.0883532486934" type="line"/>
    </contour>
    <contour>
      <point x="586.0" y="320.0" type="line"/>
      <point x="586.0" y="395.2160356258862"/>
      <point x="559.3911386012289" y="451.11800839023033"/>
      <point x="520.8188126392357" y="483.90448545792435" type="curve"/>
      <point x="531.1811873607643" y="496.09551454207565" type="line"/>
      <point x="572.6164228629195" y="460.8755643652437"/>
      <point x="602.0" y="400.7987092292027"/>
      <point x="602.0" y="320.0" type="curve"/>
    </contour>
    <contour>
      <point x="544.5780492163644" y="179.77059201070074" type="line"/>
      <point x="569.72540893105" y="213.62280701123876"/>
      <point x="586.0" y="260.0004252847766"/>
      <point x="586.0" y="319.0" type="curve"/>
      <point x="602.0" y="319.0" type="line"/>
      <point x="602.0" y="256.001369608351"/>
      <point x="584.273826032535" y="206.37616313204865"/>
      <point x="557.4219507836356" y="170.22940798929926" type="curve"/>
    </contour>
    <contour>
      <point x="658.409254466152" y="63.21236413371783" type="line"/>
      <point x="596.409254466152" y="-19.787635866282173" type="line" smooth="yes"/>
      <point x="593.6783916124514" y="-23.44346839623628"/>
      <point x="590.7088330181497" y="-5.817392572630938"/>
      <point x="594.4867851613561" y="-8.376650476093344" type="curve" smooth="yes"/>
      <point x="656.4867851613561" y="-50.376650476093346" type="line"/>
      <point x="647.5132148386439" y="-63.623349523906654" type="line"/>
      <point x="585.5132148386439" y="-21.623349523906654" type="line" smooth="yes"/>
      <point x="581.7352626954374" y="-19.064091620444245"/>
      <point x="580.8598826801474" y="-13.868196663671938"/>
      <point x="583.590745533848" y="-10.212364133717827" type="curve" smooth="yes"/>
      <point x="645.590745533848" y="72.78763586628217" type="line"/>
    </contour>
  </outline>
</glyph>
<glyph name="A" format="2">
  <advance width="670"/>
  <unicode hex="0041"/>
  <outline>
    <contour>
      <point x="105.4611335813625" y="72.67684387328433" type="line"/>
      <point x="154.4611335813625" y="210.67684387328433" type="line" smooth="yes"/>
      <point x="154.4668039841482" y="210.69281357908898"/>
      <point x="154.4725251159603" y="210.70876522702193"/>
      <point x="154.47829689015566" y="210.72469857550485" type="curve" smooth="yes"/>
      <point x="296.47829689015566" y="602.7246985755048" type="line" smooth="yes"/>
      <point x="297.62527805775517" y="605.8910127846527"/>
      <point x="300.63234332660227" y="608.0"/>
      <point x="304.0" y="608.0" type="curve" smooth="yes"/>
      <point x="360.0" y="608.0" type="line" smooth="yes"/>
      <point x="363.36105022650656" y="608.0"/>
      <point x="366.3636958599521" y="605.8991553316664"/>
      <point x="367.515544571029" y="602.7416399838193" type="curve" smooth="yes"/>
      <point x="510.515544571029" y="210.74163998381925" type="line" smooth="yes"/>
      <point x="510.5352267200641" y="210.68768612073012"/>
      <point x="510.5543272988166" y="210.63352187549057"/>
      <point x="510.572842985136" y="210.57915666885066" type="curve" smooth="yes"/>
      <point x="557.5728429851359" y="72.57915666885066" type="line"/>
      <point x="542.4271570148641" y="67.42084333114934" type="line"/>
      <point x="495.427157014864" y="205.42084333114934" type="line" smooth="yes"/>
      <point x="495.4086413285446" y="205.47520853778926"/>
      <point x="495.50413757800607" y="205.2044061530916"/>
      <point x="495.484455428971" y="205.25836001618075" type="curve" smooth="yes"/>
      <point x="352.484455428971" y="597.2583600161807" type="line" smooth="yes"/>
      <point x="351.33260671789407" y="600.4158753640279"/>
      <point x="363.36105022650656" y="592.0"/>
      <point x="360.0" y="592.0" type="curve" smooth="yes"/>
      <point x="304.0" y="592.0" type="line" smooth="yes"/>
      <point x="300.63234332660227" y="592.0"/>
      <point x="312.66868427744384" y="600.4416156336431"/>
      <point x="311.52170310984434" y="597.2753014244952" type="curve" smooth="yes"/>
      <point x="169.52170310984434" y="205.27530142449515" type="line" smooth="yes"/>
      <point x="169.515931335649" y="205.25936807601224"/>
      <point x="169.5445368214232" y="205.33912583252032"/>
      <point x="169.5388664186375" y="205.32315612671567" type="curve" smooth="yes"/>
      <point x="120.5388664186375" y="67.32315612671567" type="line"/>
    </contour>
    <contour>
      <point x="503.0" y="200.0" type="line"/>
      <point x="162.0" y="200.0" type="line"/>
      <point x="162.0" y="216.0" type="line"/>
      <point x="503.0" y="216.0" type="line"/>
    </contour>
    <contour>
      <point x="264.93525042446026" y="683.9877689940647" type="line"/>
      <point x="310.93525042446026" y="603.9877689940647" type="line" smooth="yes"/>
      <point x="311.3608702500155" y="603.2475606017947"/>
      <point x="311.6652453447732" y="602.4439874190195"/>
      <point x="311.83682160513195" y="601.6075531497706" type="curve" smooth="yes"/>
      <point x="335.83682160513195" y="484.60755314977064" type="line" smooth="yes"/>
      <point x="337.5282333536808" y="476.361920875595"/>
      <point x="318.0627980432462" y="476.9913942902914"/>
      <point x="320.2834134568848" y="485.1105193964076" type="curve" smooth="yes"/>
      <point x="352.2834134568848" y="602.1105193964075" type="line" smooth="yes"/>
      <point x="352.501513571564" y="602.9079479407035"/>
      <point x="352.84190028303107" y="603.6667517485113"/>
      <point x="353.2924510695949" y="604.3599068047633" type="curve" smooth="yes"/>
      <point x="405.2924510695949" y="684.3599068047633" type="line"/>
      <point x="418.7075489304051" y="675.6400931952367" type="line"/>
      <point x="366.7075489304051" y="595.6400931952367" type="line" smooth="yes"/>
      <point x="366.25699814384126" y="594.9469381389846"/>
      <point x="367.93468665779443" y="598.6869091478884"/>
      <point x="367.7165865431152" y="597.8894806035925" type="curve" smooth="yes"/>
      <point x="335.7165865431152" y="480.8894806035924" type="line" smooth="yes"/>
      <point x="333.49597112947663" y="472.7703554974762"/>
      <point x="321.8545901434169" y="473.1468145760537"/>
      <point x="320.16317839486805" y="481.39244685022936" type="curve" smooth="yes"/>
      <point x="296.16317839486805" y="598.3924468502294" type="line" smooth="yes"/>
      <point x="295.9916021345093" y="599.2288811194783"/>
      <point x="297.490369401095" y="595.2720226136653"/>
      <point x="297.06474957553974" y="596.0122310059353" type="curve" smooth="yes"/>
      <point x="251.0647495755397" y="676.0122310059353" type="line"/>
    </contour>
    <contour>
      <point x="255.62210289322869" y="264.4703625794071" type="line"/>
      <point x="166.62210289322869" y="201.4703625794071" type="line" smooth="yes"/>
      <point x="162.9062006035927" y="198.84000477887827"/>
      <point x="165.5387733254358" y="216.49728164392053"/>
      <point x="168.3257896609113" y="212.89738554393134" type="curve" smooth="yes"/>
      <point x="216.3257896609113" y="150.89738554393134" type="line"/>
      <point x="203.6742103390887" y="141.10261445606866" type="line"/>
      <point x="155.6742103390887" y="203.10261445606866" type="line" smooth="yes"/>
      <point x="152.8871940036132" y="206.70251055605786"/>
      <point x="153.66199481713534" y="211.89927962006408"/>
      <point x="157.37789710677131" y="214.5296374205929" type="curve" smooth="yes"/>
      <point x="246.37789710677131" y="277.5296374205929" type="line"/>
    </contour>
    <contour>
      <point x="409.326060730508" y="277.7294278030124" type="line"/>
      <point x="507.326060730508" y="214.72942780301244" type="line" smooth="yes"/>
      <point x="511.5033110701614" y="212.04405258466386"/>
      <point x="512.2502922986877" y="206.24137756971703"/>
      <point x="508.88934093680746" y="202.58560591293508" type="curve" smooth="yes"/>
      <point x="451.88934093680746" y="140.58560591293508" type="line"/>
      <point x="440.11065906319254" y="151.41439408706492" type="line"/>
      <point x="497.11065906319254" y="213.41439408706492" type="line" smooth="yes"/>
      <point x="500.47161042507275" y="217.07016574384687"/>
      <point x="502.85118960914537" y="198.58519697863898"/>
      <point x="498.673939269492" y="201.27057219698756" type="curve" smooth="yes"/>
      <point x="400.673939269492" y="264.2705721969876" type="line"/>
    </contour>
    <contour>
      <point x="194.98498525178104" y="-6.232946901357848" type="line"/>
      <point x="107.98498525178104" y="63.76705309864215" type="line" smooth="yes"/>
      <point x="105.3846894022725" y="65.85924516146511"/>
      <point x="119.95203481396743" y="64.82235400224238"/>
      <point x="117.08161530651925" y="63.11956276901041" type="curve" smooth="yes"/>
      <point x="-0.9183846934807471" y="-6.880437230989593" type="line"/>
      <point x="-9.081615306519254" y="6.880437230989593" type="line"/>
      <point x="108.91838469348075" y="76.8804372309896" type="line" smooth="yes"/>
      <point x="111.78880420092894" y="78.58322846422158"/>
      <point x="115.41471889871042" y="78.32513896418081"/>
      <point x="118.01501474821896" y="76.23294690135785" type="curve" smooth="yes"/>
      <point x="205.01501474821896" y="6.232946901357848" type="line"/>
    </contour>
    <contour>
      <point x="671.0911730485452" y="-6.98004812759776" type="line"/>
      <point x="546.0911730485452" y="63.01995187240224" type="line" smooth="yes"/>
      <point x="543.3377868628884" y="64.56184813637005"/>
      <point x="557.3091540319327" y="65.46846086702493"/>
      <point x="554.7781291679853" y="63.583655117276834" type="curve" smooth="yes"/>
      <point x="460.77812916798536" y="-6.416344882723164" type="line"/>
      <point x="451.22187083201464" y="6.416344882723164" type="line"/>
      <point x="545.2218708320147" y="76.41634488272317" type="line" smooth="yes"/>
      <point x="547.7528956959621" y="78.30115063247126"/>
      <point x="551.155440765798" y="78.52194439156557"/>
      <point x="553.9088269514548" y="76.98004812759775" type="curve" smooth="yes"/>
      <point x="678.9088269514548" y="6.98004812759776" type="line"/>
    </contour>
  </outline>
</glyph>
<glyph name="C" format="2">
  <advance width="610"/>
  <unicode hex="0043"/>
  <outline>
    <contour>
      <point x="485.21450776317096" y="599.5005978239219" type="line"/>
      <point x="451.14194839874403" y="612.1561198735661"/>
      <point x="408.0725593644269" y="620.0"/>
      <point x="374.0" y="620.0" type="curve"/>
      <point x="374.0" y="620.0"/>
      <point x="374.0" y="620.0"/>
      <point x="374.0" y="620.0" type="curve"/>
      <point x="219.29062370073126" y="620.0"/>
      <point x="121.00000000000001" y="507.3315855331667"/>
      <point x="121.0" y="339.0" type="curve"/>
      <point x="121.0" y="339.0"/>
      <point x="121.0" y="339.0"/>
      <point x="121.0" y="339.0" type="curve"/>
      <point x="120.99999999999999" y="170.66841446683335"/>
      <point x="220.26363864600972" y="60.00000000000002"/>
      <point x="374.0" y="60.0" type="curve"/>
      <point x="374.0" y="60.0"/>
      <point x="374.0" y="60.0"/>
      <point x="374.0" y="60.0" type="curve"/>
      <point x="408.02147607554076" y="59.99999999999999"/>
      <point x="454.0856629125128" y="66.82612733750982"/>
      <point x="485.19101246729286" y="78.49063342055236" type="curve"/>
      <point x="490.80898753270714" y="63.509366579447644" type="line"/>
      <point x="457.90932638736393" y="51.17199364994394"/>
      <point x="409.9840043777192" y="43.99999999999999"/>
      <point x="374.0" y="44.0" type="curve"/>
      <point x="374.0" y="44.0"/>
      <point x="374.0" y="44.0"/>
      <point x="374.0" y="44.0" type="curve"/>
      <point x="211.7202434213855" y="44.00000000000002"/>
      <point x="104.99999999999999" y="161.31393741708666"/>
      <point x="105.0" y="339.0" type="curve"/>
      <point x="105.0" y="339.0"/>
      <point x="105.0" y="339.0"/>
      <point x="105.0" y="339.0" type="curve"/>
      <point x="105.00000000000001" y="516.6860625829132"/>
      <point x="210.6931563544323" y="636.0"/>
      <point x="374.0" y="636.0" type="curve"/>
      <point x="374.0" y="636.0"/>
      <point x="374.0" y="636.0"/>
      <point x="374.0" y="636.0" type="curve"/>
      <point x="409.9300823022129" y="636.0"/>
      <point x="454.85540993461615" y="627.8448613168999"/>
      <point x="490.78549223682904" y="614.4994021760781" type="curve"/>
    </contour>
    <contour>
      <point x="555.0821643129632" y="651.8216825999272" type="line"/>
      <point x="493.0821643129632" y="600.8216825999272" type="line" smooth="yes"/>
      <point x="490.145602230376" y="598.4061234674764"/>
      <point x="493.28841289909354" y="614.105702765804"/>
      <point x="495.06883317394824" y="610.745877408417" type="curve" smooth="yes"/>
      <point x="557.0688331739482" y="493.745877408417" type="line"/>
      <point x="542.9311668260518" y="486.254122591583" type="line"/>
      <point x="480.93116682605176" y="603.254122591583" type="line" smooth="yes"/>
      <point x="479.1507465511971" y="606.6139479489701"/>
      <point x="479.98127360444965" y="610.7627582676221"/>
      <point x="482.9178356870368" y="613.1783174000728" type="curve" smooth="yes"/>
      <point x="544.9178356870368" y="664.1783174000728" type="line"/>
    </contour>
    <contour>
      <point x="557.094803727613" y="186.30354763771422" type="line"/>
      <point x="495.09480372761305" y="67.30354763771422" type="line" smooth="yes"/>
      <point x="493.3204027908247" y="63.897842613878474"/>
      <point x="489.94755410350785" y="79.6576185182627"/>
      <point x="492.9604359425147" y="77.27646996807984" type="curve" smooth="yes"/>
      <point x="554.9604359425147" y="28.27646996807984" type="line"/>
      <point x="545.0395640574853" y="15.72353003192016" type="line"/>
      <point x="483.0395640574853" y="64.72353003192016" type="line" smooth="yes"/>
      <point x="480.0266822184784" y="67.10467858210302"/>
      <point x="479.1307953355986" y="71.29074733845005"/>
      <point x="480.90519627238695" y="74.69645236228578" type="curve" smooth="yes"/>
      <point x="542.905196272387" y="193.69645236228578" type="line"/>
    </contour>
  </outline>
</glyph>
<glyph name="D" format="2">
  <advance width="691"/>
  <unicode hex="0044"/>
  <outline>
    <contour>
      <point x="164.0" y="62.0" type="line" smooth="yes"/>
      <point x="164.0" y="57.581722001353654"/>
      <point x="151.58172200135365" y="70.0"/>
      <point x="156.0" y="70.0" type="curve" smooth="yes"/>
      <point x="306.0" y="70.0" type="line"/>
      <point x="306.0" y="70.0"/>
      <point x="306.0" y="70.0"/>
      <point x="306.0" y="70.0" type="curve"/>
      <point x="462.65540618982556" y="70.0"/>
      <point x="570.0" y="176.5604742479471"/>
      <point x="570.0" y="341.0" type="curve"/>
      <point x="570.0" y="341.0"/>
      <point x="570.0" y="341.0"/>
      <point x="570.0" y="341.0" type="curve"/>
      <point x="570.0" y="504.4665108067745"/>
      <point x="462.65540618982556" y="610.0"/>
      <point x="306.0" y="610.0" type="curve"/>
      <point x="306.0" y="610.0"/>
      <point x="306.0" y="610.0"/>
      <point x="306.0" y="610.0" type="curve"/>
      <point x="156.0" y="610.0" type="line" smooth="yes"/>
      <point x="151.58172200135365" y="610.0"/>
      <point x="164.0" y="622.4182779986463"/>
      <point x="164.0" y="618.0" type="curve" smooth="yes"/>
    </contour>
    <contour>
      <point x="236.14553669138618" y="118.8743610816831" type="line"/>
      <point x="161.14553669138618" y="55.874361081683105" type="line" smooth="yes"/>
      <point x="160.86128819649954" y="55.635592345978324"/>
      <point x="160.56076501730234" y="55.41689813439391"/>
      <point x="160.24614583932578" y="55.21986390172171" type="curve" smooth="yes"/>
      <point x="61.246145839325784" y="-6.780136098278288" type="line"/>
      <point x="52.753854160674216" y="6.780136098278288" type="line"/>
      <point x="151.75385416067422" y="68.78013609827829" type="line" smooth="yes"/>
      <point x="152.0684733386508" y="68.97717033095049"/>
      <point x="150.57021481372718" y="67.88687018261211"/>
      <point x="150.85446330861382" y="68.1256389183169" type="curve" smooth="yes"/>
      <point x="225.85446330861382" y="131.1256389183169" type="line"/>
    </contour>
    <contour>
      <point x="61.24614583932579" y="686.7801360982783" type="line"/>
      <point x="160.2461458393258" y="624.7801360982783" type="line" smooth="yes"/>
      <point x="160.5607650173024" y="624.5831018656061"/>
      <point x="160.86128819649952" y="624.3644076540216"/>
      <point x="161.14553669138618" y="624.1256389183169" type="curve" smooth="yes"/>
      <point x="236.14553669138618" y="561.1256389183169" type="line"/>
      <point x="225.85446330861382" y="548.8743610816831" type="line"/>
      <point x="150.85446330861382" y="611.8743610816831" type="line" smooth="yes"/>
      <point x="150.57021481372715" y="612.1131298173879"/>
      <point x="152.0684733386508" y="611.0228296690495"/>
      <point x="151.7538541606742" y="611.2198639017217" type="curve" smooth="yes"/>
      <point x="52.75385416067421" y="673.2198639017217" type="line"/>
    </contour>
    <contour>
      <point x="148.0" y="62.0" type="curve" smooth="yes"/>
      <point x="148.0" y="618.0" type="line" smooth="yes"/>
      <point x="148.0" y="622.4182779986463"/>
      <point x="151.58172200135365" y="626.0"/>
      <point x="156.0" y="626.0" type="curve" smooth="yes"/>
      <point x="306.0" y="626.0" type="line"/>
      <point x="306.0" y="626.0"/>
      <point x="306.0" y="626.0"/>
      <point x="306.0" y="626.0" type="curve"/>
      <point x="471.3610177794742" y="626.0"/>
      <point x="586.0" y="513.5506272481471"/>
      <point x="586.0" y="341.0" type="curve"/>
      <point x="586.0" y="341.0"/>
      <point x="586.0" y="341.0"/>
      <point x="586.0" y="341.0" type="curve"/>
      <point x="586.0" y="167.4222856848997"/>
      <point x="471.3610177794742" y="54.0"/>
      <point x="306.0" y="54.0" type="curve"/>
      <point x="306.0" y="54.0"/>
      <point x="306.0" y="54.0"/>
      <point x="306.0" y="54.0" type="curve"/>
      <point x="156.0" y="54.0" type="line" smooth="yes"/>
      <point x="151.58172200135365" y="54.0"/>
      <point x="148.0" y="57.581722001353654"/>
    </contour>
  </outline>
</glyph>
<glyph name="K" format="2">
  <advance width="658"/>
  <unicode hex="004B"/>
  <outline>
    <contour>
      <point x="164.0" y="618.0" type="line"/>
      <point x="164.0" y="341.0" type="line"/>
      <point x="164.0" y="341.0"/>
      <point x="164.0" y="341.0"/>
      <point x="164.0" y="341.0" type="curve"/>
      <point x="164.0" y="62.0" type="line"/>
      <point x="148.0" y="62.0" type="line"/>
      <point x="148.0" y="341.0" type="line"/>
      <point x="148.0" y="341.0"/>
      <point x="148.0" y="341.0"/>
      <point x="148.0" y="341.0" type="curve"/>
      <point x="148.0" y="618.0" type="line"/>
    </contour>
    <contour>
      <point x="501.83960762533263" y="612.5320037690067" type="line"/>
      <point x="295.83960762533263" y="392.5320037690067" type="line" smooth="yes"/>
      <point x="295.83941976040995" y="392.531803136565"/>
      <point x="295.84035903329914" y="392.5328063471551"/>
      <point x="295.84017118905695" y="392.5326056953509" type="curve" smooth="yes"/>
      <point x="250.39853615245778" y="343.99267736080174"/>
      <point x="222.47151237998756" y="336.1070679029912"/>
      <point x="156.3745886903887" y="333.0087746050413" type="curve" smooth="yes"/>
      <point x="145.71962149711044" y="332.5093230178564"/>
      <point x="144.97044411633306" y="348.49177380777377"/>
      <point x="155.6254113096113" y="348.9912253949587" type="curve" smooth="yes"/>
      <point x="222.28825049740027" y="352.1160459818862"/>
      <point x="252.44850612684598" y="343.0159923453478"/>
      <point x="289.94635316997733" y="301.3517178529796" type="curve" smooth="yes"/>
      <point x="289.95223231276117" y="301.3451854721087"/>
      <point x="289.92278284555346" y="301.37779886205664"/>
      <point x="289.92868348485484" y="301.37128589226165" type="curve" smooth="yes"/>
      <point x="501.92868348485484" y="67.37128589226167" type="line"/>
      <point x="490.07131651514516" y="56.62871410773833" type="line"/>
      <point x="278.07131651514516" y="290.62871410773835" type="line" smooth="yes"/>
      <point x="278.06541587584377" y="290.63522707753333"/>
      <point x="278.0595259728065" y="290.6417497661495"/>
      <point x="278.05364683002267" y="290.6482821470204" type="curve" smooth="yes"/>
      <point x="243.57982574300945" y="328.95252779925727"/>
      <point x="217.6613817339678" y="335.8815930289591"/>
      <point x="156.3745886903887" y="333.0087746050413" type="curve" smooth="yes"/>
      <point x="145.71962149711044" y="332.5093230178564"/>
      <point x="144.97044411633306" y="348.49177380777377"/>
      <point x="155.6254113096113" y="348.9912253949587" type="curve" smooth="yes"/>
      <point x="217.5266044534523" y="351.8928438235763"/>
      <point x="241.60275852455234" y="358.00870558964095"/>
      <point x="284.15982881094305" y="403.4673943046491" type="curve" smooth="yes"/>
      <point x="284.16001665518525" y="403.46759495645324"/>
      <point x="284.1602045097447" y="403.4677955985516"/>
      <point x="284.16039237466737" y="403.4679962309933" type="curve" smooth="yes"/>
      <point x="490.16039237466737" y="623.4679962309933" type="line"/>
    </contour>
    <contour>
      <point x="232.8458836099993" y="411.5387139959217" type="line"/>
      <point x="161.8458836099993" y="335.5387139959217" type="line" smooth="yes"/>
      <point x="159.02730401152814" y="332.52164287643143"/>
      <point x="159.24276090747136" y="349.39830999606204"/>
      <point x="161.98339922956464" y="346.31026681623865" type="curve" smooth="yes"/>
      <point x="232.98339922956464" y="266.31026681623865" type="line"/>
      <point x="221.01660077043536" y="255.68973318376138" type="line"/>
      <point x="150.01660077043536" y="335.68973318376135" type="line" smooth="yes"/>
      <point x="147.27596244834209" y="338.77777636358474"/>
      <point x="147.33553679152953" y="343.44421488458806"/>
      <point x="150.1541163900007" y="346.4612860040783" type="curve" smooth="yes"/>
      <point x="221.1541163900007" y="422.4612860040783" type="line"/>
    </contour>
    <contour>
      <point x="249.72286629916428" y="-6.76063068841772" type="line"/>
      <point x="151.72286629916428" y="55.23936931158228" type="line" smooth="yes"/>
      <point x="149.12203889041587" y="56.88479073344353"/>
      <point x="162.85447701612813" y="56.85336423466864"/>
      <point x="160.24614583932578" y="55.21986390172171" type="curve" smooth="yes"/>
      <point x="61.246145839325784" y="-6.780136098278288" type="line"/>
      <point x="52.753854160674216" y="6.780136098278288" type="line"/>
      <point x="151.75385416067422" y="68.78013609827829" type="line" smooth="yes"/>
      <point x="154.36218533747657" y="70.41363643122521"/>
      <point x="157.6763062920873" y="70.40605211027896"/>
      <point x="160.27713370083572" y="68.76063068841772" type="curve" smooth="yes"/>
      <point x="258.2771337008357" y="6.76063068841772" type="line"/>
    </contour>
    <contour>
      <point x="61.24614583932579" y="686.7801360982783" type="line"/>
      <point x="160.2461458393258" y="624.7801360982783" type="line" smooth="yes"/>
      <point x="162.85447701612827" y="623.1466357653312"/>
      <point x="149.12203889041578" y="623.1152092665563"/>
      <point x="151.7228662991643" y="624.7606306884177" type="curve" smooth="yes"/>
      <point x="249.7228662991643" y="686.7606306884177" type="line"/>
      <point x="258.2771337008357" y="673.2393693115823" type="line"/>
      <point x="160.2771337008357" y="611.2393693115823" type="line" smooth="yes"/>
      <point x="157.67630629208716" y="609.593947889721"/>
      <point x="154.36218533747666" y="609.5863635687747"/>
      <point x="151.7538541606742" y="611.2198639017217" type="curve" smooth="yes"/>
      <point x="52.75385416067421" y="673.2198639017217" type="line"/>
    </contour>
    <contour>
      <point x="665.2871456367474" y="-7.525983072249183" type="line"/>
      <point x="493.28714563674737" y="54.47401692775082" type="line" smooth="yes"/>
      <point x="490.34861437596976" y="55.5332549403567"/>
      <point x="503.89335407695523" y="58.61593254296982"/>
      <point x="501.7026564698353" y="56.389321860323335" type="curve" smooth="yes"/>
      <point x="440.7026564698353" y="-5.6106781396766685" type="line"/>
      <point x="429.2973435301647" y="5.6106781396766685" type="line"/>
      <point x="490.2973435301647" y="67.61067813967666" type="line" smooth="yes"/>
      <point x="492.48804113728465" y="69.83728882232316"/>
      <point x="495.774323102475" y="70.58522108485506"/>
      <point x="498.71285436325263" y="69.52598307224918" type="curve" smooth="yes"/>
      <point x="670.7128543632526" y="7.525983072249183" type="line"/>
    </contour>
    <contour>
      <point x="453.2764699680798" y="684.9604359425147" type="line"/>
      <point x="502.2764699680798" y="622.9604359425147" type="line" smooth="yes"/>
      <point x="504.43787668477" y="620.2255947907843"/>
      <point x="489.91041312600726" y="624.2504373306391"/>
      <point x="493.1710208613674" y="625.4831061086411" type="curve" smooth="yes"/>
      <point x="657.1710208613674" y="687.4831061086411" type="line"/>
      <point x="662.8289791386326" y="672.5168938913589" type="line"/>
      <point x="498.8289791386326" y="610.5168938913589" type="line" smooth="yes"/>
      <point x="495.5683714032724" y="609.2842251133569"/>
      <point x="491.88493674861036" y="610.3047229057549"/>
      <point x="489.7235300319202" y="613.0395640574853" type="curve" smooth="yes"/>
      <point x="440.7235300319202" y="675.0395640574853" type="line"/>
    </contour>
    <contour>
      <point x="155.7144677559007" y="348.9949028347804" type="line"/>
      <point x="213.6791062345676" y="351.0650684947328"/>
      <point x="269.7721598996826" y="354.0683918399154"/>
      <point x="323.7144677559007" y="355.9949028347804" type="curve"/>
      <point x="324.2855322440993" y="340.0050971652196" type="line"/>
      <point x="266.3208937654323" y="337.9349315052672"/>
      <point x="210.2278401003173" y="334.9316081600846"/>
      <point x="156.2855322440993" y="333.0050971652196" type="curve"/>
    </contour>
  </outline>
</glyph>
<glyph name="L" format="2">
  <advance width="504"/>
  <unicode hex="004C"/>
  <outline>
    <contour>
      <point x="160.4376015698018" y="59.343597645297244" type="line"/>
      <point x="61.43760156980183" y="-6.656402354702753" type="line"/>
      <point x="52.56239843019817" y="6.656402354702753" type="line"/>
      <point x="151.5623984301982" y="72.65640235470275" type="line"/>
    </contour>
    <contour>
      <point x="236.2850231591362" y="125.99429186461796" type="line"/>
      <point x="161.2850231591362" y="59.994291864617956" type="line"/>
      <point x="150.7149768408638" y="72.00570813538204" type="line"/>
      <point x="225.7149768408638" y="138.00570813538204" type="line"/>
    </contour>
    <contour>
      <point x="61.24614583932579" y="686.7801360982783" type="line"/>
      <point x="160.2461458393258" y="624.7801360982783" type="line" smooth="yes"/>
      <point x="162.85447701612827" y="623.1466357653312"/>
      <point x="149.12203889041578" y="623.1152092665563"/>
      <point x="151.7228662991643" y="624.7606306884177" type="curve" smooth="yes"/>
      <point x="249.7228662991643" y="686.7606306884177" type="line"/>
      <point x="258.2771337008357" y="673.2393693115823" type="line"/>
      <point x="160.2771337008357" y="611.2393693115823" type="line" smooth="yes"/>
      <point x="157.67630629208716" y="609.593947889721"/>
      <point x="154.36218533747666" y="609.5863635687747"/>
      <point x="151.7538541606742" y="611.2198639017217" type="curve" smooth="yes"/>
      <point x="52.75385416067421" y="673.2198639017217" type="line"/>
    </contour>
    <contour>
      <point x="452.8678361505587" y="-5.137758900883259" type="line"/>
      <point x="390.8678361505587" y="68.86224109911674" type="line" smooth="yes"/>
      <point x="388.3688457945148" y="71.84490700794329"/>
      <point x="388.3784201018334" y="76.19308202828952"/>
      <point x="390.8905213094363" y="79.16471394460024" type="curve" smooth="yes"/>
      <point x="472.8905213094363" y="176.16471394460024" type="line"/>
      <point x="485.1094786905637" y="165.83528605539976" type="line"/>
      <point x="403.1094786905637" y="68.83528605539976" type="line" smooth="yes"/>
      <point x="400.59737748296084" y="65.86365413908905"/>
      <point x="400.63317349339746" y="82.1204248097098"/>
      <point x="403.1321638494413" y="79.13775890088326" type="curve" smooth="yes"/>
      <point x="465.1321638494413" y="5.137758900883259" type="line"/>
    </contour>
    <contour>
      <point x="164.0" y="618.0" type="line"/>
      <point x="164.0" y="66.0" type="line" smooth="yes"/>
      <point x="164.0" y="61.477692520608855"/>
      <point x="151.21476807477796" y="73.84556055103731"/>
      <point x="155.7345860248411" y="73.99559600166181" type="curve" smooth="yes"/>
      <point x="396.7345860248411" y="81.99559600166181" type="line"/>
      <point x="397.2654139751589" y="66.00440399833819" type="line"/>
      <point x="156.2654139751589" y="58.00440399833819" type="line" smooth="yes"/>
      <point x="151.74559602509578" y="57.85436854771369"/>
      <point x="148.0" y="61.477692520608855"/>
      <point x="148.0" y="66.0" type="curve" smooth="yes"/>
      <point x="148.0" y="618.0" type="line"/>
    </contour>
  </outline>
</glyph>
<glyph name="M" format="2">
  <advance width="864"/>
  <unicode hex="004D"/>
  <outline>
    <contour>
      <point x="235.52917230342157" y="-6.6341314207292665" type="line"/>
      <point x="143.52917230342157" y="55.36586857927073" type="line" smooth="yes"/>
      <point x="140.81453304383336" y="57.1952993846454"/>
      <point x="155.20975944966096" y="57.231829275353526"/>
      <point x="152.50443996313007" y="55.38864457024456" type="curve" smooth="yes"/>
      <point x="61.504439963130075" y="-6.611355429755439" type="line"/>
      <point x="52.495560036869925" y="6.611355429755439" type="line"/>
      <point x="143.49556003686993" y="68.61135542975543" type="line" smooth="yes"/>
      <point x="146.20087952340083" y="70.4545401348644"/>
      <point x="149.75618843699021" y="70.46356222610393"/>
      <point x="152.47082769657843" y="68.63413142072926" type="curve" smooth="yes"/>
      <point x="244.47082769657843" y="6.6341314207292665" type="line"/>
    </contour>
    <contour>
      <point x="802.5952420333826" y="-6.678181433258644" type="line"/>
      <point x="708.5952420333826" y="55.32181856674136" type="line" smooth="yes"/>
      <point x="705.9231786941637" y="57.08424332239643"/>
      <point x="720.0768213058363" y="57.08424332239643"/>
      <point x="717.4047579666174" y="55.32181856674136" type="curve" smooth="yes"/>
      <point x="623.4047579666174" y="-6.678181433258646" type="line"/>
      <point x="614.5952420333826" y="6.678181433258646" type="line"/>
      <point x="708.5952420333826" y="68.67818143325864" type="line" smooth="yes"/>
      <point x="711.2673053726016" y="70.4406061889137"/>
      <point x="714.7326946273984" y="70.4406061889137"/>
      <point x="717.4047579666174" y="68.67818143325864" type="curve" smooth="yes"/>
      <point x="811.4047579666174" y="6.678181433258644" type="line"/>
    </contour>
    <contour>
      <point x="207.07658971615098" y="499.99170983566637" type="line"/>
      <point x="141.07658971615098" y="613.9917098356664" type="line" smooth="yes"/>
      <point x="140.47560748805338" y="615.029770047835"/>
      <point x="144.48683236347804" y="610.7132722158522"/>
      <point x="143.49556003686993" y="611.3886445702445" type="curve" smooth="yes"/>
      <point x="52.49556003686992" y="673.3886445702445" type="line"/>
      <point x="61.50443996313008" y="686.6113554297555" type="line"/>
      <point x="152.50443996313007" y="624.6113554297555" type="line" smooth="yes"/>
      <point x="153.49571228973818" y="623.9359830753631"/>
      <point x="154.32242805575143" y="623.0463503765022"/>
      <point x="154.92341028384902" y="622.0082901643336" type="curve" smooth="yes"/>
      <point x="220.92341028384902" y="508.00829016433363" type="line"/>
    </contour>
    <contour>
      <point x="811.4047579666174" y="673.3218185667414" type="line"/>
      <point x="717.4047579666174" y="611.3218185667414" type="line" smooth="yes"/>
      <point x="716.4439702002138" y="610.6881074867731"/>
      <point x="720.3966831539859" y="614.7421201396481"/>
      <point x="719.7874824645522" y="613.7656072698206" type="curve" smooth="yes"/>
      <point x="651.7874824645522" y="504.76560726982063" type="line"/>
      <point x="638.2125175354478" y="513.2343927301794" type="line"/>
      <point x="706.2125175354478" y="622.2343927301794" type="line" smooth="yes"/>
      <point x="706.8217182248815" y="623.2109056000069"/>
      <point x="707.6344542669791" y="624.0444703532903"/>
      <point x="708.5952420333826" y="624.6781814332586" type="curve" smooth="yes"/>
      <point x="802.5952420333826" y="686.6781814332586" type="line"/>
    </contour>
    <contour>
      <point x="140.0" y="62.0" type="line"/>
      <point x="140.0" y="618.0" type="line" smooth="yes"/>
      <point x="140.0" y="622.4182779986463"/>
      <point x="143.58172200135365" y="626.0"/>
      <point x="148.0" y="626.0" type="curve" smooth="yes"/>
      <point x="245.0" y="626.0" type="line" smooth="yes"/>
      <point x="248.43542168978192" y="626.0"/>
      <point x="251.48729287183997" y="623.8066473443458"/>
      <point x="252.58254498780542" y="620.5504924049891" type="curve" smooth="yes"/>
      <point x="437.5825449878054" y="70.55049240498909" type="line" smooth="yes"/>
      <point x="440.0160814916401" y="63.31565415034548"/>
      <point x="419.94610016960905" y="63.39738306103858"/>
      <point x="422.43847835625576" y="70.61216202238438" type="curve" smooth="yes"/>
      <point x="612.4384783562557" y="620.6121620223844" type="line" smooth="yes"/>
      <point x="613.5523911875275" y="623.8366465339608"/>
      <point x="616.5885337227128" y="626.0"/>
      <point x="620.0" y="626.0" type="curve" smooth="yes"/>
      <point x="713.0" y="626.0" type="line" smooth="yes"/>
      <point x="717.4182779986463" y="626.0"/>
      <point x="721.0" y="622.4182779986463"/>
      <point x="721.0" y="618.0" type="curve" smooth="yes"/>
      <point x="721.0" y="62.0" type="line"/>
      <point x="705.0" y="62.0" type="line"/>
      <point x="705.0" y="618.0" type="line" smooth="yes"/>
      <point x="705.0" y="622.4182779986463"/>
      <point x="717.4182779986463" y="610.0"/>
      <point x="713.0" y="610.0" type="curve" smooth="yes"/>
      <point x="620.0" y="610.0" type="line" smooth="yes"/>
      <point x="616.5885337227128" y="610.0"/>
      <point x="628.6754344750161" y="618.612322489192"/>
      <point x="627.5615216437443" y="615.3878379776156" type="curve" smooth="yes"/>
      <point x="437.56152164374424" y="65.38783797761562" type="line" smooth="yes"/>
      <point x="435.06914345709754" y="58.17305901626982"/>
      <point x="424.85099151602924" y="58.21466934036731"/>
      <point x="422.4174550121946" y="65.44950759501091" type="curve" smooth="yes"/>
      <point x="237.41745501219458" y="615.4495075950109" type="line" smooth="yes"/>
      <point x="236.32220289622913" y="618.7056625343677"/>
      <point x="248.43542168978192" y="610.0"/>
      <point x="245.0" y="610.0" type="curve" smooth="yes"/>
      <point x="148.0" y="610.0" type="line" smooth="yes"/>
      <point x="143.58172200135365" y="610.0"/>
      <point x="156.0" y="622.4182779986463"/>
      <point x="156.0" y="618.0" type="curve" smooth="yes"/>
      <point x="156.0" y="62.0" type="line"/>
    </contour>
    <contour>
      <point x="322.220185082879" y="673.9378495811727" type="line"/>
      <point x="250.22018508287903" y="611.9378495811727" type="line" smooth="yes"/>
      <point x="249.01019814311" y="610.8959163830383"/>
      <point x="253.13866687778136" y="617.4416142585173"/>
      <point x="252.71967112947237" y="615.9007911840908" type="curve" smooth="yes"/>
      <point x="221.71967112947237" y="501.90079118409085" type="line"/>
      <point x="206.28032887052763" y="506.09920881590915" type="line"/>
      <point x="237.28032887052763" y="620.0992088159092" type="line" smooth="yes"/>
      <point x="237.6993246188366" y="621.6400318903356"/>
      <point x="238.56982797735193" y="623.0202172206929"/>
      <point x="239.77981491712097" y="624.0621504188273" type="curve" smooth="yes"/>
      <point x="311.779814917121" y="686.0621504188273" type="line"/>
    </contour>
    <contour>
      <point x="637.2024660781069" y="507.2115747885566" type="line"/>
      <point x="612.2024660781069" y="616.2115747885566" type="line" smooth="yes"/>
      <point x="611.8568099052801" y="617.7186357020813"/>
      <point x="615.5441758121797" y="611.1782449769782"/>
      <point x="614.433638273384" y="612.2540782176866" type="curve" smooth="yes"/>
      <point x="550.433638273384" y="674.2540782176866" type="line"/>
      <point x="561.566361726616" y="685.7459217823134" type="line"/>
      <point x="625.566361726616" y="623.7459217823134" type="line" smooth="yes"/>
      <point x="626.6768992654117" y="622.6700885416051"/>
      <point x="627.4518777490663" y="621.2954861249681"/>
      <point x="627.7975339218931" y="619.7884252114434" type="curve" smooth="yes"/>
      <point x="652.7975339218931" y="510.7884252114434" type="line"/>
    </contour>
    <contour>
      <point x="459.97288985501" y="-3.823574637715149" type="line"/>
      <point x="422.97288985501" y="64.17642536228485" type="line" smooth="yes"/>
      <point x="420.0725464686663" y="69.50678618043008"/>
      <point x="440.0131941748741" y="68.74878610202975"/>
      <point x="436.7165612572172" y="63.65398977474181" type="curve" smooth="yes"/>
      <point x="392.7165612572172" y="-4.346010225258191" type="line"/>
      <point x="379.2834387427828" y="4.346010225258191" type="line"/>
      <point x="423.2834387427828" y="72.3460102252582" type="line" smooth="yes"/>
      <point x="426.58007166043967" y="77.44080655254614"/>
      <point x="434.1267667586463" y="77.15393545586039"/>
      <point x="437.02711014499" y="71.82357463771515" type="curve" smooth="yes"/>
      <point x="474.02711014499" y="3.823574637715149" type="line"/>
    </contour>
    <contour>
      <point x="442.9969827487593" y="249.7803026717374" type="line"/>
      <point x="437.9969827487593" y="67.78030267173737" type="line"/>
      <point x="422.0030172512407" y="68.21969732826263" type="line"/>
      <point x="427.0030172512407" y="250.2196973282626" type="line"/>
    </contour>
  </outline>
</glyph>
<glyph name="T" format="2">
  <advance width="549"/>
  <unicode hex="0054"/>
  <outline>
    <contour>
      <point x="462.0" y="608.0" type="line"/>
      <point x="274.0" y="608.0" type="line"/>
      <point x="274.0" y="608.0"/>
      <point x="274.0" y="608.0"/>
      <point x="274.0" y="608.0" type="curve"/>
      <point x="87.0" y="608.0" type="line"/>
      <point x="87.0" y="624.0" type="line"/>
      <point x="274.0" y="624.0" type="line"/>
      <point x="274.0" y="624.0"/>
      <point x="274.0" y="624.0"/>
      <point x="274.0" y="624.0" type="curve"/>
      <point x="462.0" y="624.0" type="line"/>
    </contour>
    <contour>
      <point x="282.0" y="616.0" type="line"/>
      <point x="282.0" y="62.0" type="line"/>
      <point x="266.0" y="62.0" type="line"/>
      <point x="266.0" y="616.0" type="line"/>
    </contour>
    <contour>
      <point x="368.7538541606742" y="-6.780136098278282" type="line"/>
      <point x="269.7538541606742" y="55.219863901721716" type="line" smooth="yes"/>
      <point x="267.14552298387184" y="56.85336423466865"/>
      <point x="280.87796110958413" y="56.88479073344352"/>
      <point x="278.2771337008357" y="55.23936931158227" type="curve" smooth="yes"/>
      <point x="180.2771337008357" y="-6.760630688417725" type="line"/>
      <point x="171.7228662991643" y="6.760630688417725" type="line"/>
      <point x="269.7228662991643" y="68.76063068841772" type="line" smooth="yes"/>
      <point x="272.32369370791275" y="70.40605211027896"/>
      <point x="275.6378146625234" y="70.4136364312252"/>
      <point x="278.2461458393258" y="68.78013609827828" type="curve" smooth="yes"/>
      <point x="377.2461458393258" y="6.780136098278282" type="line"/>
    </contour>
    <contour>
      <point x="529.7459217823134" y="674.4336382733838" type="line"/>
      <point x="467.7459217823134" y="610.4336382733838" type="line" smooth="yes"/>
      <point x="465.11527101267916" y="607.7181278015033"/>
      <point x="466.52122771476473" y="623.6061041634936"/>
      <point x="468.63413142072926" y="620.4708276965785" type="curve" smooth="yes"/>
      <point x="530.6341314207293" y="528.4708276965785" type="line"/>
      <point x="517.3658685792707" y="519.5291723034215" type="line"/>
      <point x="455.36586857927074" y="611.5291723034215" type="line" smooth="yes"/>
      <point x="453.2529648733062" y="614.6644487703367"/>
      <point x="453.6234274480523" y="618.8508512547356"/>
      <point x="456.2540782176866" y="621.5663617266162" type="curve" smooth="yes"/>
      <point x="518.2540782176866" y="685.5663617266162" type="line"/>
    </contour>
    <contour>
      <point x="18.36586857927073" y="528.4708276965785" type="line"/>
      <point x="80.36586857927074" y="620.4708276965785" type="line" smooth="yes"/>
      <point x="82.47877228523521" y="623.6061041634935"/>
      <point x="83.88472898732081" y="607.7181278015033"/>
      <point x="81.25407821768661" y="610.4336382733838" type="curve" smooth="yes"/>
      <point x="19.25407821768661" y="674.4336382733838" type="line"/>
      <point x="30.74592178231339" y="685.5663617266162" type="line"/>
      <point x="92.74592178231339" y="621.5663617266162" type="line" smooth="yes"/>
      <point x="95.37657255194759" y="618.8508512547356"/>
      <point x="95.74703512669373" y="614.6644487703365"/>
      <point x="93.63413142072926" y="611.5291723034215" type="curve" smooth="yes"/>
      <point x="31.63413142072927" y="519.5291723034215" type="line"/>
    </contour>
    <contour>
      <point x="194.81403531142072" y="559.0914505865852" type="line"/>
      <point x="268.81403531142075" y="622.0914505865852" type="line" smooth="yes"/>
      <point x="271.78783719906585" y="624.623200842283"/>
      <point x="276.15504430876064" y="624.6376525197225"/>
      <point x="279.1455366913862" y="622.1256389183169" type="curve" smooth="yes"/>
      <point x="354.1455366913862" y="559.1256389183169" type="line"/>
      <point x="343.8544633086138" y="546.8743610816831" type="line"/>
      <point x="268.8544633086138" y="609.8743610816831" type="line" smooth="yes"/>
      <point x="265.8639709259882" y="612.3863746830887"/>
      <point x="282.15976657622434" y="612.4402996691126"/>
      <point x="279.18596468857925" y="609.9085494134148" type="curve" smooth="yes"/>
      <point x="205.18596468857928" y="546.9085494134148" type="line"/>
    </contour>
  </outline>
</glyph>
<glyph name="U" format="2">
  <advance width="684"/>
  <unicode hex="0055"/>
  <outline>
    <contour>
      <point x="546.0" y="618.0" type="line"/>
      <point x="546.0" y="234.0" type="line"/>
      <point x="546.0" y="234.0"/>
      <point x="546.0" y="234.0"/>
      <point x="546.0" y="234.0" type="curve"/>
      <point x="546.0" y="115.61405739220191"/>
      <point x="463.5013621501085" y="40.0"/>
      <point x="342.0" y="40.0" type="curve"/>
      <point x="342.0" y="40.0"/>
      <point x="342.0" y="40.0"/>
      <point x="342.0" y="40.0" type="curve"/>
      <point x="220.49863784989145" y="40.0"/>
      <point x="138.0" y="115.61405739220191"/>
      <point x="138.0" y="234.0" type="curve"/>
      <point x="138.0" y="234.0"/>
      <point x="138.0" y="234.0"/>
      <point x="138.0" y="234.0" type="curve"/>
      <point x="138.0" y="618.0" type="line"/>
      <point x="154.0" y="618.0" type="line"/>
      <point x="154.0" y="234.0" type="line"/>
      <point x="154.0" y="234.0"/>
      <point x="154.0" y="234.0"/>
      <point x="154.0" y="234.0" type="curve"/>
      <point x="154.0" y="124.39674989795593"/>
      <point x="229.512453842639" y="56.0"/>
      <point x="342.0" y="56.0" type="curve"/>
      <point x="342.0" y="56.0"/>
      <point x="342.0" y="56.0"/>
      <point x="342.0" y="56.0" type="curve"/>
      <point x="454.487546157361" y="56.0"/>
      <point x="530.0" y="124.39674989795593"/>
      <point x="530.0" y="234.0" type="curve"/>
      <point x="530.0" y="234.0"/>
      <point x="530.0" y="234.0"/>
      <point x="530.0" y="234.0" type="curve"/>
      <point x="530.0" y="618.0" type="line"/>
    </contour>
    <contour>
      <point x="51.24614583932579" y="686.7801360982783" type="line"/>
      <point x="150.2461458393258" y="624.7801360982783" type="line" smooth="yes"/>
      <point x="152.85447701612827" y="623.1466357653312"/>
      <point x="139.12203889041578" y="623.1152092665563"/>
      <point x="141.7228662991643" y="624.7606306884177" type="curve" smooth="yes"/>
      <point x="239.7228662991643" y="686.7606306884177" type="line"/>
      <point x="248.2771337008357" y="673.2393693115823" type="line"/>
      <point x="150.2771337008357" y="611.2393693115823" type="line" smooth="yes"/>
      <point x="147.67630629208716" y="609.593947889721"/>
      <point x="144.36218533747666" y="609.5863635687747"/>
      <point x="141.7538541606742" y="611.2198639017217" type="curve" smooth="yes"/>
      <point x="42.75385416067421" y="673.2198639017217" type="line"/>
    </contour>
    <contour>
      <point x="444.2771337008357" y="686.7606306884177" type="line"/>
      <point x="542.2771337008357" y="624.7606306884177" type="line" smooth="yes"/>
      <point x="544.8779611095845" y="623.1152092665562"/>
      <point x="531.1455229838716" y="623.1466357653311"/>
      <point x="533.7538541606742" y="624.7801360982783" type="curve" smooth="yes"/>
      <point x="632.7538541606742" y="686.7801360982783" type="line"/>
      <point x="641.2461458393258" y="673.2198639017217" type="line"/>
      <point x="542.2461458393258" y="611.2198639017217" type="line" smooth="yes"/>
      <point x="539.6378146625232" y="609.5863635687746"/>
      <point x="536.323693707913" y="609.5939478897209"/>
      <point x="533.7228662991643" y="611.2393693115823" type="curve" smooth="yes"/>
      <point x="435.7228662991643" y="673.2393693115823" type="line"/>
    </contour>
  </outline>
</glyph>
<glyph name="V" format="2">
  <advance width="652"/>
  <unicode hex="0056"/>
  <outline>
    <contour>
      <point x="453.01501474821896" y="686.2329469013579" type="line"/>
      <point x="540.015014748219" y="616.2329469013579" type="line" smooth="yes"/>
      <point x="542.6238490111115" y="614.1338848507547"/>
      <point x="528.0192342407947" y="615.1459680448513"/>
      <point x="530.8926660655528" y="616.8651152904331" type="curve" smooth="yes"/>
      <point x="647.8926660655528" y="686.8651152904331" type="line"/>
      <point x="656.1073339344472" y="673.1348847095669" type="line"/>
      <point x="539.1073339344472" y="603.1348847095669" type="line" smooth="yes"/>
      <point x="536.2339021096891" y="601.4157374639851"/>
      <point x="532.5938195146736" y="601.667991048039"/>
      <point x="529.984985251781" y="603.7670530986421" type="curve" smooth="yes"/>
      <point x="442.98498525178104" y="673.7670530986421" type="line"/>
    </contour>
    <contour>
      <point x="3.9569302393985644" y="686.9528917063718" type="line"/>
      <point x="126.95693023939856" y="616.9528917063718" type="line" smooth="yes"/>
      <point x="129.72996812443915" y="615.3747400644788"/>
      <point x="115.63977683306675" y="614.4729650847753"/>
      <point x="118.1890105380574" y="616.3917431422951" type="curve" smooth="yes"/>
      <point x="211.1890105380574" y="686.3917431422951" type="line"/>
      <point x="220.8109894619426" y="673.6082568577049" type="line"/>
      <point x="127.8109894619426" y="603.6082568577049" type="line" smooth="yes"/>
      <point x="125.26175575695194" y="601.689478800185"/>
      <point x="121.81610764564202" y="601.4689566517352"/>
      <point x="119.04306976060144" y="603.0471082936282" type="curve" smooth="yes"/>
      <point x="-3.9569302393985644" y="673.0471082936282" type="line"/>
    </contour>
    <contour>
      <point x="130.58127507347393" y="612.5542647200951" type="line"/>
      <point x="224.58127507347393" y="333.55426472009515" type="line" smooth="yes"/>
      <point x="224.59879977936345" y="333.5022499015508"/>
      <point x="224.50850777148295" y="333.76139886692323"/>
      <point x="224.5270992949498" y="333.70975574618194" type="curve" smooth="yes"/>
      <point x="251.58558707523034" y="258.5472896898471"/>
      <point x="283.63450950422634" y="164.39596741408138"/>
      <point x="304.68" y="92.24" type="curve" smooth="yes"/>
      <point x="305.67555555555555" y="88.82666666666665"/>
      <point x="293.44444444444446" y="98.0"/>
      <point x="297.0" y="98.0" type="curve" smooth="yes"/>
      <point x="361.0" y="98.0" type="line" smooth="yes"/>
      <point x="364.5555555555556" y="98.0"/>
      <point x="352.32444444444445" y="88.82666666666665"/>
      <point x="353.32" y="92.24000000000001" type="curve" smooth="yes"/>
      <point x="374.36549049577366" y="164.3959674140814"/>
      <point x="406.4144129247697" y="258.5472896898471"/>
      <point x="433.47290070505017" y="333.70975574618194" type="curve" smooth="yes"/>
      <point x="433.491492228517" y="333.76139886692323"/>
      <point x="433.40120022063655" y="333.5022499015507"/>
      <point x="433.41872492652607" y="333.55426472009515" type="curve" smooth="yes"/>
      <point x="527.418724926526" y="612.5542647200951" type="line"/>
      <point x="542.581275073474" y="607.4457352799049" type="line"/>
      <point x="448.58127507347393" y="328.44573527990485" type="line" smooth="yes"/>
      <point x="448.5637503675844" y="328.39372046136043"/>
      <point x="448.5456908184167" y="328.34188737455935"/>
      <point x="448.52709929494983" y="328.29024425381806" type="curve" smooth="yes"/>
      <point x="421.59230991205436" y="253.47138485688603"/>
      <point x="389.62928063114094" y="159.58610502105478"/>
      <point x="368.68" y="87.75999999999999" type="curve" smooth="yes"/>
      <point x="367.68444444444447" y="84.34666666666664"/>
      <point x="364.5555555555556" y="82.0"/>
      <point x="361.0" y="82.0" type="curve" smooth="yes"/>
      <point x="297.0" y="82.0" type="line" smooth="yes"/>
      <point x="293.44444444444446" y="82.0"/>
      <point x="290.31555555555553" y="84.34666666666666"/>
      <point x="289.32" y="87.76" type="curve" smooth="yes"/>
      <point x="268.37071936885906" y="159.58610502105478"/>
      <point x="236.40769008794578" y="253.47138485688603"/>
      <point x="209.4729007050502" y="328.29024425381806" type="curve" smooth="yes"/>
      <point x="209.45430918158334" y="328.34188737455935"/>
      <point x="209.43624963241558" y="328.3937204613605"/>
      <point x="209.41872492652607" y="328.44573527990485" type="curve" smooth="yes"/>
      <point x="115.41872492652607" y="607.4457352799049" type="line"/>
    </contour>
    <contour>
      <point x="243.87652254243136" y="3.6408884783128608" type="line"/>
      <point x="289.87652254243136" y="93.64088847831286" type="line" smooth="yes"/>
      <point x="290.10296230545447" y="94.08392279727113"/>
      <point x="289.1846845946842" y="91.77999985659713"/>
      <point x="289.32507598742984" y="92.2573305919324" type="curve" smooth="yes"/>
      <point x="324.32507598742984" y="211.2573305919324" type="line" smooth="yes"/>
      <point x="326.632775188243" y="219.10350787469707"/>
      <point x="337.83611876431524" y="218.8401062658293"/>
      <point x="339.77252929908315" y="210.89414579557487" type="curve" smooth="yes"/>
      <point x="368.77252929908315" y="91.89414579557489" type="line" smooth="yes"/>
      <point x="368.90313588293316" y="91.35820843425923"/>
      <point x="367.98062584915465" y="93.94653641679801"/>
      <point x="368.21843052680276" y="93.44880569613912" type="curve" smooth="yes"/>
      <point x="411.21843052680276" y="3.448805696139114" type="line"/>
      <point x="396.78156947319724" y="-3.448805696139114" type="line"/>
      <point x="353.78156947319724" y="86.55119430386088" type="line" smooth="yes"/>
      <point x="353.5437647955491" y="87.04892502451978"/>
      <point x="353.35807728476686" y="87.56991684310945"/>
      <point x="353.22747070091685" y="88.10585420442511" type="curve" smooth="yes"/>
      <point x="324.22747070091685" y="207.10585420442513" type="line" smooth="yes"/>
      <point x="322.29106016614895" y="215.05181467467955"/>
      <point x="341.9826232133833" y="214.58884669083227"/>
      <point x="339.67492401257016" y="206.7426694080676" type="curve" smooth="yes"/>
      <point x="304.67492401257016" y="87.7426694080676" type="line" smooth="yes"/>
      <point x="304.5345326198245" y="87.26533867273233"/>
      <point x="304.34991722059175" y="86.80214584064541"/>
      <point x="304.12347745756864" y="86.35911152168714" type="curve" smooth="yes"/>
      <point x="258.12347745756864" y="-3.6408884783128608" type="line"/>
    </contour>
  </outline>
</glyph>
<glyph name="W" format="2">
  <advance width="934"/>
  <unicode hex="0057"/>
  <outline>
    <contour>
      <point x="347.47180415118675" y="-4.624138726242713" type="line"/>
      <point x="296.47180415118675" y="67.37586127375728" type="line" smooth="yes"/>
      <point x="293.450788312139" y="71.64082481123639"/>
      <point x="312.4823818947907" y="70.81641042706985"/>
      <point x="309.1038734583834" y="66.82866276442518" type="curve" smooth="yes"/>
      <point x="248.1038734583834" y="-5.17133723557483" type="line"/>
      <point x="235.8961265416166" y="5.17133723557483" type="line"/>
      <point x="296.8961265416166" y="77.17133723557482" type="line" smooth="yes"/>
      <point x="300.27463497802387" y="81.1590848982195"/>
      <point x="306.50718000976553" y="80.88910226372182"/>
      <point x="309.52819584881325" y="76.62413872624272" type="curve" smooth="yes"/>
      <point x="360.52819584881325" y="4.624138726242713" type="line"/>
    </contour>
    <contour>
      <point x="18.69645236228579" y="687.094803727613" type="line"/>
      <point x="137.69645236228578" y="625.094803727613" type="line" smooth="yes"/>
      <point x="140.20106986722448" y="623.789876960334"/>
      <point x="127.38421198242418" y="623.3110537203559"/>
      <point x="129.7844826491066" y="624.799221533699" type="curve" smooth="yes"/>
      <point x="229.7844826491066" y="686.799221533699" type="line"/>
      <point x="238.2155173508934" y="673.200778466301" type="line"/>
      <point x="138.2155173508934" y="611.200778466301" type="line" smooth="yes"/>
      <point x="135.815246684211" y="609.7126106529579"/>
      <point x="132.8081651426529" y="609.600269505108"/>
      <point x="130.30354763771422" y="610.905196272387" type="curve" smooth="yes"/>
      <point x="11.30354763771421" y="672.905196272387" type="line"/>
    </contour>
    <contour>
      <point x="685.727633404306" y="-4.965623554924489" type="line"/>
      <point x="628.727633404306" y="67.03437644507551" type="line" smooth="yes"/>
      <point x="625.5246804900595" y="71.08021170517627"/>
      <point x="644.4753195099405" y="71.08021170517625"/>
      <point x="641.272366595694" y="67.03437644507551" type="curve" smooth="yes"/>
      <point x="584.272366595694" y="-4.965623554924489" type="line"/>
      <point x="571.727633404306" y="4.965623554924489" type="line"/>
      <point x="628.727633404306" y="76.96562355492449" type="line" smooth="yes"/>
      <point x="631.9305863185524" y="81.01145881502524"/>
      <point x="638.0694136814476" y="81.01145881502525"/>
      <point x="641.272366595694" y="76.96562355492449" type="curve" smooth="yes"/>
      <point x="698.272366595694" y="4.965623554924489" type="line"/>
    </contour>
    <contour>
      <point x="408.7759056409234" y="685.535242905885" type="line"/>
      <point x="477.7759056409234" y="613.535242905885" type="line" smooth="yes"/>
      <point x="480.8348124822258" y="610.3433401149607"/>
      <point x="463.27049908621643" y="610.7094221315124"/>
      <point x="466.4597453744823" y="613.7710985682476" type="curve" smooth="yes"/>
      <point x="541.4597453744823" y="685.7710985682476" type="line"/>
      <point x="552.5402546255177" y="674.2289014317524" type="line"/>
      <point x="477.5402546255177" y="602.2289014317524" type="line" smooth="yes"/>
      <point x="474.35100833725187" y="599.1672249950172"/>
      <point x="469.28300120037903" y="599.2728543031908"/>
      <point x="466.2240943590766" y="602.464757094115" type="curve" smooth="yes"/>
      <point x="397.2240943590766" y="674.464757094115" type="line"/>
    </contour>
    <contour>
      <point x="716.3722931859362" y="686.6994814945797" type="line"/>
      <point x="811.3722931859362" y="624.6994814945797" type="line" smooth="yes"/>
      <point x="813.8536226019777" y="623.0800875599"/>
      <point x="800.5331550023216" y="623.5641125224596"/>
      <point x="803.1254729358656" y="624.9991456642429" type="curve" smooth="yes"/>
      <point x="915.1254729358656" y="686.9991456642429" type="line"/>
      <point x="922.8745270641344" y="673.0008543357571" type="line"/>
      <point x="810.8745270641344" y="611.0008543357571" type="line" smooth="yes"/>
      <point x="808.2822091305904" y="609.5658211939739"/>
      <point x="805.1090362301053" y="609.6811245707406"/>
      <point x="802.6277068140638" y="611.3005185054203" type="curve" smooth="yes"/>
      <point x="707.6277068140638" y="673.3005185054203" type="line"/>
    </contour>
    <contour>
      <point x="814.6303491169958" y="615.5963002781625" type="line"/>
      <point x="642.6303491169958" y="69.5963002781625" type="line" smooth="yes"/>
      <point x="640.2674716293225" y="62.09553802078093"/>
      <point x="629.6341489091581" y="62.14848912428028"/>
      <point x="627.3460903344292" y="69.6724117994626" type="curve" smooth="yes"/>
      <point x="464.34609033442916" y="605.6724117994626" type="line" smooth="yes"/>
      <point x="462.0583369827591" y="613.1953307963654"/>
      <point x="481.9942099444949" y="613.0935148195914"/>
      <point x="479.62973622175775" y="605.5943555569457" type="curve" smooth="yes"/>
      <point x="310.62973622175775" y="69.59435555694579" type="line" smooth="yes"/>
      <point x="308.2713869908434" y="62.114620718069446"/>
      <point x="297.6766773239458" y="62.1424911848144"/>
      <point x="295.35771287446926" y="69.63453017543095" type="curve" smooth="yes"/>
      <point x="126.35771287446923" y="615.634530175431" type="line"/>
      <point x="141.64228712553077" y="620.365469824569" type="line"/>
      <point x="310.64228712553074" y="74.36546982456905" type="line" smooth="yes"/>
      <point x="312.9612515750073" y="66.8734308339525"/>
      <point x="293.0119145473279" y="66.92590960417787"/>
      <point x="295.37026377824225" y="74.40564444305421" type="curve" smooth="yes"/>
      <point x="464.37026377824225" y="610.4056444430543" type="line" smooth="yes"/>
      <point x="466.7347375009794" y="617.9048037056999"/>
      <point x="477.3661563139008" y="617.8505071974403"/>
      <point x="479.65390966557084" y="610.3275882005374" type="curve" smooth="yes"/>
      <point x="642.6539096655708" y="74.3275882005374" type="line" smooth="yes"/>
      <point x="644.9419682402997" y="66.80366552535509"/>
      <point x="625.0067733953308" y="66.90293746445593"/>
      <point x="627.3696508830042" y="74.4036997218375" type="curve" smooth="yes"/>
      <point x="799.3696508830042" y="620.4036997218375" type="line"/>
    </contour>
    <contour>
      <point x="316.9968574732" y="285.7757890428075" type="line"/>
      <point x="310.9968574732" y="71.77578904280747" type="line"/>
      <point x="295.0031425268" y="72.22421095719253" type="line"/>
      <point x="301.0031425268" y="286.2242109571925" type="line"/>
    </contour>
    <contour>
      <point x="645.9992285066764" y="287.8888996040739" type="line"/>
      <point x="642.9992285066764" y="71.88889960407394" type="line"/>
      <point x="627.0007714933236" y="72.11110039592606" type="line"/>
      <point x="630.0007714933236" y="288.1111003959261" type="line"/>
    </contour>
    <contour>
      <point x="479.99789662983886" y="607.8165620039027" type="line"/>
      <point x="474.99789662983886" y="389.8165620039028" type="line"/>
      <point x="459.00210337016114" y="390.1834379960972" type="line"/>
      <point x="464.00210337016114" y="608.1834379960973" type="line"/>
    </contour>
  </outline>
</glyph>
<glyph name="Y" format="2">
  <advance width="623"/>
  <unicode hex="0059"/>
  <outline>
    <contour>
      <point x="132.3263056703516" y="621.2132919606805" type="line"/>
      <point x="157.27840151725243" y="564.3225134297467"/>
      <point x="206.21463392490725" y="471.48550460226716"/>
      <point x="318.9981071528988" y="267.8764024915567" type="curve" smooth="yes"/>
      <point x="322.0436399532524" y="262.3782724802989"/>
      <point x="301.9563600467476" y="262.3782724802989"/>
      <point x="305.0018928471012" y="267.8764024915567" type="curve" smooth="yes"/>
      <point x="417.78536607509284" y="471.48550460226716"/>
      <point x="469.7428010935992" y="565.3685120259331"/>
      <point x="494.6948969404999" y="621.2612067229911" type="curve"/>
      <point x="509.3051030595001" y="614.7387932770089" type="line"/>
      <point x="484.26346852465593" y="558.645531918958"/>
      <point x="432.1862952503943" y="464.4633353127718"/>
      <point x="318.9981071528988" y="260.1235975084433" type="curve" smooth="yes"/>
      <point x="315.9525743525452" y="254.6254674971855"/>
      <point x="308.0474256474548" y="254.6254674971855"/>
      <point x="305.0018928471012" y="260.1235975084433" type="curve" smooth="yes"/>
      <point x="191.8137047496055" y="464.4633353127718"/>
      <point x="142.71532886449256" y="557.6917812998745"/>
      <point x="117.67369432964841" y="614.7867080393195" type="curve"/>
    </contour>
    <contour>
      <point x="320.0" y="397.0" type="line"/>
      <point x="320.0" y="264.0" type="line"/>
      <point x="320.0" y="264.0"/>
      <point x="320.0" y="264.0"/>
      <point x="320.0" y="264.0" type="curve"/>
      <point x="320.0" y="62.0" type="line"/>
      <point x="304.0" y="62.0" type="line"/>
      <point x="304.0" y="264.0" type="line"/>
      <point x="304.0" y="264.0"/>
      <point x="304.0" y="264.0"/>
      <point x="304.0" y="264.0" type="curve"/>
      <point x="304.0" y="397.0" type="line"/>
    </contour>
    <contour>
      <point x="406.7538541606742" y="-6.780136098278282" type="line"/>
      <point x="307.7538541606742" y="55.219863901721716" type="line" smooth="yes"/>
      <point x="305.14552298387184" y="56.85336423466865"/>
      <point x="318.87796110958413" y="56.88479073344352"/>
      <point x="316.2771337008357" y="55.23936931158227" type="curve" smooth="yes"/>
      <point x="218.2771337008357" y="-6.760630688417725" type="line"/>
      <point x="209.7228662991643" y="6.760630688417725" type="line"/>
      <point x="307.7228662991643" y="68.76063068841772" type="line" smooth="yes"/>
      <point x="310.32369370791275" y="70.40605211027896"/>
      <point x="313.6378146625234" y="70.4136364312252"/>
      <point x="316.2461458393258" y="68.78013609827828" type="curve" smooth="yes"/>
      <point x="415.2461458393258" y="6.780136098278282" type="line"/>
    </contour>
    <contour>
      <point x="-1.5562198009468262" y="687.2208294496276" type="line"/>
      <point x="128.44378019905318" y="625.2208294496276" type="line" smooth="yes"/>
      <point x="131.12542087762915" y="623.9418931259991"/>
      <point x="117.83212269252658" y="622.6312427871899"/>
      <point x="120.21236413371783" y="624.409254466152" type="curve" smooth="yes"/>
      <point x="203.21236413371784" y="686.409254466152" type="line"/>
      <point x="212.78763586628216" y="673.590745533848" type="line"/>
      <point x="129.78763586628216" y="611.590745533848" type="line" smooth="yes"/>
      <point x="127.40739442509094" y="609.8127338548859"/>
      <point x="124.23786047952277" y="609.5002342267439"/>
      <point x="121.55621980094682" y="610.7791705503724" type="curve" smooth="yes"/>
      <point x="-8.443780199053174" y="672.7791705503724" type="line"/>
    </contour>
    <contour>
      <point x="426.9005733234865" y="686.323320417402" type="line"/>
      <point x="506.9005733234865" y="624.323320417402" type="line" smooth="yes"/>
      <point x="509.3171871291813" y="622.4504447179885"/>
      <point x="495.7246650900436" y="623.8281950412809"/>
      <point x="498.4679387902455" y="625.1780598778881" type="curve" smooth="yes"/>
      <point x="624.4679387902455" y="687.1780598778881" type="line"/>
      <point x="631.5320612097545" y="672.8219401221119" type="line"/>
      <point x="505.5320612097545" y="610.8219401221119" type="line" smooth="yes"/>
      <point x="502.78878750955255" y="609.4720752855046"/>
      <point x="499.51604048220827" y="609.8038038831845"/>
      <point x="497.0994266765135" y="611.676679582598" type="curve" smooth="yes"/>
      <point x="417.0994266765135" y="673.676679582598" type="line"/>
    </contour>
    <contour>
      <point x="240.3263448167725" y="265.971586334859" type="line"/>
      <point x="311.32634481677246" y="271.971586334859" type="line" smooth="yes"/>
      <point x="311.7715468767355" y="272.00920904415165"/>
      <point x="312.2191182319645" y="272.00946986653116"/>
      <point x="312.6643638388299" y="271.972366065959" type="curve" smooth="yes"/>
      <point x="384.6643638388299" y="265.972366065959" type="line"/>
      <point x="383.3356361611701" y="250.02763393404095" type="line"/>
      <point x="311.3356361611701" y="256.027633934041" type="line" smooth="yes"/>
      <point x="310.8903905543047" y="256.0647377346131"/>
      <point x="313.1188572431906" y="256.0660363744336"/>
      <point x="312.67365518322754" y="256.028413665141" type="curve" smooth="yes"/>
      <point x="241.6736551832275" y="250.02841366514102" type="line"/>
    </contour>
  </outline>
</glyph>
<glyph name="Z" format="2">
  <advance width="588"/>
  <unicode hex="005A"/>
  <outline>
    <contour>
      <point x="118.38642800892211" y="618.9764358840126" type="line"/>
      <point x="183.59238901352876" y="623.992279038213"/>
      <point x="266.78453310287307" y="625.0"/>
      <point x="335.0" y="625.0" type="curve"/>
      <point x="335.0" y="625.0"/>
      <point x="335.0" y="625.0"/>
      <point x="335.0" y="625.0" type="curve"/>
      <point x="444.0" y="625.0" type="line" smooth="yes"/>
      <point x="450.06174275580906" y="625.0"/>
      <point x="453.92126483126515" y="618.5209304341437"/>
      <point x="451.03477884186555" y="613.190552973719" type="curve" smooth="yes"/>
      <point x="151.03477884186555" y="59.19055297371902" type="line" smooth="yes"/>
      <point x="148.14829285246574" y="53.860175513294074"/>
      <point x="137.9382572441906" y="71.0"/>
      <point x="144.0" y="71.0" type="curve" smooth="yes"/>
      <point x="244.0" y="71.0" type="line"/>
      <point x="244.0" y="71.0"/>
      <point x="244.0" y="71.0"/>
      <point x="244.0" y="71.0" type="curve"/>
      <point x="311.7340630727835" y="71.0"/>
      <point x="390.54846370965436" y="71.99157827075932"/>
      <point x="457.28643761960274" y="77.96811324776962" type="curve"/>
      <point x="458.71356238039726" y="62.03188675223038" type="line"/>
      <point x="391.4676579649773" y="56.00986546129725"/>
      <point x="312.24957463057547" y="55.0"/>
      <point x="244.0" y="55.0" type="curve"/>
      <point x="244.0" y="55.0"/>
      <point x="244.0" y="55.0"/>
      <point x="244.0" y="55.0" type="curve"/>
      <point x="144.0" y="55.0" type="line" smooth="yes"/>
      <point x="137.9382572441906" y="55.0"/>
      <point x="134.07873516873465" y="61.47906956585603"/>
      <point x="136.96522115813445" y="66.80944702628098" type="curve" smooth="yes"/>
      <point x="436.96522115813445" y="620.809447026281" type="line" smooth="yes"/>
      <point x="439.85170714753406" y="626.1398244867056"/>
      <point x="450.06174275580906" y="609.0"/>
      <point x="444.0" y="609.0" type="curve" smooth="yes"/>
      <point x="335.0" y="609.0" type="line"/>
      <point x="335.0" y="609.0"/>
      <point x="335.0" y="609.0"/>
      <point x="335.0" y="609.0" type="curve"/>
      <point x="267.23205295369337" y="609.0"/>
      <point x="184.39175666769447" y="608.0065013988042"/>
      <point x="119.61357199107789" y="603.0235641159874" type="curve"/>
    </contour>
    <contour>
      <point x="50.48507634244773" y="528.6428191582556" type="line"/>
      <point x="112.48507634244773" y="615.6428191582556" type="line" smooth="yes"/>
      <point x="114.65950379485791" y="618.6940318737345"/>
      <point x="115.55356271061873" y="602.866113856756"/>
      <point x="113.04936050487599" y="605.6530485695987" type="curve" smooth="yes"/>
      <point x="51.04936050487599" y="674.6530485695987" type="line"/>
      <point x="62.95063949512401" y="685.3469514304013" type="line"/>
      <point x="124.95063949512401" y="616.3469514304013" type="line" smooth="yes"/>
      <point x="127.45484170086675" y="613.5600167175586"/>
      <point x="127.68935110996246" y="609.4083935572232"/>
      <point x="125.51492365755227" y="606.3571808417444" type="curve" smooth="yes"/>
      <point x="63.51492365755227" y="519.3571808417444" type="line"/>
    </contour>
    <contour>
      <point x="546.0829894255471" y="160.80411319901188" type="line"/>
      <point x="464.08298942554705" y="64.80411319901188" type="line" smooth="yes"/>
      <point x="461.49157996003436" y="61.77026797109457"/>
      <point x="461.3432347043363" y="78.29110376226394"/>
      <point x="463.9887054413853" y="75.30428196236984" type="curve" smooth="yes"/>
      <point x="525.9887054413853" y="5.304281962369836" type="line"/>
      <point x="514.0112945586147" y="-5.304281962369836" type="line"/>
      <point x="452.0112945586147" y="64.69571803763016" type="line" smooth="yes"/>
      <point x="449.36582382156564" y="67.68253983752426"/>
      <point x="449.32560110894025" y="72.16204157307081"/>
      <point x="451.91701057445295" y="75.19588680098812" type="curve" smooth="yes"/>
      <point x="533.9170105744529" y="171.19588680098812" type="line"/>
    </contour>
    <contour>
      <point x="26.13051110647902" y="7.001932283514158" type="line"/>
      <point x="140.13051110647902" y="70.00193228351415" type="line" smooth="yes"/>
      <point x="140.1547882595726" y="70.01534860496061"/>
      <point x="140.17913502425856" y="70.02863857478785"/>
      <point x="140.2035504127373" y="70.04180165379377" type="curve" smooth="yes"/>
      <point x="255.2035504127373" y="132.04180165379378" type="line"/>
      <point x="262.7964495872627" y="117.95819834620623" type="line"/>
      <point x="147.7964495872627" y="55.95819834620623" type="line" smooth="yes"/>
      <point x="147.77203419878398" y="55.9450352672003"/>
      <point x="147.89376604661456" y="56.01148403793229"/>
      <point x="147.86948889352098" y="55.99806771648584" type="curve" smooth="yes"/>
      <point x="33.86948889352098" y="-7.001932283514158" type="line"/>
    </contour>
    <contour>
      <point x="561.869488893521" y="672.9980677164858" type="line"/>
      <point x="447.869488893521" y="609.9980677164858" type="line" smooth="yes"/>
      <point x="447.8608794929285" y="609.9933098898426"/>
      <point x="447.8522613245001" y="609.9885679461001"/>
      <point x="447.8436344322115" y="609.9838419094551" type="curve" smooth="yes"/>
      <point x="332.8436344322115" y="546.9838419094551" type="line"/>
      <point x="325.1563655677885" y="561.0161580905449" type="line"/>
      <point x="440.1563655677885" y="624.0161580905449" type="line" smooth="yes"/>
      <point x="440.1649924600771" y="624.0208841271899"/>
      <point x="440.1219017058865" y="623.997174456871"/>
      <point x="440.130511106479" y="624.0019322835142" type="curve" smooth="yes"/>
      <point x="554.130511106479" y="687.0019322835142" type="line"/>
    </contour>
  </outline>
</glyph>
<glyph name="asciicircum" format="2">
  <advance width="560"/>
  <unicode hex="005E"/>
  <outline>
    <contour>
      <point x="134.04350932757688" y="328.9505996411292" type="line"/>
      <point x="272.0435093275769" y="571.9505996411292" type="line" smooth="yes"/>
      <point x="275.10972194499345" y="577.3498001196235"/>
      <point x="282.8902780550066" y="577.3498001196235"/>
      <point x="285.9564906724231" y="571.9505996411292" type="curve" smooth="yes"/>
      <point x="423.9564906724231" y="328.9505996411292" type="line"/>
      <point x="410.0435093275769" y="321.0494003588708" type="line"/>
      <point x="272.0435093275769" y="564.0494003588708" type="line" smooth="yes"/>
      <point x="268.9772967101604" y="569.4486008373651"/>
      <point x="289.0227032898397" y="569.4486008373651"/>
      <point x="285.9564906724231" y="564.0494003588708" type="curve" smooth="yes"/>
      <point x="147.95649067242312" y="321.0494003588708" type="line"/>
    </contour>
    <contour>
      <point x="172.17918998071247" y="258.8195035365657" type="line"/>
      <point x="134.17918998071247" y="320.8195035365657" type="line" smooth="yes"/>
      <point x="131.91710710660024" y="324.51027033116986"/>
      <point x="148.73713230245443" y="320.2171596100413"/>
      <point x="144.98294014842654" y="318.06197522532153" type="curve" smooth="yes"/>
      <point x="36.98294014842652" y="256.06197522532153" type="line"/>
      <point x="29.017059851573478" y="269.93802477467847" type="line"/>
      <point x="137.01705985157346" y="331.93802477467847" type="line" smooth="yes"/>
      <point x="140.77125200560135" y="334.0932091593982"/>
      <point x="145.5587271451753" y="332.8712632580384"/>
      <point x="147.82081001928753" y="329.1804964634343" type="curve" smooth="yes"/>
      <point x="185.82081001928753" y="267.1804964634343" type="line"/>
    </contour>
    <contour>
      <point x="521.0170598515734" y="256.06197522532153" type="line"/>
      <point x="413.0170598515735" y="318.06197522532153" type="line" smooth="yes"/>
      <point x="409.2628676975456" y="320.2171596100413"/>
      <point x="426.0828928933998" y="324.51027033116986"/>
      <point x="423.82081001928753" y="320.8195035365657" type="curve" smooth="yes"/>
      <point x="385.82081001928753" y="258.8195035365657" type="line"/>
      <point x="372.17918998071247" y="267.1804964634343" type="line"/>
      <point x="410.17918998071247" y="329.1804964634343" type="line" smooth="yes"/>
      <point x="412.4412728548247" y="332.8712632580384"/>
      <point x="417.2287479943986" y="334.0932091593982"/>
      <point x="420.9829401484265" y="331.93802477467847" type="curve" smooth="yes"/>
      <point x="528.9829401484266" y="269.93802477467847" type="line"/>
    </contour>
    <contour>
      <point x="287.0" y="694.0" type="line"/>
      <point x="287.0" y="568.0" type="line"/>
      <point x="287.0" y="568.0"/>
      <point x="287.0" y="568.0"/>
      <point x="287.0" y="568.0" type="curve"/>
      <point x="287.0" y="442.0" type="line"/>
      <point x="271.0" y="442.0" type="line"/>
      <point x="271.0" y="568.0" type="line"/>
      <point x="271.0" y="568.0"/>
      <point x="271.0" y="568.0"/>
      <point x="271.0" y="568.0" type="curve"/>
      <point x="271.0" y="694.0" type="line"/>
    </contour>
  </outline>
</glyph>
<glyph name="underscore" format="2">
  <advance width="615"/>
  <unicode hex="005F"/>
  <outline>
    <contour>
      <point x="543.0" y="-71.0" type="line"/>
      <point x="72.0" y="-71.0" type="line"/>
      <point x="72.0" y="-55.0" type="line"/>
      <point x="543.0" y="-55.0" type="line"/>
    </contour>
    <contour>
      <point x="4.34314575050762" y="-119.34314575050762" type="line"/>
      <point x="66.34314575050762" y="-57.34314575050762" type="line" smooth="yes"/>
      <point x="69.44968195415404" y="-54.23660954686119"/>
      <point x="69.3796586801096" y="-71.74270814658747"/>
      <point x="66.29807337524439" y="-68.6114198529341" type="curve" smooth="yes"/>
      <point x="4.29807337524438" y="-5.611419852934103" type="line"/>
      <point x="15.70192662475562" y="5.611419852934103" type="line"/>
      <point x="77.70192662475561" y="-57.388580147065895" type="line" smooth="yes"/>
      <point x="80.78351192962083" y="-60.519868440719264"/>
      <point x="80.76339045313881" y="-65.55031804584596"/>
      <point x="77.65685424949238" y="-68.65685424949238" type="curve" smooth="yes"/>
      <point x="15.65685424949238" y="-130.65685424949237" type="line"/>
    </contour>
    <contour>
      <point x="610.7019266247556" y="-5.611419852934104" type="line"/>
      <point x="548.7019266247556" y="-68.6114198529341" type="line" smooth="yes"/>
      <point x="545.6203413198904" y="-71.74270814658747"/>
      <point x="545.550318045846" y="-54.23660954686119"/>
      <point x="548.6568542494924" y="-57.343145750507624" type="curve" smooth="yes"/>
      <point x="610.6568542494924" y="-119.34314575050762" type="line"/>
      <point x="599.3431457505076" y="-130.65685424949237" type="line"/>
      <point x="537.3431457505076" y="-68.65685424949238" type="line" smooth="yes"/>
      <point x="534.2366095468611" y="-65.55031804584598"/>
      <point x="534.2164880703792" y="-60.51986844071923"/>
      <point x="537.2980733752444" y="-57.388580147065895" type="curve" smooth="yes"/>
      <point x="599.2980733752444" y="5.611419852934104" type="line"/>
    </contour>
  </outline>
</glyph>
<glyph name="braceleft" format="2">
  <advance width="461"/>
  <unicode hex="007B"/>
  <outline>
    <contour>
      <point x="367.25772454888437" y="749.1920248301855" type="line"/>
      <point x="252.64268889910437" y="774.7672807189792"/>
      <point x="184.0" y="737.5674627651364"/>
      <point x="184.0" y="658.0" type="curve"/>
      <point x="184.0" y="658.0"/>
      <point x="184.0" y="658.0"/>
      <point x="184.0" y="658.0" type="curve"/>
      <point x="184.0" y="588.7092734329871"/>
      <point x="237.00000000000003" y="494.251243002254"/>
      <point x="237.0" y="436.0" type="curve"/>
      <point x="237.0" y="436.0"/>
      <point x="237.0" y="436.0"/>
      <point x="237.0" y="436.0" type="curve"/>
      <point x="236.99999999999997" y="369.13910812733747"/>
      <point x="202.20913982819567" y="333.0"/>
      <point x="112.0" y="333.0" type="curve" smooth="yes"/>
      <point x="101.33333333333333" y="333.0"/>
      <point x="101.33333333333333" y="349.0"/>
      <point x="112.0" y="349.0" type="curve" smooth="yes"/>
      <point x="202.20913982819567" y="349.0"/>
      <point x="237.00000000000003" y="313.9221758706415"/>
      <point x="237.0" y="246.0" type="curve"/>
      <point x="237.0" y="246.0"/>
      <point x="237.0" y="246.0"/>
      <point x="237.0" y="246.0" type="curve"/>
      <point x="236.99999999999997" y="188.74209398367924"/>
      <point x="184.0" y="94.28064344029636"/>
      <point x="184.0" y="25.999999999999996" type="curve"/>
      <point x="184.0" y="25.999999999999996"/>
      <point x="184.0" y="25.999999999999996"/>
      <point x="184.0" y="25.999999999999996" type="curve"/>
      <point x="184.0" y="-55.461926164306426"/>
      <point x="253.57609848882936" y="-91.7703778400134"/>
      <point x="367.2439024390244" y="-66.1951219512195" type="curve"/>
      <point x="370.7560975609756" y="-81.8048780487805" type="line"/>
      <point x="244.54625950536095" y="-110.20209161129381"/>
      <point x="168.0" y="-64.45038393985713"/>
      <point x="168.0" y="26.000000000000004" type="curve"/>
      <point x="168.0" y="26.000000000000004"/>
      <point x="168.0" y="26.000000000000004"/>
      <point x="168.0" y="26.000000000000004" type="curve"/>
      <point x="168.0" y="97.60816871166115"/>
      <point x="220.99999999999997" y="191.4027975051391"/>
      <point x="221.0" y="246.0" type="curve"/>
      <point x="221.0" y="246.0"/>
      <point x="221.0" y="246.0"/>
      <point x="221.0" y="246.0" type="curve"/>
      <point x="221.00000000000003" y="306.05114264608574"/>
      <point x="191.75542382683284" y="333.0"/>
      <point x="112.0" y="333.0" type="curve" smooth="yes"/>
      <point x="101.33333333333333" y="333.0"/>
      <point x="101.33333333333333" y="349.0"/>
      <point x="112.0" y="349.0" type="curve" smooth="yes"/>
      <point x="191.71554611491942" y="349.0"/>
      <point x="220.99999999999997" y="376.9167128795303"/>
      <point x="221.0" y="436.0" type="curve"/>
      <point x="221.0" y="436.0"/>
      <point x="221.0" y="436.0"/>
      <point x="221.0" y="436.0" type="curve"/>
      <point x="221.00000000000003" y="491.6277663988693"/>
      <point x="168.0" y="585.4414341550873"/>
      <point x="168.0" y="658.0" type="curve"/>
      <point x="168.0" y="658.0"/>
      <point x="168.0" y="658.0"/>
      <point x="168.0" y="658.0" type="curve"/>
      <point x="168.0" y="746.3910600822499"/>
      <point x="243.41705795168454" y="793.2193873391092"/>
      <point x="370.74227545111563" y="764.8079751698145" type="curve"/>
    </contour>
    <contour>
      <point x="112.0" y="349.0" type="line"/>
      <point x="224.0" y="349.0" type="line"/>
      <point x="224.0" y="333.0" type="line"/>
      <point x="112.0" y="333.0" type="line"/>
    </contour>
    <contour>
      <point x="55.46525703020593" y="404.84217130815114" type="line"/>
      <point x="117.46525703020593" y="346.84217130815114" type="line" smooth="yes"/>
      <point x="120.86499796531264" y="343.66176849789"/>
      <point x="120.84158449411932" y="338.2614631470974"/>
      <point x="117.41439408706493" y="335.11065906319254" type="curve" smooth="yes"/>
      <point x="55.41439408706493" y="278.11065906319254" type="line"/>
      <point x="44.58560591293507" y="289.88934093680746" type="line"/>
      <point x="106.58560591293507" y="346.88934093680746" type="line" smooth="yes"/>
      <point x="110.01279631998945" y="350.0401450207123"/>
      <point x="109.93448390490077" y="331.97742588158775"/>
      <point x="106.53474296979407" y="335.15782869184886" type="curve" smooth="yes"/>
      <point x="44.53474296979407" y="393.15782869184886" type="line"/>
    </contour>
    <contour>
      <point x="436.30891678846825" y="806.0154028929994" type="line"/>
      <point x="374.30891678846825" y="751.0154028929994" type="line" smooth="yes"/>
      <point x="371.2980569771774" y="748.3444788668543"/>
      <point x="373.34516490516756" y="764.830622829864"/>
      <point x="375.61135542975546" y="761.50443996313" type="curve" smooth="yes"/>
      <point x="437.61135542975546" y="670.50443996313" type="line"/>
      <point x="424.38864457024454" y="661.49556003687" type="line"/>
      <point x="362.38864457024454" y="752.49556003687" type="line" smooth="yes"/>
      <point x="360.12245404565664" y="755.8217429036039"/>
      <point x="360.6802234002409" y="760.3136730808554"/>
      <point x="363.69108321153175" y="762.9845971070006" type="curve" smooth="yes"/>
      <point x="425.69108321153175" y="817.9845971070006" type="line"/>
    </contour>
    <contour>
      <point x="437.61135542975546" y="12.495560036869922" type="line"/>
      <point x="375.61135542975546" y="-78.50443996313008" type="line" smooth="yes"/>
      <point x="373.3451649051676" y="-81.83062282986387"/>
      <point x="371.29805697717745" y="-65.34447886685433"/>
      <point x="374.30891678846825" y="-68.01540289299942" type="curve" smooth="yes"/>
      <point x="436.30891678846825" y="-123.01540289299942" type="line"/>
      <point x="425.69108321153175" y="-134.98459710700058" type="line"/>
      <point x="363.69108321153175" y="-79.98459710700058" type="line" smooth="yes"/>
      <point x="360.68022340024095" y="-77.3136730808555"/>
      <point x="360.1224540456567" y="-72.8217429036037"/>
      <point x="362.38864457024454" y="-69.49556003686992" type="curve" smooth="yes"/>
      <point x="424.38864457024454" y="21.50443996313008" type="line"/>
    </contour>
  </outline>
</glyph>
<glyph name="bar" format="2">
  <advance width="385"/>
  <unicode hex="007C"/>
  <outline>
    <contour>
      <point x="200.0" y="688.0" type="line"/>
      <point x="200.0" y="-13.000000000000002" type="line"/>
      <point x="184.0" y="-12.999999999999998" type="line"/>
      <point x="184.0" y="688.0" type="line"/>
    </contour>
    <contour>
      <point x="256.6957180376302" y="-80.9887054413853" type="line"/>
      <point x="186.69571803763017" y="-18.988705441385306" type="line" smooth="yes"/>
      <point x="183.65163174752772" y="-16.29251472729457"/>
      <point x="200.37168862640183" y="-16.23275969581915"/>
      <point x="197.34695143040128" y="-18.95063949512401" type="curve" smooth="yes"/>
      <point x="128.34695143040128" y="-80.95063949512401" type="line"/>
      <point x="117.65304856959872" y="-69.04936050487599" type="line"/>
      <point x="186.65304856959872" y="-7.04936050487599" type="line" smooth="yes"/>
      <point x="189.67778576559928" y="-4.331480705571142"/>
      <point x="194.2601956722674" y="-4.315103844523968"/>
      <point x="197.30428196236983" y="-7.011294558614695" type="curve" smooth="yes"/>
      <point x="267.3042819623698" y="-69.0112945586147" type="line"/>
    </contour>
    <contour>
      <point x="128.34695143040128" y="755.950639495124" type="line"/>
      <point x="197.34695143040128" y="693.950639495124" type="line" smooth="yes"/>
      <point x="200.37168862640195" y="691.2327596958191"/>
      <point x="183.65163174752763" y="691.2925147272945"/>
      <point x="186.69571803763017" y="693.9887054413853" type="curve" smooth="yes"/>
      <point x="256.6957180376302" y="755.9887054413853" type="line"/>
      <point x="267.3042819623698" y="744.0112945586147" type="line"/>
      <point x="197.30428196236983" y="682.0112945586147" type="line" smooth="yes"/>
      <point x="194.2601956722673" y="679.315103844524"/>
      <point x="189.6777857655994" y="679.331480705571"/>
      <point x="186.65304856959872" y="682.049360504876" type="curve" smooth="yes"/>
      <point x="117.65304856959872" y="744.049360504876" type="line"/>
    </contour>
  </outline>
</glyph>
<glyph name="braceright" format="2">
  <advance width="461"/>
  <unicode hex="007D"/>
  <outline>
    <contour>
      <point x="93.74227545111563" y="-64.1920248301855" type="line"/>
      <point x="208.35731110089554" y="-89.76728071897939"/>
      <point x="277.0" y="-52.5674627651365"/>
      <point x="277.0" y="27.0" type="curve"/>
      <point x="277.0" y="27.0"/>
      <point x="277.0" y="27.0"/>
      <point x="277.0" y="27.0" type="curve"/>
      <point x="277.0" y="96.29072656701268"/>
      <point x="224.0" y="190.74875699774606"/>
      <point x="224.0" y="249.0" type="curve"/>
      <point x="224.0" y="249.0"/>
      <point x="224.0" y="249.0"/>
      <point x="224.0" y="249.0" type="curve"/>
      <point x="224.0" y="315.86089187266253"/>
      <point x="258.7908601718044" y="352.0"/>
      <point x="349.0" y="352.0" type="curve" smooth="yes"/>
      <point x="359.6666666666667" y="352.0"/>
      <point x="359.6666666666667" y="336.0"/>
      <point x="349.0" y="336.0" type="curve" smooth="yes"/>
      <point x="258.7908601718044" y="336.0"/>
      <point x="224.0" y="371.0778241293585"/>
      <point x="224.0" y="439.0" type="curve"/>
      <point x="224.0" y="439.0"/>
      <point x="224.0" y="439.0"/>
      <point x="224.0" y="439.0" type="curve"/>
      <point x="224.0" y="496.2579060163208"/>
      <point x="277.0" y="590.7193565597037"/>
      <point x="277.0" y="659.0" type="curve"/>
      <point x="277.0" y="659.0"/>
      <point x="277.0" y="659.0"/>
      <point x="277.0" y="659.0" type="curve"/>
      <point x="277.0" y="740.4619261643065"/>
      <point x="207.42390151117067" y="776.7703778400133"/>
      <point x="93.75609756097562" y="751.1951219512196" type="curve"/>
      <point x="90.24390243902438" y="766.8048780487804" type="line"/>
      <point x="216.45374049463902" y="795.2020916112938"/>
      <point x="293.0" y="749.4503839398571"/>
      <point x="293.0" y="659.0" type="curve"/>
      <point x="293.0" y="659.0"/>
      <point x="293.0" y="659.0"/>
      <point x="293.0" y="659.0" type="curve"/>
      <point x="293.0" y="587.3918312883387"/>
      <point x="240.0" y="493.597202494861"/>
      <point x="240.0" y="439.0" type="curve"/>
      <point x="240.0" y="439.0"/>
      <point x="240.0" y="439.0"/>
      <point x="240.0" y="439.0" type="curve"/>
      <point x="240.0" y="378.94885735391426"/>
      <point x="269.2445761731673" y="352.0"/>
      <point x="349.0" y="352.0" type="curve" smooth="yes"/>
      <point x="359.6666666666667" y="352.0"/>
      <point x="359.6666666666667" y="336.0"/>
      <point x="349.0" y="336.0" type="curve" smooth="yes"/>
      <point x="269.28445388508067" y="336.0"/>
      <point x="240.0" y="308.0832871204697"/>
      <point x="240.0" y="249.0" type="curve"/>
      <point x="240.0" y="249.0"/>
      <point x="240.0" y="249.0"/>
      <point x="240.0" y="249.0" type="curve"/>
      <point x="240.0" y="193.37223360113066"/>
      <point x="293.0" y="99.55856584491279"/>
      <point x="293.0" y="27.0" type="curve"/>
      <point x="293.0" y="27.0"/>
      <point x="293.0" y="27.0"/>
      <point x="293.0" y="27.0" type="curve"/>
      <point x="293.0" y="-61.39106008224971"/>
      <point x="217.58294204831546" y="-108.21938733910906"/>
      <point x="90.25772454888437" y="-79.8079751698145" type="curve"/>
    </contour>
    <contour>
      <point x="349.0" y="336.0" type="line"/>
      <point x="237.0" y="336.0" type="line"/>
      <point x="237.0" y="352.0" type="line"/>
      <point x="349.0" y="352.0" type="line"/>
    </contour>
    <contour>
      <point x="405.5347429697941" y="280.15782869184886" type="line"/>
      <point x="343.5347429697941" y="338.15782869184886" type="line" smooth="yes"/>
      <point x="340.1350020346874" y="341.33823150211"/>
      <point x="340.1584155058807" y="346.73853685290266"/>
      <point x="343.5856059129351" y="349.88934093680746" type="curve" smooth="yes"/>
      <point x="405.5856059129351" y="406.88934093680746" type="line"/>
      <point x="416.4143940870649" y="395.11065906319254" type="line"/>
      <point x="354.4143940870649" y="338.11065906319254" type="line" smooth="yes"/>
      <point x="350.98720368001057" y="334.95985497928774"/>
      <point x="351.0655160950992" y="353.02257411841225"/>
      <point x="354.4652570302059" y="349.84217130815114" type="curve" smooth="yes"/>
      <point x="416.4652570302059" y="291.84217130815114" type="line"/>
    </contour>
    <contour>
      <point x="24.69108321153174" y="-121.0154028929994" type="line"/>
      <point x="86.69108321153173" y="-66.0154028929994" type="line" smooth="yes"/>
      <point x="89.70194302282259" y="-63.344478866854296"/>
      <point x="87.65483509483245" y="-79.83062282986391"/>
      <point x="85.38864457024457" y="-76.50443996313008" type="curve" smooth="yes"/>
      <point x="23.388644570244566" y="14.495560036869922" type="line"/>
      <point x="36.611355429755434" y="23.50443996313008" type="line"/>
      <point x="98.61135542975543" y="-67.49556003686992" type="line" smooth="yes"/>
      <point x="100.87754595434332" y="-70.82174290360375"/>
      <point x="100.31977659975912" y="-75.31367308085548"/>
      <point x="97.30891678846827" y="-77.9845971070006" type="curve" smooth="yes"/>
      <point x="35.30891678846826" y="-132.98459710700058" type="line"/>
    </contour>
    <contour>
      <point x="23.388644570244562" y="672.50443996313" type="line"/>
      <point x="85.38864457024457" y="763.50443996313" type="line" smooth="yes"/>
      <point x="87.65483509483239" y="766.8306228298637"/>
      <point x="89.7019430228225" y="750.3444788668544"/>
      <point x="86.69108321153173" y="753.0154028929994" type="curve" smooth="yes"/>
      <point x="24.691083211531733" y="808.0154028929994" type="line"/>
      <point x="35.30891678846827" y="819.9845971070006" type="line"/>
      <point x="97.30891678846827" y="764.9845971070006" type="line" smooth="yes"/>
      <point x="100.31977659975904" y="762.3136730808556"/>
      <point x="100.87754595434326" y="757.8217429036036"/>
      <point x="98.61135542975543" y="754.49556003687" type="curve" smooth="yes"/>
      <point x="36.611355429755434" y="663.49556003687" type="line"/>
    </contour>
  </outline>
</glyph>
<glyph name="sterling" format="2">
  <advance width="566"/>
  <unicode hex="00A3"/>
  <outline>
    <contour>
      <point x="444.8522649890741" y="64.04552676864152" type="line"/>
      <point x="388.64673294036487" y="58.023505477708404"/>
      <point x="315.4147343125739" y="56.0"/>
      <point x="202.0" y="56.0" type="curve"/>
      <point x="202.0" y="56.0"/>
      <point x="202.0" y="56.0"/>
      <point x="202.0" y="56.0" type="curve"/>
      <point x="122.0" y="56.0" type="line" smooth="yes"/>
      <point x="112.17966460562648" y="56.0"/>
      <point x="110.99808893855337" y="70.27669819682318"/>
      <point x="120.68480810155714" y="71.89115139065714" type="curve" smooth="yes"/>
      <point x="177.68402669928355" y="81.39102115694489"/>
      <point x="210.99999999999997" y="104.80125024363775"/>
      <point x="211.0" y="196.0" type="curve"/>
      <point x="211.0" y="196.0"/>
      <point x="211.0" y="196.0"/>
      <point x="211.0" y="196.0" type="curve"/>
      <point x="211.0" y="234.50038759729853"/>
      <point x="200.5652318954928" y="282.848061499208"/>
      <point x="190.17758068629618" y="331.3237672952142" type="curve"/>
      <point x="190.17758068629618" y="331.3237672952142"/>
      <point x="190.17758068629618" y="331.3237672952142"/>
      <point x="190.17758068629618" y="331.3237672952142" type="curve"/>
      <point x="179.57052705857282" y="380.8233510475786"/>
      <point x="170.0" y="431.4726676542189"/>
      <point x="170.0" y="475.0" type="curve"/>
      <point x="170.0" y="475.0"/>
      <point x="170.0" y="475.0"/>
      <point x="170.0" y="475.0" type="curve"/>
      <point x="170.00000000000003" y="585.6866293871533"/>
      <point x="251.82271682005324" y="638.8017396079557"/>
      <point x="352.0640031667433" y="637.9997439705685" type="curve"/>
      <point x="352.0640031667433" y="637.9997439705685"/>
      <point x="352.0640031667433" y="637.9997439705685"/>
      <point x="352.0640031667433" y="637.9997439705685" type="curve"/>
      <point x="381.8364974947371" y="637.7615446074576"/>
      <point x="397.82065887836836" y="637.882718506094"/>
      <point x="441.94127111496874" y="620.4396857613915" type="curve"/>
      <point x="436.05872888503126" y="605.5603142386085" type="line"/>
      <point x="394.1777893405371" y="622.1178949887573"/>
      <point x="380.1971648413727" y="621.774148262103"/>
      <point x="351.9359968332567" y="622.0002560294315" type="curve"/>
      <point x="351.9359968332567" y="622.0002560294315"/>
      <point x="351.9359968332567" y="622.0002560294315"/>
      <point x="351.9359968332567" y="622.0002560294315" type="curve"/>
      <point x="260.1924660221687" y="622.734264082905"/>
      <point x="186.00000000000003" y="576.3033906851007"/>
      <point x="186.0" y="475.0" type="curve"/>
      <point x="186.0" y="475.0"/>
      <point x="186.0" y="475.0"/>
      <point x="186.0" y="475.0" type="curve"/>
      <point x="186.0" y="432.5296195101695"/>
      <point x="195.47293132149719" y="382.97384348760943"/>
      <point x="205.82241931370382" y="334.6762327047858" type="curve"/>
      <point x="205.82241931370382" y="334.6762327047858"/>
      <point x="205.82241931370382" y="334.6762327047858"/>
      <point x="205.82241931370382" y="334.6762327047858" type="curve"/>
      <point x="216.4792374111088" y="284.94441475984064"/>
      <point x="227.0" y="235.4980173131676"/>
      <point x="227.0" y="196.0" type="curve"/>
      <point x="227.0" y="196.0"/>
      <point x="227.0" y="196.0"/>
      <point x="227.0" y="196.0" type="curve"/>
      <point x="226.99999999999997" y="95.20139016424285"/>
      <point x="186.31432304579104" y="66.60870380056757"/>
      <point x="123.31519189844286" y="56.10884860934285" type="curve" smooth="yes"/>
      <point x="113.62847273543915" y="54.4943954155089"/>
      <point x="112.17966460562654" y="72.0"/>
      <point x="122.0" y="72.0" type="curve" smooth="yes"/>
      <point x="202.0" y="72.0" type="line"/>
      <point x="202.0" y="72.0"/>
      <point x="202.0" y="72.0"/>
      <point x="202.0" y="72.0" type="curve"/>
      <point x="314.61438259165664" y="72.0"/>
      <point x="387.3388374433792" y="73.97494849197848"/>
      <point x="443.1477350109259" y="79.95447323135848" type="curve"/>
    </contour>
    <contour>
      <point x="112.0" y="341.0" type="line"/>
      <point x="198.0" y="341.0" type="line"/>
      <point x="198.0" y="341.0"/>
      <point x="198.0" y="341.0"/>
      <point x="198.0" y="341.0" type="curve"/>
      <point x="414.0" y="341.0" type="line"/>
      <point x="414.0" y="325.0" type="line"/>
      <point x="198.0" y="325.0" type="line"/>
      <point x="198.0" y="325.0"/>
      <point x="198.0" y="325.0"/>
      <point x="198.0" y="325.0" type="curve"/>
      <point x="112.0" y="325.0" type="line"/>
    </contour>
    <contour>
      <point x="506.1982491936316" y="659.9190292451856" type="line"/>
      <point x="444.1982491936316" y="606.9190292451856" type="line" smooth="yes"/>
      <point x="441.31801810605765" y="604.4568962187111"/>
      <point x="444.19096811878836" y="620.1701938709917"/>
      <point x="446.0136549791715" y="616.8482000770675" type="curve" smooth="yes"/>
      <point x="508.0136549791715" y="503.84820007706753" type="line"/>
      <point x="493.9863450208285" y="496.15179992293247" type="line"/>
      <point x="431.9863450208285" y="609.1517999229325" type="line" smooth="yes"/>
      <point x="430.1636581604453" y="612.4737937168567"/>
      <point x="430.9215197187944" y="616.6188377283399"/>
      <point x="433.8017508063684" y="619.0809707548144" type="curve" smooth="yes"/>
      <point x="495.8017508063684" y="672.0809707548144" type="line"/>
    </contour>
    <contour>
      <point x="532.1610459453485" y="165.89691143920624" type="line"/>
      <point x="450.1610459453486" y="66.89691143920625" type="line" smooth="yes"/>
      <point x="447.6722208281385" y="63.8921103830624"/>
      <point x="447.5162162074222" y="80.17675384451067"/>
      <point x="450.06215041882723" y="77.22018508287901" type="curve" smooth="yes"/>
      <point x="512.0621504188273" y="5.220185082879013" type="line"/>
      <point x="499.93784958117277" y="-5.220185082879013" type="line"/>
      <point x="437.93784958117277" y="66.77981491712099" type="line" smooth="yes"/>
      <point x="435.39191536976773" y="69.73638367875265"/>
      <point x="435.35012893744135" y="74.0982875046499"/>
      <point x="437.8389540546514" y="77.10308856079375" type="curve" smooth="yes"/>
      <point x="519.8389540546515" y="176.10308856079376" type="line"/>
    </contour>
    <contour>
      <point x="54.25407821768661" y="5.566361726616094" type="line"/>
      <point x="116.25407821768661" y="69.5663617266161" type="line" smooth="yes"/>
      <point x="119.2765303766089" y="72.68631234227782"/>
      <point x="119.34499143089697" y="55.29251825180601"/>
      <point x="116.29807337524439" y="58.388580147065895" type="curve" smooth="yes"/>
      <point x="54.29807337524438" y="121.3885801470659" type="line"/>
      <point x="65.70192662475561" y="132.6114198529341" type="line"/>
      <point x="127.70192662475561" y="69.6114198529341" type="line" smooth="yes"/>
      <point x="130.7488446804082" y="66.51535795767423"/>
      <point x="130.76837394123567" y="61.55358888904563"/>
      <point x="127.74592178231339" y="58.433638273383906" type="curve" smooth="yes"/>
      <point x="65.74592178231339" y="-5.566361726616094" type="line"/>
    </contour>
    <contour>
      <point x="54.13765206698961" y="282.4436087949382" type="line"/>
      <point x="106.1376520669896" y="338.4436087949382" type="line" smooth="yes"/>
      <point x="108.98785482297568" y="341.51305791676936"/>
      <point x="108.98785482297568" y="324.48694208323064"/>
      <point x="106.1376520669896" y="327.5563912050618" type="curve" smooth="yes"/>
      <point x="54.13765206698961" y="383.5563912050618" type="line"/>
      <point x="65.8623479330104" y="394.4436087949382" type="line"/>
      <point x="117.8623479330104" y="338.4436087949382" type="line" smooth="yes"/>
      <point x="120.71255068899647" y="335.37415967310704"/>
      <point x="120.71255068899647" y="330.62584032689296"/>
      <point x="117.8623479330104" y="327.5563912050618" type="curve" smooth="yes"/>
      <point x="65.8623479330104" y="271.5563912050618" type="line"/>
    </contour>
    <contour>
      <point x="481.36229006375015" y="383.0631788579909" type="line"/>
      <point x="419.36229006375015" y="327.0631788579909" type="line" smooth="yes"/>
      <point x="416.0514716039768" y="324.0727621846472"/>
      <point x="416.8265818125631" y="341.7128953861891"/>
      <point x="419.86234793301037" y="338.4436087949382" type="curve" smooth="yes"/>
      <point x="471.86234793301037" y="282.4436087949382" type="line"/>
      <point x="460.13765206698963" y="271.5563912050618" type="line"/>
      <point x="408.13765206698963" y="327.5563912050618" type="line" smooth="yes"/>
      <point x="405.1018859465424" y="330.8256777963127"/>
      <point x="405.3268914764765" y="335.9464044686654"/>
      <point x="408.63770993624985" y="338.9368211420091" type="curve" smooth="yes"/>
      <point x="470.63770993624985" y="394.9368211420091" type="line"/>
    </contour>
    <contour>
      <point x="266.31491071063937" y="383.02072545053073" type="line"/>
      <point x="203.31491071063937" y="327.02072545053073" type="line"/>
      <point x="203.31491071063937" y="327.02072545053073"/>
      <point x="203.31491071063937" y="327.02072545053073"/>
      <point x="203.31491071063937" y="327.02072545053073" type="curve"/>
      <point x="140.31491071063937" y="271.02072545053073" type="line"/>
      <point x="129.68508928936063" y="282.97927454946927" type="line"/>
      <point x="192.68508928936063" y="338.97927454946927" type="line"/>
      <point x="192.68508928936063" y="338.97927454946927"/>
      <point x="192.68508928936063" y="338.97927454946927"/>
      <point x="192.68508928936063" y="338.97927454946927" type="curve"/>
      <point x="255.68508928936063" y="394.97927454946927" type="line"/>
    </contour>
    <contour>
      <point x="117.40126154362237" y="395.6804862715697" type="line"/>
      <point x="202.40126154362238" y="339.6804862715697" type="line" smooth="yes"/>
      <point x="202.4131992509232" y="339.67262142911267"/>
      <point x="202.3534056736784" y="339.71178541112477"/>
      <point x="202.36538537149946" y="339.7039846776599" type="curve" smooth="yes"/>
      <point x="288.3653853714995" y="283.7039846776599" type="line"/>
      <point x="279.6346146285005" y="270.2960153223401" type="line"/>
      <point x="193.63461462850054" y="326.2960153223401" type="line" smooth="yes"/>
      <point x="193.62263493067948" y="326.303816055805"/>
      <point x="193.61067616367845" y="326.3116488859733"/>
      <point x="193.59873845637762" y="326.3195137284303" type="curve" smooth="yes"/>
      <point x="108.59873845637763" y="382.3195137284303" type="line"/>
    </contour>
    <contour>
      <point x="122.0" y="72.0" type="line"/>
      <point x="186.80654095999287" y="72.0"/>
      <point x="249.24240215200302" y="87.37334812400438"/>
      <point x="270.8445824720007" y="130.57770876399965" type="curve"/>
      <point x="285.1554175279993" y="123.42229123600033" type="line"/>
      <point x="260.782463288609" y="74.67638275721957"/>
      <point x="195.11886271817116" y="56.0"/>
      <point x="122.0" y="56.0" type="curve"/>
    </contour>
  </outline>
</glyph>
